<svg xmlns="http://www.w3.org/2000/svg" width="40" height="40" viewBox="0 0 40 40">
    <g id="Phonecall" transform="translate(0 0)">
        <rect id="Rectángulo_7" data-name="Rectángulo 7" width="40" height="40" transform="translate(0 0)" fill="#fff" opacity="0" />
        <path id="Icon_feather-phone-call" data-name="Icon feather-phone-call" d="M14.048,4.857A4.2,4.2,0,0,1,17.37,8.173M14.048,1.5a7.561,7.561,0,0,1,6.686,6.665m-.841,6.7v2.518a1.681,1.681,0,0,1-1.833,1.679A16.663,16.663,0,0,1,10.8,16.483a16.383,16.383,0,0,1-5.046-5.036A16.59,16.59,0,0,1,3.175,4.169a1.68,1.68,0,0,1,1.674-1.83H7.371A1.681,1.681,0,0,1,9.053,3.783a10.761,10.761,0,0,0,.589,2.359,1.676,1.676,0,0,1-.378,1.771L8.2,8.979a13.443,13.443,0,0,0,5.046,5.036l1.068-1.066a1.684,1.684,0,0,1,1.774-.378,10.815,10.815,0,0,0,2.363.588A1.68,1.68,0,0,1,19.893,14.863Z" transform="translate(7.92 9.587)" fill="none" stroke="#fff" strokeLinecap="round" strokeLinejoin="round" strokeWidth="1.7" />
    </g>
</svg>