<svg width="309" height="150" viewBox="0 0 309 150" fill="none" xmlns="http://www.w3.org/2000/svg">
<g filter="url(#filter0_d_28384_46247)">
<g clip-path="url(#clip0_28384_46247)">
<rect x="13.3984" y="9.00049" width="282.204" height="131.207" rx="3.66499" fill="#E4E7E6"/>
<path d="M14.1328 13.3986C14.1328 11.3745 15.7737 9.73364 17.7978 9.73364H290.623C292.647 9.73364 294.288 11.3745 294.288 13.3986V52.2475H14.1328V13.3986Z" fill="white"/>
<rect x="26.9616" y="24.0271" width="12.461" height="12.461" rx="6.23048" fill="white" stroke="#DEDEDE" stroke-width="0.732997"/>
<path d="M52.6663 33.7164C51.9616 33.7164 51.3562 33.5659 50.8499 33.2649C50.3437 32.9638 49.9537 32.5363 49.6801 31.9821C49.4064 31.428 49.2696 30.7678 49.2696 30.0015C49.2696 29.2353 49.4064 28.5786 49.6801 28.0313C49.9537 27.4771 50.3437 27.0495 50.8499 26.7485C51.3562 26.4475 51.9616 26.297 52.6663 26.297C53.1657 26.297 53.6241 26.3757 54.0414 26.533C54.4656 26.6904 54.8247 26.9195 55.1189 27.2206L54.7803 27.9081C54.4656 27.6208 54.1406 27.4155 53.8054 27.2924C53.4701 27.1624 53.0939 27.0974 52.6766 27.0974C51.8898 27.0974 51.2775 27.3471 50.8397 27.8465C50.4087 28.346 50.1932 29.0643 50.1932 30.0015C50.1932 30.932 50.4087 31.6503 50.8397 32.1566C51.2707 32.6628 51.883 32.9159 52.6766 32.9159C53.0939 32.9159 53.4701 32.8544 53.8054 32.7312C54.1406 32.6012 54.4656 32.3926 54.7803 32.1053L55.1189 32.7928C54.8247 33.0938 54.4656 33.323 54.0414 33.4804C53.6241 33.6377 53.1657 33.7164 52.6663 33.7164ZM56.4583 33.624V28.5957H57.2793V29.7758H57.228C57.3511 29.3858 57.5598 29.0848 57.854 28.8727C58.1481 28.6607 58.5244 28.5375 58.9828 28.5033L59.3522 28.4828L59.424 29.2524L58.8083 29.3037C58.3431 29.3516 57.9805 29.5056 57.7206 29.7655C57.4674 30.0255 57.3409 30.371 57.3409 30.802V33.624H56.4583ZM62.6764 33.7164C62.1291 33.7164 61.657 33.6138 61.2602 33.4085C60.8703 33.1964 60.5692 32.8954 60.3572 32.5055C60.1451 32.1155 60.039 31.6537 60.039 31.1201C60.039 30.6002 60.1382 30.1452 60.3366 29.7553C60.5419 29.3653 60.8292 29.0609 61.1986 28.8419C61.5681 28.6162 61.9991 28.5033 62.4916 28.5033C62.9637 28.5033 63.3639 28.6059 63.6923 28.8112C64.0275 29.0164 64.2806 29.3072 64.4517 29.6834C64.6296 30.0529 64.7185 30.4975 64.7185 31.0175V31.3253H60.6958V30.7404H64.1541L63.9694 30.8943C63.9694 30.347 63.8428 29.9229 63.5897 29.6219C63.3434 29.314 62.9808 29.1601 62.5019 29.1601C62.1667 29.1601 61.8759 29.2387 61.6296 29.3961C61.3834 29.5466 61.1952 29.7621 61.0652 30.0426C60.9352 30.3231 60.8703 30.6515 60.8703 31.0277V31.0996C60.8703 31.5169 60.9387 31.8692 61.0755 32.1566C61.2192 32.4371 61.4278 32.6491 61.7015 32.7928C61.9751 32.9365 62.3001 33.0083 62.6764 33.0083C62.9705 33.0083 63.2579 32.9673 63.5384 32.8852C63.8189 32.7962 64.0857 32.6491 64.3388 32.4439L64.6261 33.0596C64.3867 33.2717 64.0891 33.4359 63.7333 33.5522C63.3844 33.6617 63.0321 33.7164 62.6764 33.7164ZM68.0089 33.7164C67.5574 33.7164 67.1606 33.6103 66.8185 33.3983C66.4764 33.1793 66.213 32.8749 66.0283 32.4849C65.8436 32.095 65.7513 31.6366 65.7513 31.1098C65.7513 30.5762 65.8436 30.1179 66.0283 29.7347C66.213 29.3448 66.473 29.0438 66.8082 28.8317C67.1503 28.6128 67.5471 28.5033 67.9986 28.5033C68.4433 28.5033 68.8264 28.6128 69.148 28.8317C69.4695 29.0506 69.6884 29.3448 69.8047 29.7142H69.7432V26.3893H70.6154V33.624H69.7842V32.4644H69.8355C69.7124 32.8544 69.4866 33.1622 69.1582 33.388C68.8367 33.6069 68.4536 33.7164 68.0089 33.7164ZM68.1936 33.0083C68.6725 33.0083 69.0522 32.8441 69.3327 32.5157C69.6132 32.1805 69.7534 31.7119 69.7534 31.1098C69.7534 30.5078 69.6132 30.0426 69.3327 29.7142C69.0522 29.379 68.6725 29.2114 68.1936 29.2114C67.7147 29.2114 67.3316 29.379 67.0443 29.7142C66.7638 30.0426 66.6235 30.5078 66.6235 31.1098C66.6235 31.7119 66.7638 32.1805 67.0443 32.5157C67.3316 32.8441 67.7147 33.0083 68.1936 33.0083ZM72.1898 27.3642V26.3996H73.2468V27.3642H72.1898ZM72.2822 33.624V28.5957H73.1545V33.624H72.2822ZM76.8803 33.7164C76.2851 33.7164 75.837 33.559 75.536 33.2443C75.2349 32.9228 75.0844 32.4678 75.0844 31.8795V29.2935H74.0788V28.5957H75.0947V27.0872H75.9464V28.5957H77.6294V29.2935H75.9464V31.7974C75.9464 32.1873 76.0285 32.4815 76.1927 32.6799C76.3638 32.8715 76.634 32.9673 77.0034 32.9673C77.1266 32.9673 77.2463 32.9536 77.3626 32.9262C77.4857 32.8988 77.5986 32.8681 77.7012 32.8339L77.8552 33.5009C77.7457 33.5625 77.5986 33.6138 77.4139 33.6548C77.236 33.6959 77.0582 33.7164 76.8803 33.7164ZM83.6276 33.7164C83.1213 33.7164 82.6801 33.6069 82.3038 33.388C81.9344 33.1691 81.647 32.8646 81.4418 32.4747C81.2434 32.0779 81.1442 31.6161 81.1442 31.0893C81.1442 30.5557 81.2434 30.0973 81.4418 29.7142C81.647 29.3243 81.9344 29.0267 82.3038 28.8214C82.6801 28.6093 83.1213 28.5033 83.6276 28.5033C83.956 28.5033 84.2741 28.5615 84.582 28.6778C84.8898 28.7941 85.143 28.9514 85.3414 29.1498L85.0438 29.786C84.8454 29.5945 84.6264 29.4542 84.387 29.3653C84.1475 29.2764 83.9149 29.2319 83.6892 29.2319C83.1624 29.2319 82.7519 29.3927 82.4577 29.7142C82.1704 30.0358 82.0267 30.4975 82.0267 31.0996C82.0267 31.6948 82.1704 32.16 82.4577 32.4952C82.7519 32.8236 83.1624 32.9878 83.6892 32.9878C83.9081 32.9878 84.1373 32.9433 84.3767 32.8544C84.6162 32.7654 84.8351 32.6286 85.0335 32.4439L85.3311 33.0801C85.1327 33.2785 84.8796 33.4359 84.5717 33.5522C84.2638 33.6617 83.9491 33.7164 83.6276 33.7164ZM87.984 33.7164C87.6351 33.7164 87.3204 33.6514 87.0399 33.5214C86.7594 33.3846 86.5405 33.1999 86.3831 32.9673C86.2258 32.7347 86.1471 32.4747 86.1471 32.1873C86.1471 31.8111 86.2463 31.5169 86.4447 31.3048C86.6431 31.0859 86.9646 30.9285 87.4093 30.8328C87.854 30.737 88.4423 30.6891 89.1744 30.6891H89.7593V31.274H89.2051C88.7947 31.274 88.4492 31.2877 88.1687 31.3151C87.8882 31.3424 87.6624 31.3903 87.4914 31.4587C87.3272 31.5203 87.2041 31.6058 87.122 31.7153C87.0467 31.8248 87.0091 31.965 87.0091 32.136C87.0091 32.4165 87.1117 32.6423 87.3169 32.8133C87.5222 32.9775 87.7958 33.0596 88.1379 33.0596C88.4184 33.0596 88.6681 32.9946 88.887 32.8646C89.1128 32.7278 89.2907 32.5465 89.4206 32.3208C89.5506 32.0881 89.6156 31.8316 89.6156 31.5511V30.3812C89.6156 29.9708 89.5164 29.6732 89.318 29.4885C89.1265 29.2969 88.8254 29.2011 88.415 29.2011C88.114 29.2011 87.8198 29.2456 87.5324 29.3345C87.2451 29.4166 86.9475 29.5534 86.6396 29.745L86.3523 29.1088C86.5439 28.9856 86.756 28.8796 86.9886 28.7906C87.2212 28.6949 87.464 28.623 87.7172 28.5751C87.9703 28.5272 88.2166 28.5033 88.456 28.5033C88.887 28.5033 89.2496 28.5751 89.5438 28.7188C89.8448 28.8556 90.0706 29.0677 90.2211 29.355C90.3784 29.6424 90.4571 30.0118 90.4571 30.4633V33.624H89.6669V32.4849H89.7182C89.643 32.7244 89.5233 32.9365 89.3591 33.1212C89.2017 33.3059 89.0067 33.453 88.7741 33.5625C88.5415 33.6651 88.2781 33.7164 87.984 33.7164ZM92.0946 33.624V28.5957H92.9156V29.7758H92.8643C92.9874 29.3858 93.1961 29.0848 93.4902 28.8727C93.7844 28.6607 94.1607 28.5375 94.619 28.5033L94.9885 28.4828L95.0603 29.2524L94.4446 29.3037C93.9794 29.3516 93.6168 29.5056 93.3568 29.7655C93.1037 30.0255 92.9771 30.371 92.9771 30.802V33.624H92.0946ZM97.9329 33.7164C97.4814 33.7164 97.0846 33.6103 96.7426 33.3983C96.4005 33.1793 96.1371 32.8749 95.9524 32.4849C95.7677 32.095 95.6753 31.6366 95.6753 31.1098C95.6753 30.5762 95.7677 30.1179 95.9524 29.7347C96.1371 29.3448 96.3971 29.0438 96.7323 28.8317C97.0744 28.6128 97.4712 28.5033 97.9227 28.5033C98.3674 28.5033 98.7505 28.6128 99.072 28.8317C99.3936 29.0506 99.6125 29.3448 99.7288 29.7142H99.6672V26.3893H100.539V33.624H99.7083V32.4644H99.7596C99.6364 32.8544 99.4107 33.1622 99.0823 33.388C98.7607 33.6069 98.3776 33.7164 97.9329 33.7164ZM98.1177 33.0083C98.5966 33.0083 98.9762 32.8441 99.2567 32.5157C99.5372 32.1805 99.6775 31.7119 99.6775 31.1098C99.6775 30.5078 99.5372 30.0426 99.2567 29.7142C98.9762 29.379 98.5966 29.2114 98.1177 29.2114C97.6388 29.2114 97.2557 29.379 96.9683 29.7142C96.6878 30.0426 96.5476 30.5078 96.5476 31.1098C96.5476 31.7119 96.6878 32.1805 96.9683 32.5157C97.2557 32.8441 97.6388 33.0083 98.1177 33.0083Z" fill="#4D5353"/>
<g opacity="0.4">
<g clip-path="url(#clip1_28384_46247)">
<g clip-path="url(#clip2_28384_46247)">
<g clip-path="url(#clip3_28384_46247)">
<path d="M153.551 23.1103C154.256 23.1103 154.834 23.6879 154.834 24.393V37.5869C154.834 38.292 154.256 38.8697 153.551 38.8697H130.095C129.39 38.8697 128.812 38.292 128.812 37.5869V24.393C128.812 23.6879 129.39 23.1103 130.095 23.1103H153.551Z" fill="white" stroke="#C7CCCC" stroke-width="0.366499"/>
<path d="M148.641 29.5979H148.421C148.128 30.3309 147.908 30.6974 147.688 31.7969H149.081C148.861 30.6974 148.861 30.1843 148.641 29.5979ZM150.767 33.9226H149.521C149.448 33.9226 149.448 33.9226 149.374 33.8493L149.228 33.1896L149.154 33.043H147.395C147.322 33.043 147.249 33.043 147.249 33.1896L147.029 33.8493C147.029 33.9226 146.955 33.9226 146.955 33.9226H145.416L145.563 33.5561L147.688 28.5717C147.688 28.2052 147.908 28.0586 148.275 28.0586H149.374C149.448 28.0586 149.521 28.0586 149.521 28.2052L150.547 32.9697C150.62 33.2629 150.694 33.4828 150.694 33.776C150.767 33.8493 150.767 33.8493 150.767 33.9226ZM140.945 33.7027L141.238 32.3833C141.311 32.3833 141.385 32.4566 141.385 32.4566C141.898 32.6765 142.411 32.8231 142.924 32.7498C143.071 32.7498 143.29 32.6765 143.437 32.6032C143.804 32.4566 143.804 32.0901 143.51 31.7969C143.364 31.6503 143.144 31.577 142.924 31.4304C142.631 31.2838 142.338 31.1372 142.118 30.9173C141.238 30.1843 141.531 29.1581 142.044 28.645C142.484 28.3518 142.704 28.0586 143.29 28.0586C144.17 28.0586 145.123 28.0586 145.563 28.2052H145.636C145.563 28.645 145.489 29.0115 145.343 29.4513C144.976 29.3047 144.61 29.1581 144.243 29.1581C144.023 29.1581 143.804 29.1581 143.584 29.2314C143.437 29.2314 143.364 29.3047 143.29 29.378C143.144 29.5246 143.144 29.7445 143.29 29.8911L143.657 30.1843C143.95 30.3309 144.243 30.4775 144.463 30.6241C144.83 30.844 145.196 31.2105 145.27 31.6503C145.416 32.31 145.196 32.8964 144.61 33.3362C144.243 33.6294 144.097 33.776 143.584 33.776C142.557 33.776 141.751 33.8493 141.091 33.6294C141.018 33.776 141.018 33.776 140.945 33.7027ZM138.379 33.9226C138.453 33.4095 138.453 33.4095 138.526 33.1896C138.892 31.577 139.259 29.8911 139.552 28.2785C139.625 28.1319 139.625 28.0586 139.772 28.0586H141.091C140.945 28.9382 140.798 29.5979 140.578 30.4042C140.358 31.5037 140.139 32.6032 139.845 33.7027C139.845 33.8493 139.772 33.8493 139.625 33.8493M131.562 28.2052C131.562 28.1319 131.709 28.0586 131.782 28.0586H134.275C134.641 28.0586 134.934 28.2785 135.008 28.645L135.667 31.8702C135.667 31.9435 135.667 31.9435 135.741 32.0168C135.741 31.9435 135.814 31.9435 135.814 31.9435L137.353 28.2052C137.28 28.1319 137.353 28.0586 137.426 28.0586H138.966C138.966 28.1319 138.966 28.1319 138.892 28.2052L136.62 33.5561C136.547 33.7027 136.547 33.776 136.474 33.8493C136.4 33.9226 136.254 33.8493 136.107 33.8493H135.008C134.934 33.8493 134.861 33.8493 134.861 33.7027L133.688 29.1581C133.542 29.0115 133.322 28.7916 133.028 28.7183C132.589 28.4984 131.782 28.3518 131.636 28.3518L131.562 28.2052Z" fill="#868686"/>
</g>
</g>
</g>
<g clip-path="url(#clip4_28384_46247)">
<g clip-path="url(#clip5_28384_46247)">
<g clip-path="url(#clip6_28384_46247)">
<path d="M185.066 23.1103C185.772 23.1103 186.349 23.6879 186.349 24.393V37.5869C186.349 38.292 185.772 38.8697 185.066 38.8697H161.611C160.905 38.8697 160.328 38.292 160.328 37.5869V24.393C160.328 23.6879 160.905 23.1103 161.611 23.1103H185.066Z" fill="white" stroke="#C7CCCC" stroke-width="0.366499"/>
<path d="M170.408 36.1216C173.242 36.1216 175.539 33.8244 175.539 30.9906C175.539 28.1568 173.242 25.8596 170.408 25.8596C167.575 25.8596 165.277 28.1568 165.277 30.9906C165.277 33.8244 167.575 36.1216 170.408 36.1216Z" fill="#C4C4C4"/>
<path d="M176.272 36.1216C179.105 36.1216 181.403 33.8244 181.403 30.9906C181.403 28.1568 179.105 25.8596 176.272 25.8596C173.438 25.8596 171.141 28.1568 171.141 30.9906C171.141 33.8244 173.438 36.1216 176.272 36.1216Z" fill="#CDCDCD"/>
<path d="M175.539 30.9903C175.539 29.2311 174.659 27.6919 173.34 26.8123C172.02 27.7652 171.141 29.3044 171.141 30.9903C171.141 32.6762 172.02 34.2888 173.34 35.1684C174.659 34.2888 175.539 32.7495 175.539 30.9903Z" fill="#656565"/>
</g>
</g>
</g>
<g clip-path="url(#clip7_28384_46247)">
<g clip-path="url(#clip8_28384_46247)">
<g clip-path="url(#clip9_28384_46247)">
<path d="M216.586 22.9268C217.392 22.9268 218.052 23.5865 218.052 24.3928V37.5867C218.052 38.393 217.392 39.0527 216.586 39.0527H193.13C192.324 39.0527 191.664 38.393 191.664 37.5867V24.3928C191.664 23.5865 192.324 22.9268 193.13 22.9268H216.586Z" fill="#C4C4C4"/>
<path d="M197.507 29.7208L198.074 31.0959H196.944L197.507 29.7208ZM209.29 29.778H207.108V30.3842H209.255V31.2923H207.112V31.9682H209.294V32.5098L210.817 30.8643L209.294 29.149L209.29 29.778ZM198.982 28.0627H201.91L202.56 29.4811L203.163 28.0583H210.764L211.554 28.9306L212.371 28.0583H215.863L213.283 30.8819L215.836 33.6878H212.293L211.503 32.8155L210.678 33.6878H198.283L197.921 32.8155H197.093L196.73 33.6878H193.863L196.272 28.0583H198.786L198.982 28.0627ZM205.332 28.8529H203.691L202.591 31.4448L201.4 28.8529H199.771V32.3786L198.261 28.8529H196.8L195.054 32.8932H196.194L196.556 32.0209H198.459L198.821 32.8932H200.815V30.0089L202.099 32.8976H202.971L204.246 30.0177V32.8983H205.315L205.332 28.8522L205.332 28.8529ZM212.178 30.8819L214.033 28.8529H212.698L211.524 30.1181L210.389 28.8529H206.069V32.8976H210.328L211.511 31.6236L212.646 32.8976H214.02L212.178 30.8819Z" fill="white"/>
</g>
</g>
</g>
<g clip-path="url(#clip10_28384_46247)">
<g clip-path="url(#clip11_28384_46247)">
<g clip-path="url(#clip12_28384_46247)">
<path d="M248.106 23.1103C248.811 23.1103 249.388 23.6879 249.388 24.393V37.5869C249.388 38.292 248.811 38.8697 248.106 38.8697H224.65C223.944 38.8697 223.367 38.292 223.367 37.5869V24.393C223.367 23.6879 223.944 23.1103 224.65 23.1103H248.106Z" fill="white" stroke="#C7CCCC" stroke-width="0.366499"/>
<path d="M225.065 27.4429H223.914V31.4744H225.065C225.673 31.4744 226.113 31.3278 226.502 31.0126C226.963 30.6315 227.235 30.0597 227.235 29.466C227.227 28.2712 226.34 27.4429 225.065 27.4429ZM225.988 30.4775C225.739 30.6974 225.424 30.8001 224.911 30.8001H224.698V28.132H224.911C225.417 28.132 225.725 28.2199 225.988 28.4545C226.26 28.6964 226.421 29.0702 226.421 29.4587C226.421 29.8472 226.26 30.2357 225.988 30.4775ZM227.594 27.4429H228.378V31.4744H227.594V27.4429ZM230.298 28.9896C229.829 28.8136 229.69 28.6964 229.69 28.4838C229.69 28.2272 229.939 28.0367 230.276 28.0367C230.511 28.0367 230.709 28.132 230.907 28.3665L231.317 27.8314C230.98 27.5382 230.577 27.3843 230.13 27.3843C229.419 27.3843 228.869 27.8827 228.869 28.5424C228.869 29.0995 229.126 29.3854 229.859 29.6493C230.167 29.7592 230.32 29.8325 230.401 29.8765C230.555 29.9791 230.636 30.1257 230.636 30.2943C230.636 30.6241 230.379 30.866 230.027 30.866C229.653 30.866 229.353 30.6755 229.17 30.331L228.664 30.8221C229.023 31.3571 229.463 31.5917 230.057 31.5917C230.87 31.5917 231.449 31.0493 231.449 30.265C231.464 29.6126 231.193 29.3194 230.298 28.9896ZM231.706 29.466C231.706 30.6535 232.637 31.5697 233.832 31.5697C234.169 31.5697 234.462 31.5037 234.814 31.3352V30.4116C234.499 30.7268 234.22 30.8514 233.868 30.8514C233.077 30.8514 232.512 30.2796 232.512 29.4587C232.512 28.6817 233.091 28.0733 233.832 28.0733C234.205 28.0733 234.491 28.2053 234.814 28.5278V27.6042C234.469 27.4283 234.183 27.355 233.846 27.355C232.666 27.355 231.706 28.2932 231.706 29.466ZM241.059 30.155L239.981 27.4429H239.124L240.832 31.577H241.257L242.994 27.4429H242.144L241.059 30.155ZM243.353 31.4744H245.581V30.7927H244.137V29.7079H245.53V29.0262H244.137V28.132H245.581V27.4429H243.353V31.4744ZM248.697 28.6377C248.697 27.8827 248.176 27.4503 247.267 27.4503H246.102V31.4818H246.886V29.8618H246.989L248.074 31.4818H249.041L247.773 29.7812C248.367 29.6566 248.697 29.2534 248.697 28.6377ZM247.113 29.3048H246.886V28.0806H247.128C247.619 28.0806 247.883 28.2859 247.883 28.6817C247.883 29.0849 247.619 29.3048 247.113 29.3048Z" fill="#231F20"/>
<path d="M237.223 31.6206C237.792 31.6206 238.339 31.3942 238.742 30.9913C239.145 30.5884 239.371 30.0419 239.371 29.4721C239.371 28.9024 239.145 28.3559 238.742 27.953C238.339 27.5501 237.792 27.3237 237.223 27.3237C236.653 27.3237 236.106 27.5501 235.703 27.953C235.301 28.3559 235.074 28.9024 235.074 29.4721C235.074 30.0419 235.301 30.5884 235.703 30.9913C236.106 31.3942 236.653 31.6206 237.223 31.6206Z" fill="#A0A0A0"/>
<path opacity="0.65" d="M237.223 31.6206C237.792 31.6206 238.339 31.3942 238.742 30.9913C239.145 30.5884 239.371 30.0419 239.371 29.4721C239.371 28.9024 239.145 28.3559 238.742 27.953C238.339 27.5501 237.792 27.3237 237.223 27.3237C236.653 27.3237 236.106 27.5501 235.703 27.953C235.301 28.3559 235.074 28.9024 235.074 29.4721C235.074 30.0419 235.301 30.5884 235.703 30.9913C236.106 31.3942 236.653 31.6206 237.223 31.6206Z" fill="#8C8C8C"/>
<path d="M249.253 27.6964C249.253 27.6231 249.202 27.5864 249.121 27.5864H249.004V27.9383H249.092V27.799L249.194 27.9383H249.297L249.18 27.7917C249.224 27.7843 249.253 27.7477 249.253 27.6964ZM249.107 27.7477H249.092V27.6524H249.107C249.151 27.6524 249.172 27.6671 249.172 27.6964C249.172 27.733 249.151 27.7477 249.107 27.7477Z" fill="#231F20"/>
<path d="M249.136 27.4543C248.967 27.4543 248.828 27.5936 248.828 27.7622C248.828 27.9308 248.967 28.0701 249.136 28.0701C249.305 28.0701 249.444 27.9308 249.444 27.7622C249.444 27.5936 249.305 27.4543 249.136 27.4543ZM249.136 28.0188C249.004 28.0188 248.887 27.9088 248.887 27.7622C248.887 27.6229 248.997 27.5057 249.136 27.5057C249.268 27.5057 249.378 27.6229 249.378 27.7622C249.378 27.9015 249.268 28.0188 249.136 28.0188Z" fill="#231F20"/>
<path d="M249.569 31.7114C249.569 31.7114 242.305 36.761 229.027 39.0531H248.102C248.489 39.0531 248.86 38.9003 249.135 38.6279C249.409 38.3555 249.565 37.9856 249.568 37.5989L249.586 35.3852L249.569 31.7114Z" fill="#ACACAC"/>
</g>
</g>
</g>
<rect x="254.152" y="23.1107" width="27.4874" height="15.7594" rx="2.01574" fill="white"/>
<rect x="254.152" y="23.1107" width="27.4874" height="15.7594" rx="2.01574" stroke="#C7CCCC" stroke-width="0.366499"/>
<path d="M264.624 32.6386V30.8619H262.891V30.0702H264.624V28.3462H265.451V30.0702H267.183V30.8619H265.451V32.6386H264.624ZM270.804 32.9905V31.8206H268.042V30.985L270.822 26.7893H271.912V30.897H272.721V31.8206H271.912V32.9905H270.804ZM270.839 30.897V28.1703H270.936L269.001 31.0993L268.93 30.897H270.839Z" fill="#575757"/>
</g>
<rect width="280.155" height="42.5139" transform="translate(14.1328 52.9802)" fill="white"/>
<rect x="26.9616" y="67.2736" width="12.461" height="12.461" rx="6.23048" fill="white" stroke="#DEDEDE" stroke-width="0.732997"/>
<path d="M49.5467 76.8706V69.6359H52.4611C52.981 69.6359 53.4223 69.7214 53.7848 69.8925C54.1474 70.0635 54.4211 70.3098 54.6058 70.6313C54.7974 70.9529 54.8931 71.3462 54.8931 71.8115C54.8931 72.2698 54.7974 72.6632 54.6058 72.9916C54.4142 73.3131 54.1372 73.5628 53.7746 73.7407C53.4188 73.9117 52.981 73.9973 52.4611 73.9973H50.4292V76.8706H49.5467ZM50.4292 73.2584H52.3482C52.9023 73.2584 53.3196 73.1387 53.6001 72.8992C53.8806 72.6529 54.0209 72.2903 54.0209 71.8115C54.0209 71.3326 53.8806 70.9734 53.6001 70.734C53.3196 70.4945 52.9023 70.3748 52.3482 70.3748H50.4292V73.2584ZM57.5288 76.963C57.1799 76.963 56.8652 76.898 56.5847 76.768C56.3042 76.6312 56.0853 76.4464 55.9279 76.2138C55.7706 75.9812 55.6919 75.7213 55.6919 75.4339C55.6919 75.0577 55.7911 74.7635 55.9895 74.5514C56.1879 74.3325 56.5094 74.1751 56.9541 74.0794C57.3988 73.9836 57.9871 73.9357 58.7192 73.9357H59.3041V74.5206H58.75C58.3395 74.5206 57.994 74.5343 57.7135 74.5617C57.433 74.589 57.2072 74.6369 57.0362 74.7053C56.872 74.7669 56.7489 74.8524 56.6668 74.9619C56.5915 75.0713 56.5539 75.2116 56.5539 75.3826C56.5539 75.6631 56.6565 75.8889 56.8618 76.0599C57.067 76.2241 57.3406 76.3062 57.6827 76.3062C57.9632 76.3062 58.2129 76.2412 58.4318 76.1112C58.6576 75.9744 58.8355 75.7931 58.9655 75.5673C59.0954 75.3347 59.1604 75.0782 59.1604 74.7977V73.6278C59.1604 73.2173 59.0612 72.9197 58.8628 72.735C58.6713 72.5435 58.3703 72.4477 57.9598 72.4477C57.6588 72.4477 57.3646 72.4922 57.0773 72.5811C56.7899 72.6632 56.4923 72.8 56.1845 72.9916L55.8971 72.3553C56.0887 72.2322 56.3008 72.1262 56.5334 72.0372C56.766 71.9414 57.0088 71.8696 57.262 71.8217C57.5151 71.7738 57.7614 71.7499 58.0008 71.7499C58.4318 71.7499 58.7944 71.8217 59.0886 71.9654C59.3896 72.1022 59.6154 72.3143 59.7659 72.6016C59.9232 72.889 60.0019 73.2584 60.0019 73.7099V76.8706H59.2117V75.7315H59.2631C59.1878 75.971 59.0681 76.1831 58.9039 76.3678C58.7465 76.5525 58.5516 76.6996 58.319 76.809C58.0863 76.9117 57.823 76.963 57.5288 76.963ZM62.1845 78.7178L63.1286 76.5833V77.0656L60.912 71.8422H61.8459L63.5699 76.142H63.3954L65.14 71.8422H66.043L63.0978 78.7178H62.1845ZM67.0109 78.7178V71.8422H67.8421V72.9916H67.7806C67.9105 72.6085 68.1363 72.3075 68.4579 72.0885C68.7862 71.8628 69.1728 71.7499 69.6175 71.7499C70.0758 71.7499 70.4726 71.8593 70.8078 72.0783C71.1499 72.2903 71.4133 72.5914 71.598 72.9813C71.7827 73.3644 71.8751 73.8228 71.8751 74.3564C71.8751 74.8764 71.7827 75.3347 71.598 75.7315C71.4133 76.1215 71.1533 76.4259 70.8181 76.6448C70.4829 76.8569 70.0827 76.963 69.6175 76.963C69.1796 76.963 68.7999 76.8535 68.4784 76.6346C68.1637 76.4157 67.9413 76.1215 67.8113 75.7521H67.8832V78.7178H67.0109ZM69.4327 76.2549C69.9185 76.2549 70.3016 76.0907 70.5821 75.7623C70.8626 75.4271 71.0028 74.9585 71.0028 74.3564C71.0028 73.7475 70.8626 73.2789 70.5821 72.9505C70.3016 72.6222 69.9185 72.458 69.4327 72.458C68.9538 72.458 68.5742 72.6222 68.2937 72.9505C68.0132 73.2789 67.8729 73.7475 67.8729 74.3564C67.8729 74.9585 68.0132 75.4271 68.2937 75.7623C68.5742 76.0907 68.9538 76.2549 69.4327 76.2549ZM74.8759 76.963C74.527 76.963 74.2123 76.898 73.9318 76.768C73.6513 76.6312 73.4324 76.4464 73.275 76.2138C73.1177 75.9812 73.039 75.7213 73.039 75.4339C73.039 75.0577 73.1382 74.7635 73.3366 74.5514C73.535 74.3325 73.8566 74.1751 74.3012 74.0794C74.7459 73.9836 75.3343 73.9357 76.0663 73.9357H76.6512V74.5206H76.0971C75.6866 74.5206 75.3411 74.5343 75.0606 74.5617C74.7801 74.589 74.5544 74.6369 74.3833 74.7053C74.2191 74.7669 74.096 74.8524 74.0139 74.9619C73.9387 75.0713 73.901 75.2116 73.901 75.3826C73.901 75.6631 74.0036 75.8889 74.2089 76.0599C74.4141 76.2241 74.6878 76.3062 75.0298 76.3062C75.3103 76.3062 75.56 76.2412 75.779 76.1112C76.0047 75.9744 76.1826 75.7931 76.3126 75.5673C76.4426 75.3347 76.5076 75.0782 76.5076 74.7977V73.6278C76.5076 73.2173 76.4084 72.9197 76.21 72.735C76.0184 72.5435 75.7174 72.4477 75.3069 72.4477C75.0059 72.4477 74.7117 72.4922 74.4244 72.5811C74.1371 72.6632 73.8395 72.8 73.5316 72.9916L73.2443 72.3553C73.4358 72.2322 73.6479 72.1262 73.8805 72.0372C74.1131 71.9414 74.356 71.8696 74.6091 71.8217C74.8622 71.7738 75.1085 71.7499 75.348 71.7499C75.779 71.7499 76.1416 71.8217 76.4357 71.9654C76.7367 72.1022 76.9625 72.3143 77.113 72.6016C77.2704 72.889 77.349 73.2584 77.349 73.7099V76.8706H76.5589V75.7315H76.6102C76.5349 75.971 76.4152 76.1831 76.251 76.3678C76.0937 76.5525 75.8987 76.6996 75.6661 76.809C75.4335 76.9117 75.1701 76.963 74.8759 76.963ZM80.5258 76.963C80.0264 76.963 79.6433 76.8159 79.3765 76.5217C79.1165 76.2275 78.9865 75.8102 78.9865 75.2697V69.6359H79.8588V75.1876C79.8588 75.4134 79.8896 75.605 79.9512 75.7623C80.0196 75.9197 80.1154 76.0394 80.2385 76.1215C80.3617 76.1967 80.5122 76.2344 80.69 76.2344C80.7858 76.2344 80.8748 76.2309 80.9568 76.2241C81.0389 76.2104 81.121 76.1933 81.2031 76.1728L81.1929 76.8706C81.0834 76.898 80.974 76.9185 80.8645 76.9322C80.7619 76.9527 80.649 76.963 80.5258 76.963Z" fill="#4D5353"/>
<g opacity="0.4">
<mask id="mask0_28384_46247" style="mask-type:luminance" maskUnits="userSpaceOnUse" x="219" y="66" width="63" height="17">
<path d="M219.727 66.2952H281.825V82.1792H219.727V66.2952Z" fill="white"/>
</mask>
<g mask="url(#mask0_28384_46247)">
<path fill-rule="evenodd" clip-rule="evenodd" d="M239.514 69.848H242.95C244.1 69.848 244.966 70.1657 245.455 70.767C245.9 71.3144 246.047 72.0959 245.893 73.0909C245.552 75.3645 244.245 76.512 241.982 76.512H240.894C240.659 76.512 240.459 76.6908 240.423 76.9345L240.048 79.4242C240.011 79.6678 239.811 79.8467 239.576 79.8467H237.935C237.759 79.8467 237.624 79.6827 237.652 79.5004L239.042 70.2702C239.079 70.0268 239.279 69.8477 239.514 69.8477V69.848ZM241.304 74.5109C242.215 74.5109 243.157 74.5109 243.345 73.2192C243.414 72.7656 243.358 72.4371 243.178 72.216C242.875 71.8456 242.29 71.8456 241.669 71.8456H241.432C241.291 71.8456 241.171 71.9529 241.149 72.0987L240.785 74.5109H241.304ZM251.576 73.1779H253.222C253.398 73.1779 253.532 73.3425 253.503 73.5242L252.614 79.4238C252.577 79.6675 252.378 79.8463 252.142 79.8463H250.66C250.485 79.8463 250.35 79.6824 250.378 79.4991L250.451 79.0204C250.451 79.0204 249.639 80.0071 248.173 80.0071C247.32 80.0071 246.602 79.7491 246.101 79.1303C245.554 78.4568 245.33 77.4917 245.488 76.4821C245.79 74.4585 247.343 73.0156 249.162 73.0156C249.955 73.0156 250.749 73.1967 251.105 73.7383L251.22 73.913L251.294 73.4311C251.302 73.3619 251.336 73.2981 251.388 73.2516C251.439 73.2051 251.507 73.1789 251.576 73.1779ZM249.071 78.1782C250.023 78.1782 250.769 77.5174 250.928 76.5326C251 76.0558 250.901 75.6231 250.65 75.313C250.399 75.0062 250.019 74.8435 249.552 74.8435C248.615 74.8435 247.857 75.5265 247.708 76.5028C247.631 76.9815 247.723 77.4113 247.966 77.7138C248.212 78.0181 248.594 78.1782 249.071 78.1782Z" fill="#7E7E7E"/>
<path d="M261.979 73.1775H260.326C260.168 73.1775 260.02 73.2598 259.93 73.3967L257.65 76.9163L256.683 73.5342C256.622 73.3227 256.436 73.1775 256.225 73.1775H254.6C254.402 73.1775 254.265 73.3795 254.328 73.5746L256.149 79.1737L254.437 81.7056C254.302 81.9055 254.438 82.1796 254.671 82.1796H256.322C256.479 82.1796 256.626 82.0996 256.715 81.9649L262.215 73.6486C262.346 73.4497 262.211 73.1775 261.979 73.1775Z" fill="#7E7E7E"/>
<path fill-rule="evenodd" clip-rule="evenodd" d="M264.017 69.848H267.454C268.604 69.848 269.47 70.1657 269.958 70.767C270.402 71.3144 270.551 72.0959 270.396 73.0909C270.055 75.3645 268.749 76.512 266.485 76.512H265.397C265.163 76.512 264.962 76.6908 264.926 76.9345L264.531 79.5512C264.506 79.7218 264.366 79.8467 264.202 79.8467H262.438C262.263 79.8467 262.128 79.6827 262.156 79.5004L263.546 70.2702C263.582 70.0268 263.782 69.8477 264.017 69.8477V69.848ZM265.81 74.5109C266.721 74.5109 267.663 74.5109 267.851 73.2192C267.92 72.7656 267.865 72.4371 267.684 72.216C267.382 71.8456 266.796 71.8456 266.176 71.8456H265.938C265.797 71.8456 265.677 71.9529 265.656 72.0987L265.292 74.5109H265.81ZM276.08 73.1776H277.724C277.901 73.1776 278.035 73.3428 278.008 73.5239L277.118 79.4238C277.082 79.6675 276.882 79.8463 276.647 79.8463H275.165C274.989 79.8463 274.854 79.6824 274.882 79.4991L274.955 79.0201C274.955 79.0201 274.143 80.0071 272.678 80.0071C271.824 80.0071 271.107 79.7491 270.605 79.1303C270.058 78.4568 269.836 77.4917 269.992 76.4821C270.295 74.4585 271.848 73.0156 273.666 73.0156C274.459 73.0156 275.253 73.1967 275.609 73.7383L275.725 73.913L275.797 73.4308C275.806 73.3616 275.839 73.2979 275.891 73.2514C275.943 73.2049 276.01 73.1787 276.08 73.1776ZM273.576 78.1785C274.528 78.1785 275.275 77.5174 275.433 76.5326C275.505 76.0558 275.406 75.6231 275.154 75.3127C274.904 75.0062 274.524 74.8435 274.057 74.8435C273.12 74.8435 272.362 75.5262 272.213 76.5024C272.136 76.9815 272.228 77.4116 272.471 77.7138C272.716 78.0178 273.099 78.1785 273.576 78.1785Z" fill="#BEBEBE"/>
<path d="M279.668 70.101L278.258 79.5005C278.23 79.6826 278.365 79.8468 278.54 79.8468H279.958C280.194 79.8468 280.393 79.668 280.43 79.4243L281.821 70.1941C281.848 70.012 281.714 69.8472 281.538 69.8472H279.95C279.81 69.8478 279.69 69.9552 279.668 70.101Z" fill="#BEBEBE"/>
<path d="M223.375 81.6406L223.638 79.8921L223.053 79.8778H220.258L222.2 66.9755C222.206 66.9367 222.225 66.901 222.254 66.8745C222.283 66.8491 222.32 66.8348 222.358 66.8345H227.071C228.636 66.8345 229.716 67.1753 230.279 67.8488C230.544 68.1646 230.712 68.4944 230.793 68.8578C230.879 69.239 230.88 69.6939 230.797 70.2492L230.791 70.2899V70.6457L231.055 70.8026C231.278 70.9265 231.455 71.0679 231.59 71.2299C231.816 71.4999 231.963 71.843 232.024 72.25C232.088 72.6684 232.067 73.1665 231.963 73.7304C231.842 74.3784 231.647 74.9433 231.384 75.4055C231.142 75.8312 230.833 76.1845 230.467 76.4583C230.117 76.7182 229.702 76.9158 229.232 77.0419C228.777 77.1661 228.257 77.2287 227.688 77.2287H227.321C227.059 77.2287 226.804 77.3278 226.604 77.5051C226.403 77.6877 226.27 77.9347 226.23 78.204L226.203 78.3615L225.739 81.443L225.718 81.5565C225.712 81.592 225.702 81.6101 225.688 81.6222C225.675 81.6338 225.658 81.6403 225.64 81.6406H223.375Z" fill="#7E7E7E"/>
<path d="M231.304 70.3308C231.29 70.4251 231.274 70.5215 231.255 70.6202C230.634 73.9632 228.507 75.1179 225.792 75.1179H224.409C224.077 75.1179 223.797 75.3705 223.745 75.7139L223.037 80.4172L222.836 81.7505C222.803 81.9757 222.969 82.179 223.186 82.179H225.638C225.928 82.179 226.175 81.9579 226.221 81.658L226.245 81.5272L226.707 78.4577L226.737 78.2894C226.782 77.9882 227.029 77.7671 227.319 77.7671H227.686C230.062 77.7671 231.923 76.7565 232.466 73.832C232.693 72.6105 232.576 71.5904 231.975 70.8731C231.793 70.6568 231.567 70.4773 231.304 70.3308Z" fill="#BEBEBE"/>
<path d="M230.658 70.0592C230.46 69.9993 230.258 69.9524 230.054 69.9188C229.681 69.8555 229.272 69.8257 228.835 69.8257H225.141C225.05 69.8257 224.963 69.8473 224.886 69.886C224.716 69.9718 224.589 70.1409 224.559 70.3477L223.772 75.5622L223.75 75.7144C223.801 75.3713 224.081 75.1184 224.414 75.1184H225.796C228.512 75.1184 230.639 73.9629 231.26 70.6203C231.278 70.5216 231.295 70.4252 231.308 70.3312C231.145 70.2409 230.974 70.1652 230.797 70.1049C230.751 70.089 230.705 70.0737 230.658 70.0592Z" fill="#555555"/>
<path d="M224.558 70.3477C224.571 70.2503 224.608 70.1575 224.665 70.0773C224.722 69.997 224.797 69.9317 224.885 69.8868C224.963 69.8477 225.049 69.8264 225.14 69.8264H228.834C229.272 69.8264 229.68 69.8563 230.053 69.9192C230.306 69.9611 230.554 70.0232 230.797 70.105C230.981 70.1686 231.151 70.2439 231.308 70.3309C231.493 69.0955 231.307 68.2545 230.669 67.4928C229.966 66.6544 228.697 66.2954 227.074 66.2954H222.361C222.029 66.2954 221.746 66.548 221.695 66.8917L219.732 79.9271C219.693 80.1851 219.883 80.4176 220.131 80.4176H223.041L223.772 75.5622L224.558 70.3477Z" fill="#7E7E7E"/>
</g>
</g>
</g>
</g>
<g filter="url(#filter1_d_28384_46247)">
<rect x="9" y="96.2271" width="291.127" height="43.9798" rx="4.38885" fill="#DAEFEE" shape-rendering="crispEdges"/>
<rect x="9.733" y="96.96" width="289.661" height="42.5139" rx="3.65586" stroke="#179895" stroke-width="1.46599" shape-rendering="crispEdges"/>
<rect x="24.3948" y="113.086" width="8.79597" height="8.79597" rx="4.39798" fill="white" stroke="#179895" stroke-width="4.39798"/>
<path d="M46.862 120.85V114.549H44.3067V113.616H50.505V114.549H47.9497V120.85H46.862ZM50.6156 120.85V115.812H51.6315V117.012H51.5802C51.6897 116.616 51.8881 116.311 52.1754 116.099C52.4696 115.88 52.8459 115.754 53.3042 115.719L53.7147 115.689L53.7968 116.633L53.0887 116.694C52.644 116.735 52.302 116.879 52.0625 117.125C51.8231 117.372 51.7034 117.696 51.7034 118.1V120.85H50.6156ZM56.5615 120.943C56.151 120.943 55.8056 120.867 55.5251 120.717C55.2514 120.566 55.0428 120.341 54.8991 120.04C54.7623 119.732 54.6938 119.352 54.6938 118.901V115.812H55.7714V118.88C55.7714 119.133 55.8056 119.352 55.874 119.537C55.9492 119.715 56.0655 119.848 56.2229 119.937C56.3802 120.026 56.5821 120.07 56.8283 120.07C57.0883 120.07 57.3175 120.009 57.5159 119.886C57.7211 119.763 57.8819 119.595 57.9982 119.383C58.1145 119.164 58.1727 118.918 58.1727 118.644V115.812H59.2502V120.85H58.224V119.752H58.3061C58.1556 120.135 57.9298 120.43 57.6288 120.635C57.3278 120.84 56.972 120.943 56.5615 120.943ZM63.2498 120.943C62.6819 120.943 62.1928 120.84 61.7823 120.635C61.3787 120.423 61.0674 120.122 60.8485 119.732C60.6295 119.342 60.5201 118.877 60.5201 118.336C60.5201 117.816 60.6227 117.361 60.8279 116.971C61.04 116.581 61.3342 116.274 61.7105 116.048C62.0936 115.822 62.5348 115.709 63.0343 115.709C63.5132 115.709 63.9236 115.815 64.2657 116.027C64.6078 116.232 64.8677 116.523 65.0456 116.899C65.2303 117.276 65.3227 117.727 65.3227 118.254V118.593H61.3616V117.926H64.5941L64.4196 118.09C64.4196 117.57 64.2999 117.173 64.0605 116.899C63.8279 116.626 63.4926 116.489 63.0548 116.489C62.7401 116.489 62.4699 116.561 62.2441 116.705C62.0183 116.841 61.8439 117.04 61.7207 117.3C61.6044 117.56 61.5463 117.868 61.5463 118.223V118.305C61.5463 118.709 61.6113 119.044 61.7413 119.311C61.8712 119.571 62.0662 119.769 62.3262 119.906C62.5862 120.036 62.9009 120.101 63.2703 120.101C63.5508 120.101 63.8313 120.06 64.1118 119.978C64.3991 119.896 64.6625 119.756 64.9019 119.557L65.2303 120.306C64.984 120.512 64.6796 120.669 64.317 120.779C63.9613 120.888 63.6055 120.943 63.2498 120.943ZM66.7239 120.85V113.616H67.7604L70.449 118.747H70.2335L72.9119 113.616H73.9381V120.85H72.9221V115.186H73.0761L70.685 119.722H69.977L67.5654 115.175H67.7296V120.85H66.7239ZM78.0915 120.943C77.5237 120.943 77.0345 120.84 76.6241 120.635C76.2204 120.423 75.9092 120.122 75.6902 119.732C75.4713 119.342 75.3618 118.877 75.3618 118.336C75.3618 117.816 75.4645 117.361 75.6697 116.971C75.8818 116.581 76.176 116.274 76.5522 116.048C76.9353 115.822 77.3766 115.709 77.876 115.709C78.3549 115.709 78.7654 115.815 79.1075 116.027C79.4495 116.232 79.7095 116.523 79.8874 116.899C80.0721 117.276 80.1644 117.727 80.1644 118.254V118.593H76.2033V117.926H79.4358L79.2614 118.09C79.2614 117.57 79.1417 117.173 78.9022 116.899C78.6696 116.626 78.3344 116.489 77.8966 116.489C77.5819 116.489 77.3116 116.561 77.0859 116.705C76.8601 116.841 76.6856 117.04 76.5625 117.3C76.4462 117.56 76.388 117.868 76.388 118.223V118.305C76.388 118.709 76.453 119.044 76.583 119.311C76.713 119.571 76.908 119.769 77.168 119.906C77.4279 120.036 77.7426 120.101 78.1121 120.101C78.3925 120.101 78.673 120.06 78.9535 119.978C79.2409 119.896 79.5043 119.756 79.7437 119.557L80.0721 120.306C79.8258 120.512 79.5214 120.669 79.1588 120.779C78.803 120.888 78.4473 120.943 78.0915 120.943ZM83.3718 120.943C82.9203 120.943 82.5235 120.837 82.1814 120.625C81.8462 120.406 81.5828 120.101 81.3912 119.711C81.2065 119.314 81.1142 118.853 81.1142 118.326C81.1142 117.792 81.2065 117.334 81.3912 116.951C81.5759 116.561 81.8359 116.256 82.1711 116.037C82.5132 115.819 82.9134 115.709 83.3718 115.709C83.8028 115.709 84.1722 115.815 84.4801 116.027C84.7948 116.232 85.0137 116.51 85.1369 116.858H85.065V113.616H86.1425V120.85H85.1266V119.742H85.1779C85.0548 120.118 84.8324 120.412 84.5109 120.625C84.1893 120.837 83.8096 120.943 83.3718 120.943ZM83.6386 120.101C84.0833 120.101 84.4356 119.947 84.6956 119.639C84.9556 119.332 85.0855 118.894 85.0855 118.326C85.0855 117.758 84.9556 117.324 84.6956 117.023C84.4356 116.715 84.0833 116.561 83.6386 116.561C83.2008 116.561 82.8484 116.715 82.5816 117.023C82.3217 117.324 82.1917 117.758 82.1917 118.326C82.1917 118.894 82.3217 119.332 82.5816 119.639C82.8484 119.947 83.2008 120.101 83.6386 120.101ZM90.4594 118.531V117.669H93.4149V118.531H90.4594ZM97.8701 120.85V113.616H100.908C101.434 113.616 101.879 113.705 102.242 113.882C102.611 114.054 102.892 114.303 103.083 114.632C103.275 114.96 103.371 115.36 103.371 115.832C103.371 116.291 103.275 116.687 103.083 117.023C102.892 117.358 102.611 117.614 102.242 117.792C101.872 117.97 101.428 118.059 100.908 118.059H98.9579V120.85H97.8701ZM98.9579 117.166H100.743C101.257 117.166 101.643 117.057 101.903 116.838C102.163 116.612 102.293 116.277 102.293 115.832C102.293 115.388 102.163 115.056 101.903 114.837C101.643 114.618 101.257 114.508 100.743 114.508H98.9579V117.166ZM105.963 120.943C105.607 120.943 105.286 120.874 104.998 120.737C104.718 120.601 104.495 120.416 104.331 120.183C104.174 119.944 104.095 119.677 104.095 119.383C104.095 119.013 104.194 118.719 104.393 118.5C104.598 118.275 104.92 118.114 105.357 118.018C105.802 117.922 106.391 117.874 107.123 117.874H107.707V118.541H107.153C106.784 118.541 106.473 118.555 106.219 118.582C105.966 118.61 105.761 118.654 105.604 118.716C105.446 118.771 105.33 118.849 105.255 118.952C105.186 119.048 105.152 119.174 105.152 119.332C105.152 119.585 105.245 119.787 105.429 119.937C105.621 120.088 105.874 120.163 106.189 120.163C106.442 120.163 106.671 120.101 106.876 119.978C107.088 119.855 107.253 119.691 107.369 119.486C107.492 119.273 107.554 119.041 107.554 118.788V117.618C107.554 117.242 107.461 116.971 107.276 116.807C107.092 116.636 106.801 116.551 106.404 116.551C106.117 116.551 105.826 116.592 105.532 116.674C105.238 116.756 104.937 116.889 104.629 117.074L104.301 116.315C104.499 116.191 104.718 116.085 104.957 115.996C105.197 115.907 105.446 115.839 105.706 115.791C105.973 115.736 106.23 115.709 106.476 115.709C106.934 115.709 107.321 115.781 107.636 115.925C107.95 116.068 108.186 116.291 108.344 116.592C108.508 116.886 108.59 117.265 108.59 117.731V120.85H107.615V119.742H107.666C107.598 119.981 107.485 120.194 107.328 120.378C107.17 120.556 106.975 120.696 106.743 120.799C106.517 120.895 106.257 120.943 105.963 120.943ZM110.637 122.697L111.632 120.471V121.066L109.385 115.812H110.534L112.156 119.896H111.961L113.603 115.812H114.701L111.756 122.697H110.637ZM119.633 120.85L117.776 115.812H118.874L120.249 119.845H120.095L121.562 115.812H122.404L123.851 119.845H123.707L125.103 115.812H126.149L124.292 120.85H123.327L121.788 116.705H122.137L120.608 120.85H119.633ZM127.027 114.652V113.534H128.289V114.652H127.027ZM127.119 120.85V115.812H128.197V120.85H127.119ZM131.971 120.943C131.328 120.943 130.846 120.779 130.524 120.45C130.21 120.122 130.052 119.65 130.052 119.034V116.653H129.067V115.812H130.073V114.313H131.13V115.812H132.782V116.653H131.13V118.962C131.13 119.318 131.209 119.588 131.366 119.773C131.53 119.951 131.783 120.04 132.125 120.04C132.248 120.04 132.368 120.026 132.484 119.999C132.601 119.971 132.714 119.94 132.823 119.906L132.987 120.727C132.864 120.796 132.707 120.847 132.515 120.881C132.331 120.922 132.149 120.943 131.971 120.943ZM133.804 120.85V113.616H134.861V116.858H134.789C134.939 116.489 135.175 116.205 135.497 116.007C135.818 115.808 136.184 115.709 136.595 115.709C137.005 115.709 137.344 115.784 137.611 115.935C137.885 116.085 138.086 116.315 138.216 116.622C138.353 116.923 138.422 117.303 138.422 117.761V120.85H137.344V117.823C137.344 117.549 137.306 117.324 137.231 117.146C137.163 116.961 137.05 116.824 136.893 116.735C136.742 116.64 136.544 116.592 136.297 116.592C136.017 116.592 135.771 116.653 135.558 116.776C135.346 116.893 135.179 117.06 135.056 117.279C134.939 117.498 134.881 117.748 134.881 118.028V120.85H133.804ZM142.907 120.85V113.616H143.994V116.715H148.007V113.616H149.094V120.85H148.007V117.649H143.994V120.85H142.907ZM153.386 120.943C153.003 120.943 152.637 120.912 152.288 120.85C151.939 120.789 151.618 120.696 151.323 120.573C151.036 120.45 150.78 120.303 150.554 120.132L150.923 119.249C151.156 119.421 151.399 119.564 151.652 119.68C151.905 119.79 152.175 119.872 152.462 119.927C152.75 119.975 153.058 119.999 153.386 119.999C153.947 119.999 154.368 119.899 154.648 119.701C154.929 119.496 155.069 119.222 155.069 118.88C155.069 118.688 155.025 118.531 154.936 118.408C154.847 118.278 154.706 118.172 154.515 118.09C154.323 118.001 154.074 117.926 153.766 117.864L152.637 117.638C151.973 117.508 151.484 117.283 151.169 116.961C150.862 116.633 150.708 116.205 150.708 115.678C150.708 115.24 150.827 114.861 151.067 114.539C151.306 114.218 151.635 113.968 152.052 113.79C152.469 113.612 152.948 113.523 153.489 113.523C153.824 113.523 154.142 113.554 154.443 113.616C154.751 113.677 155.031 113.773 155.285 113.903C155.538 114.033 155.76 114.187 155.952 114.365L155.592 115.217C155.298 114.957 154.977 114.768 154.628 114.652C154.286 114.529 153.906 114.467 153.489 114.467C153.147 114.467 152.849 114.515 152.596 114.611C152.343 114.707 152.144 114.844 152.001 115.022C151.864 115.199 151.795 115.411 151.795 115.658C151.795 115.938 151.884 116.161 152.062 116.325C152.247 116.489 152.558 116.616 152.996 116.705L154.115 116.93C154.806 117.067 155.319 117.289 155.654 117.597C155.989 117.898 156.157 118.302 156.157 118.808C156.157 119.232 156.044 119.605 155.818 119.927C155.592 120.248 155.271 120.498 154.854 120.676C154.443 120.854 153.954 120.943 153.386 120.943ZM156.739 120.85L159.961 113.616H160.895L164.117 120.85H162.988L162.116 118.798L162.608 119.126H158.237L158.719 118.798L157.857 120.85H156.739ZM160.402 114.827L158.863 118.48L158.606 118.223H162.229L161.982 118.48L160.433 114.827H160.402ZM165.228 121.528L164.407 121.302L167.044 113.103L167.865 113.339L165.228 121.528ZM168.601 120.85V113.616H173.281V114.519H169.689V116.776H173.065V117.679H169.689V120.85H168.601ZM176.756 120.943C176.373 120.943 176.007 120.912 175.658 120.85C175.309 120.789 174.988 120.696 174.693 120.573C174.406 120.45 174.15 120.303 173.924 120.132L174.293 119.249C174.526 119.421 174.769 119.564 175.022 119.68C175.275 119.79 175.545 119.872 175.832 119.927C176.12 119.975 176.428 119.999 176.756 119.999C177.317 119.999 177.738 119.899 178.018 119.701C178.299 119.496 178.439 119.222 178.439 118.88C178.439 118.688 178.395 118.531 178.306 118.408C178.217 118.278 178.076 118.172 177.885 118.09C177.693 118.001 177.444 117.926 177.136 117.864L176.007 117.638C175.343 117.508 174.854 117.283 174.539 116.961C174.232 116.633 174.078 116.205 174.078 115.678C174.078 115.24 174.197 114.861 174.437 114.539C174.676 114.218 175.005 113.968 175.422 113.79C175.839 113.612 176.318 113.523 176.859 113.523C177.194 113.523 177.512 113.554 177.813 113.616C178.121 113.677 178.401 113.773 178.655 113.903C178.908 114.033 179.13 114.187 179.322 114.365L178.962 115.217C178.668 114.957 178.347 114.768 177.998 114.652C177.656 114.529 177.276 114.467 176.859 114.467C176.517 114.467 176.219 114.515 175.966 114.611C175.713 114.707 175.514 114.844 175.371 115.022C175.234 115.199 175.165 115.411 175.165 115.658C175.165 115.938 175.254 116.161 175.432 116.325C175.617 116.489 175.928 116.616 176.366 116.705L177.485 116.93C178.176 117.067 178.689 117.289 179.024 117.597C179.359 117.898 179.527 118.302 179.527 118.808C179.527 119.232 179.414 119.605 179.188 119.927C178.962 120.248 178.641 120.498 178.224 120.676C177.813 120.854 177.324 120.943 176.756 120.943ZM180.109 120.85L183.331 113.616H184.265L187.487 120.85H186.358L185.486 118.798L185.978 119.126H181.607L182.089 118.798L181.227 120.85H180.109ZM183.772 114.827L182.233 118.48L181.976 118.223H185.599L185.352 118.48L183.803 114.827H183.772Z" fill="black"/>
<g clip-path="url(#clip13_28384_46247)">
<g clip-path="url(#clip14_28384_46247)">
<g clip-path="url(#clip15_28384_46247)">
<path opacity="0.07" d="M221.569 109.421H198.113C196.867 109.421 195.914 110.374 195.914 111.62V124.814C195.914 126.06 196.94 127.013 198.113 127.013H221.569C222.815 127.013 223.768 126.06 223.768 124.814V111.62C223.768 110.374 222.742 109.421 221.569 109.421Z" fill="black"/>
<path d="M221.566 110.154C222.373 110.154 223.032 110.814 223.032 111.62V124.814C223.032 125.62 222.373 126.28 221.566 126.28H198.111C197.304 126.28 196.645 125.62 196.645 124.814V111.62C196.645 110.814 197.304 110.154 198.111 110.154H221.566Z" fill="white"/>
<path d="M216.657 116.825H216.437C216.144 117.558 215.924 117.924 215.704 119.024H217.097C216.877 117.924 216.877 117.411 216.657 116.825ZM218.783 121.15H217.537C217.463 121.15 217.463 121.15 217.39 121.076L217.243 120.417L217.17 120.27H215.411C215.338 120.27 215.264 120.27 215.264 120.417L215.044 121.076C215.044 121.15 214.971 121.15 214.971 121.15H213.432L213.578 120.783L215.704 115.799C215.704 115.432 215.924 115.286 216.29 115.286H217.39C217.463 115.286 217.537 115.286 217.537 115.432L218.563 120.197C218.636 120.49 218.709 120.71 218.709 121.003C218.783 121.076 218.783 121.076 218.783 121.15ZM208.96 120.93L209.254 119.61C209.327 119.61 209.4 119.684 209.4 119.684C209.913 119.904 210.426 120.05 210.94 119.977C211.086 119.977 211.306 119.904 211.453 119.83C211.819 119.684 211.819 119.317 211.526 119.024C211.379 118.877 211.159 118.804 210.94 118.657C210.646 118.511 210.353 118.364 210.133 118.144C209.254 117.411 209.547 116.385 210.06 115.872C210.5 115.579 210.72 115.286 211.306 115.286C212.186 115.286 213.139 115.286 213.578 115.432H213.652C213.578 115.872 213.505 116.239 213.358 116.678C212.992 116.532 212.625 116.385 212.259 116.385C212.039 116.385 211.819 116.385 211.599 116.458C211.453 116.458 211.379 116.532 211.306 116.605C211.159 116.752 211.159 116.972 211.306 117.118L211.673 117.411C211.966 117.558 212.259 117.705 212.479 117.851C212.845 118.071 213.212 118.438 213.285 118.877C213.432 119.537 213.212 120.123 212.625 120.563C212.259 120.856 212.112 121.003 211.599 121.003C210.573 121.003 209.767 121.076 209.107 120.856C209.034 121.003 209.034 121.003 208.96 120.93ZM206.395 121.15C206.468 120.637 206.468 120.637 206.542 120.417C206.908 118.804 207.275 117.118 207.568 115.506C207.641 115.359 207.641 115.286 207.788 115.286H209.107C208.96 116.165 208.814 116.825 208.594 117.631C208.374 118.731 208.154 119.83 207.861 120.93C207.861 121.076 207.788 121.076 207.641 121.076M199.578 115.432C199.578 115.359 199.725 115.286 199.798 115.286H202.29C202.657 115.286 202.95 115.506 203.023 115.872L203.683 119.097C203.683 119.171 203.683 119.171 203.756 119.244C203.756 119.171 203.83 119.171 203.83 119.171L205.369 115.432C205.296 115.359 205.369 115.286 205.442 115.286H206.981C206.981 115.359 206.981 115.359 206.908 115.432L204.636 120.783C204.563 120.93 204.563 121.003 204.489 121.076C204.416 121.15 204.269 121.076 204.123 121.076H203.023C202.95 121.076 202.877 121.076 202.877 120.93L201.704 116.385C201.557 116.239 201.337 116.019 201.044 115.945C200.604 115.725 199.798 115.579 199.651 115.579L199.578 115.432Z" fill="#142688"/>
</g>
</g>
</g>
<g clip-path="url(#clip16_28384_46247)">
<g clip-path="url(#clip17_28384_46247)">
<g clip-path="url(#clip18_28384_46247)">
<path opacity="0.07" d="M253.089 109.421H229.633C228.386 109.421 227.434 110.374 227.434 111.62V124.814C227.434 126.06 228.46 127.013 229.633 127.013H253.089C254.335 127.013 255.287 126.06 255.287 124.814V111.62C255.287 110.374 254.261 109.421 253.089 109.421Z" fill="black"/>
<path d="M253.086 110.154C253.892 110.154 254.552 110.814 254.552 111.62V124.814C254.552 125.62 253.892 126.28 253.086 126.28H229.63C228.824 126.28 228.164 125.62 228.164 124.814V111.62C228.164 110.814 228.824 110.154 229.63 110.154H253.086Z" fill="white"/>
<path d="M238.424 123.349C241.258 123.349 243.555 121.051 243.555 118.218C243.555 115.384 241.258 113.087 238.424 113.087C235.59 113.087 233.293 115.384 233.293 118.218C233.293 121.051 235.59 123.349 238.424 123.349Z" fill="#EB001B"/>
<path d="M244.291 123.349C247.125 123.349 249.422 121.051 249.422 118.218C249.422 115.384 247.125 113.087 244.291 113.087C241.457 113.087 239.16 115.384 239.16 118.218C239.16 121.051 241.457 123.349 244.291 123.349Z" fill="#F79E1B"/>
<path d="M243.558 118.217C243.558 116.458 242.679 114.918 241.359 114.039C240.04 114.992 239.16 116.531 239.16 118.217C239.16 119.903 240.04 121.515 241.359 122.395C242.679 121.515 243.558 119.976 243.558 118.217Z" fill="#FF5F00"/>
</g>
</g>
</g>
<g clip-path="url(#clip19_28384_46247)">
<g clip-path="url(#clip20_28384_46247)">
<g clip-path="url(#clip21_28384_46247)">
<path opacity="0.07" d="M284.608 109.421H261.152C259.906 109.421 258.953 110.374 258.953 111.62V124.814C258.953 126.06 259.979 127.013 261.152 127.013H284.608C285.854 127.013 286.807 126.06 286.807 124.814V111.62C286.807 110.374 285.781 109.421 284.608 109.421Z" fill="black"/>
<path d="M284.613 110.154C285.42 110.154 286.079 110.814 286.079 111.62V124.814C286.079 125.62 285.42 126.28 284.613 126.28H261.157C260.351 126.28 259.691 125.62 259.691 124.814V111.62C259.691 110.814 260.351 110.154 261.157 110.154H284.613Z" fill="#006FCF"/>
<path d="M275.094 124.034V117.862L286.08 117.871V119.576L284.81 120.934L286.08 122.302V124.043H284.052L282.975 122.854L281.905 124.048L275.094 124.033V124.034Z" fill="white"/>
<path d="M275.824 123.357V118.541H279.908V119.65H277.147V120.404H279.843V121.494H277.147V122.235H279.908V123.357H275.824Z" fill="#006FCF"/>
<path d="M279.887 123.357L282.147 120.946L279.887 118.541H281.636L283.017 120.068L284.402 118.542H286.075V118.579L283.864 120.946L286.075 123.29V123.358H284.384L282.979 121.817L281.588 123.359H279.887V123.357Z" fill="#006FCF"/>
<path d="M275.602 112.382H278.251L279.181 114.494V112.382H282.451L283.015 113.965L283.58 112.382H286.077V118.555H272.883L275.602 112.382Z" fill="white"/>
<path d="M276.106 113.054L273.969 117.867H275.435L275.838 116.903H278.022L278.425 117.867H279.928L277.799 113.054H276.106ZM276.289 115.822L276.931 114.29L277.571 115.822H276.289Z" fill="#006FCF"/>
<path d="M279.906 117.866V113.052L281.967 113.06L283.028 116.019L284.095 113.053H286.077V117.865L284.802 117.877V114.571L283.597 117.865H282.431L281.203 114.56V117.866H279.907H279.906Z" fill="#006FCF"/>
</g>
</g>
</g>
</g>
<defs>
<filter id="filter0_d_28384_46247" x="4.60247" y="0.937516" width="299.795" height="148.798" filterUnits="userSpaceOnUse" color-interpolation-filters="sRGB">
<feFlood flood-opacity="0" result="BackgroundImageFix"/>
<feColorMatrix in="SourceAlpha" type="matrix" values="0 0 0 0 0 0 0 0 0 0 0 0 0 0 0 0 0 0 127 0" result="hardAlpha"/>
<feOffset dy="0.732997"/>
<feGaussianBlur stdDeviation="4.39798"/>
<feComposite in2="hardAlpha" operator="out"/>
<feColorMatrix type="matrix" values="0 0 0 0 0.14902 0 0 0 0 0.313726 0 0 0 0 0.796078 0 0 0 0.1 0"/>
<feBlend mode="normal" in2="BackgroundImageFix" result="effect1_dropShadow_28384_46247"/>
<feBlend mode="normal" in="SourceGraphic" in2="effect1_dropShadow_28384_46247" result="shape"/>
</filter>
<filter id="filter1_d_28384_46247" x="0.20403" y="88.1641" width="308.721" height="61.5717" filterUnits="userSpaceOnUse" color-interpolation-filters="sRGB">
<feFlood flood-opacity="0" result="BackgroundImageFix"/>
<feColorMatrix in="SourceAlpha" type="matrix" values="0 0 0 0 0 0 0 0 0 0 0 0 0 0 0 0 0 0 127 0" result="hardAlpha"/>
<feOffset dy="0.732997"/>
<feGaussianBlur stdDeviation="4.39798"/>
<feComposite in2="hardAlpha" operator="out"/>
<feColorMatrix type="matrix" values="0 0 0 0 0.14902 0 0 0 0 0.313726 0 0 0 0 0.796078 0 0 0 0.1 0"/>
<feBlend mode="normal" in2="BackgroundImageFix" result="effect1_dropShadow_28384_46247"/>
<feBlend mode="normal" in="SourceGraphic" in2="effect1_dropShadow_28384_46247" result="shape"/>
</filter>
<clipPath id="clip0_28384_46247">
<rect x="13.3984" y="9.00049" width="282.204" height="131.207" rx="3.66499" fill="white"/>
</clipPath>
<clipPath id="clip1_28384_46247">
<rect width="27.8539" height="17.5919" fill="white" transform="translate(127.895 22.1946)"/>
</clipPath>
<clipPath id="clip2_28384_46247">
<rect width="27.8539" height="17.5919" fill="white" transform="translate(127.895 22.1946)"/>
</clipPath>
<clipPath id="clip3_28384_46247">
<rect width="27.8539" height="17.5919" fill="white" transform="translate(127.895 22.1946)"/>
</clipPath>
<clipPath id="clip4_28384_46247">
<rect width="27.8539" height="17.5919" fill="white" transform="translate(159.414 22.1946)"/>
</clipPath>
<clipPath id="clip5_28384_46247">
<rect width="27.8539" height="17.5919" fill="white" transform="translate(159.414 22.1946)"/>
</clipPath>
<clipPath id="clip6_28384_46247">
<rect width="27.8539" height="17.5919" fill="white" transform="translate(159.414 22.1946)"/>
</clipPath>
<clipPath id="clip7_28384_46247">
<rect width="27.8539" height="17.5919" fill="white" transform="translate(190.934 22.1946)"/>
</clipPath>
<clipPath id="clip8_28384_46247">
<rect width="27.8539" height="17.5919" fill="white" transform="translate(190.934 22.1946)"/>
</clipPath>
<clipPath id="clip9_28384_46247">
<rect width="27.8539" height="17.5919" fill="white" transform="translate(190.934 22.1946)"/>
</clipPath>
<clipPath id="clip10_28384_46247">
<rect width="27.8539" height="17.5919" fill="white" transform="translate(222.453 22.1946)"/>
</clipPath>
<clipPath id="clip11_28384_46247">
<rect width="27.8539" height="17.5919" fill="white" transform="translate(222.453 22.1946)"/>
</clipPath>
<clipPath id="clip12_28384_46247">
<rect width="27.8539" height="17.5919" fill="white" transform="translate(222.453 22.1946)"/>
</clipPath>
<clipPath id="clip13_28384_46247">
<rect width="27.8539" height="17.5919" fill="white" transform="translate(195.914 109.421)"/>
</clipPath>
<clipPath id="clip14_28384_46247">
<rect width="27.8539" height="17.5919" fill="white" transform="translate(195.914 109.421)"/>
</clipPath>
<clipPath id="clip15_28384_46247">
<rect width="27.8539" height="17.5919" fill="white" transform="translate(195.914 109.421)"/>
</clipPath>
<clipPath id="clip16_28384_46247">
<rect width="27.8539" height="17.5919" fill="white" transform="translate(227.434 109.421)"/>
</clipPath>
<clipPath id="clip17_28384_46247">
<rect width="27.8539" height="17.5919" fill="white" transform="translate(227.434 109.421)"/>
</clipPath>
<clipPath id="clip18_28384_46247">
<rect width="27.8539" height="17.5919" fill="white" transform="translate(227.434 109.421)"/>
</clipPath>
<clipPath id="clip19_28384_46247">
<rect width="27.8539" height="17.5919" fill="white" transform="translate(258.953 109.421)"/>
</clipPath>
<clipPath id="clip20_28384_46247">
<rect width="27.8539" height="17.5919" fill="white" transform="translate(258.953 109.421)"/>
</clipPath>
<clipPath id="clip21_28384_46247">
<rect width="27.8539" height="17.5919" fill="white" transform="translate(258.953 109.421)"/>
</clipPath>
</defs>
</svg>
