<svg width="299" height="203" viewBox="0 0 299 203" fill="none" xmlns="http://www.w3.org/2000/svg">
<g filter="url(#filter0_d_28201_14118)">
<path d="M181.181 57.9602H178.972L176.739 49.1859H178.948L180.077 55.1377H180.101L181.463 49.1859H183.55L184.912 55.1377H184.936L186.065 49.1859H188.274L186.041 57.9602H183.832L182.519 52.487H182.494L181.181 57.9602ZM192.903 51.4807C194.118 51.4807 194.94 52.2784 194.94 53.7142V57.9602H192.976V54.3401C192.976 53.3951 192.645 53.0761 191.995 53.0761C191.246 53.0761 190.817 53.4565 190.817 54.3278V57.9602H188.853V49.1859H190.817V52.5852H190.841C191.172 52.0084 191.786 51.4807 192.903 51.4807ZM199.052 58.1688C196.978 58.1688 195.714 56.8189 195.714 54.8309C195.714 52.8552 196.978 51.4685 199.088 51.4685C201.162 51.4685 202.426 52.8184 202.426 54.7941C202.426 56.7821 201.162 58.1688 199.052 58.1688ZM199.076 56.6962C199.947 56.6962 200.438 56.0335 200.438 54.8187C200.438 53.6038 199.947 52.9411 199.076 52.9411C198.193 52.9411 197.702 53.6038 197.702 54.8187C197.702 56.0335 198.193 56.6962 199.076 56.6962ZM207.534 50.9285H205.571V49.1859H207.534V50.9285ZM207.534 57.9602H205.571V51.6771H207.534V57.9602ZM211.4 58.1566C209.204 58.1566 208.345 57.1012 208.296 55.874H210.137C210.198 56.4999 210.615 56.8067 211.364 56.8067C211.94 56.8067 212.198 56.6226 212.198 56.2667C212.198 55.7022 211.572 55.6409 210.664 55.4322C209.56 55.1745 208.418 54.7327 208.418 53.4565C208.418 52.2784 209.4 51.4807 211.167 51.4807C213.18 51.4807 213.965 52.4993 214.027 53.6038H212.186C212.125 53.1006 211.855 52.8306 211.204 52.8306C210.664 52.8306 210.431 53.027 210.431 53.3338C210.431 53.751 210.799 53.7756 211.744 53.9964C212.984 54.291 214.211 54.6591 214.211 56.1195C214.211 57.4325 213.217 58.1566 211.4 58.1566ZM218.413 60.1323C217.984 60.1323 217.653 60.0955 217.235 60.0096V58.5124C217.444 58.537 217.604 58.5492 217.824 58.5492C218.205 58.5492 218.757 58.537 218.929 57.8743L216.425 51.6771H218.45L219.923 55.8127H219.947L221.297 51.6771H223.236L220.941 57.9725C220.414 59.4083 219.8 60.1323 218.413 60.1323ZM226.567 58.1688C224.493 58.1688 223.229 56.8189 223.229 54.8309C223.229 52.8552 224.493 51.4685 226.604 51.4685C228.678 51.4685 229.942 52.8184 229.942 54.7941C229.942 56.7821 228.678 58.1688 226.567 58.1688ZM226.592 56.6962C227.463 56.6962 227.954 56.0335 227.954 54.8187C227.954 53.6038 227.463 52.9411 226.592 52.9411C225.708 52.9411 225.217 53.6038 225.217 54.8187C225.217 56.0335 225.708 56.6962 226.592 56.6962ZM234.836 55.3095V51.6771H236.799V57.9602H234.836V57.0521H234.811C234.48 57.6289 233.866 58.1566 232.75 58.1566C231.535 58.1566 230.713 57.3589 230.713 55.9231V51.6771H232.676V55.2972C232.676 56.2422 233.007 56.5612 233.658 56.5612C234.406 56.5612 234.836 56.1808 234.836 55.3095ZM241.402 51.628C241.574 51.628 241.721 51.628 241.942 51.6771V53.3951C241.782 53.3706 241.672 53.3583 241.537 53.3583C240.653 53.3583 239.843 53.9105 239.843 55.0395V57.9602H237.88V51.6771H239.843V52.7079H239.868C240.175 52.0452 240.715 51.628 241.402 51.628ZM247.104 57.9602H244.895V49.1859H247.104V52.622H250.111V49.1859H252.32V57.9602H250.111V54.426H247.104V57.9602ZM257.322 58.1566C255.027 58.1566 253.297 56.9907 253.297 54.9782H255.53C255.53 55.9967 256.303 56.3772 257.297 56.3772C258.119 56.3772 258.537 56.0458 258.537 55.5918C258.537 54.8432 257.665 54.6468 256.45 54.2787C254.929 53.8124 253.567 53.2233 253.567 51.6526C253.567 49.7382 255.064 48.9896 256.954 48.9896C259.003 48.9896 260.61 50.0695 260.672 51.8489H258.438C258.34 51.174 257.8 50.769 256.954 50.769C256.291 50.769 255.825 50.9899 255.825 51.493C255.825 52.0821 256.315 52.2784 257.432 52.6097C259.089 53.1006 260.795 53.5669 260.795 55.3831C260.795 57.0644 259.518 58.1566 257.322 58.1566ZM263.244 57.9602H260.875L264.213 49.1859H266.434L269.797 57.9602H267.379L266.815 56.1317H263.808L263.244 57.9602ZM265.305 51.2108L264.311 54.4505H266.324L265.33 51.2108H265.305ZM275.294 58.1688C273.22 58.1688 271.956 56.8189 271.956 54.8309C271.956 52.8552 273.22 51.4685 275.331 51.4685C277.405 51.4685 278.669 52.8184 278.669 54.7941C278.669 56.7821 277.405 58.1688 275.294 58.1688ZM275.319 56.6962C276.19 56.6962 276.681 56.0335 276.681 54.8187C276.681 53.6038 276.19 52.9411 275.319 52.9411C274.435 52.9411 273.944 53.6038 273.944 54.8187C273.944 56.0335 274.435 56.6962 275.319 56.6962ZM282.999 51.628C283.17 51.628 283.318 51.628 283.539 51.6771V53.3951C283.379 53.3706 283.269 53.3583 283.134 53.3583C282.25 53.3583 281.44 53.9105 281.44 55.0395V57.9602H279.477V51.6771H281.44V52.7079H281.465C281.771 52.0452 282.311 51.628 282.999 51.628ZM179.586 73.9602H177.377V65.1859H183.905V66.9899H179.586V68.9165H183.108V70.7205H179.586V73.9602ZM188.221 74.1566C185.927 74.1566 184.196 72.9907 184.196 70.9782H186.43C186.43 71.9967 187.203 72.3772 188.197 72.3772C189.019 72.3772 189.436 72.0458 189.436 71.5918C189.436 70.8432 188.565 70.6468 187.35 70.2787C185.828 69.8124 184.466 69.2233 184.466 67.6526C184.466 65.7382 185.963 64.9896 187.853 64.9896C189.903 64.9896 191.51 66.0695 191.572 67.8489H189.338C189.24 67.174 188.7 66.769 187.853 66.769C187.191 66.769 186.724 66.9899 186.724 67.493C186.724 68.0821 187.215 68.2784 188.332 68.6097C189.989 69.1006 191.694 69.5669 191.694 71.3831C191.694 73.0644 190.418 74.1566 188.221 74.1566ZM194.144 73.9602H191.775L195.113 65.1859H197.334L200.697 73.9602H198.279L197.715 72.1317H194.708L194.144 73.9602ZM196.205 67.2108L195.211 70.4505H197.224L196.23 67.2108H196.205ZM204.869 74.1566C203.642 74.1566 202.868 73.4325 202.868 72.3158C202.868 71.015 203.936 70.5119 205.274 70.2296C205.961 70.0823 206.93 69.9842 206.93 69.3583C206.93 69.0147 206.66 68.7938 206.096 68.7938C205.372 68.7938 205.04 69.0883 204.979 69.7019H203.114C203.175 68.4993 204.059 67.4685 206.182 67.4685C207.888 67.4685 208.832 68.1557 208.832 70.0823V72.5121C208.832 72.8435 208.869 72.9907 209.066 72.9907C209.115 72.9907 209.152 72.9907 209.225 72.9785V73.9111C208.832 73.9847 208.427 74.0216 208.145 74.0216C207.36 74.0216 207.065 73.727 206.967 73.1994H206.943C206.501 73.7516 205.777 74.1566 204.869 74.1566ZM205.691 72.8067C206.476 72.8067 206.93 72.144 206.93 71.42V70.8923C206.673 70.9905 206.378 71.0641 205.863 71.1868C205.139 71.3586 204.881 71.6654 204.881 72.1072C204.881 72.5858 205.188 72.8067 205.691 72.8067ZM214.313 68.303V65.1859H216.276V73.9602H214.313V73.3343H214.288C214.043 73.6657 213.38 74.1566 212.472 74.1566C210.803 74.1566 209.735 72.8803 209.735 70.8187C209.735 68.757 210.803 67.4807 212.472 67.4807C213.38 67.4807 214.043 67.9716 214.288 68.303H214.313ZM213.012 72.6839C213.809 72.6839 214.276 72.0458 214.276 70.8187C214.276 69.5915 213.809 68.9534 213.012 68.9534C212.214 68.9534 211.748 69.5915 211.748 70.8187C211.748 72.0458 212.214 72.6839 213.012 72.6839ZM225.082 67.4807C226.346 67.4807 227.095 68.2784 227.095 69.7142V73.9602H225.107V70.3401C225.107 69.3951 224.911 69.0761 224.211 69.0761C223.585 69.0761 223.193 69.4565 223.193 70.3278V73.9602H221.229V70.3401C221.229 69.3951 221.033 69.0761 220.333 69.0761C219.72 69.0761 219.315 69.4565 219.315 70.3278V73.9602H217.351V67.6771H219.315V68.5852H219.339C219.671 68.0084 220.358 67.4807 221.303 67.4807C222.125 67.4807 222.702 67.9348 222.947 68.5852H222.972C223.512 67.9593 224.064 67.4807 225.082 67.4807ZM230.1 66.9285H228.137V65.1859H230.1V66.9285ZM230.1 73.9602H228.137V67.6771H230.1V73.9602ZM235.231 67.4807C236.445 67.4807 237.268 68.2784 237.268 69.7142V73.9602H235.304V70.3401C235.304 69.3951 234.973 69.0761 234.322 69.0761C233.574 69.0761 233.144 69.4565 233.144 70.3278V73.9602H231.181V67.6771H233.144V68.5852H233.169C233.5 68.0084 234.114 67.4807 235.231 67.4807ZM240.275 66.9285H238.311V65.1859H240.275V66.9285ZM240.275 73.9602H238.311V67.6771H240.275V73.9602ZM244.141 74.1566C241.944 74.1566 241.085 73.1012 241.036 71.874H242.877C242.938 72.4999 243.356 72.8067 244.104 72.8067C244.681 72.8067 244.939 72.6226 244.939 72.2667C244.939 71.7022 244.313 71.6409 243.405 71.4322C242.3 71.1745 241.159 70.7327 241.159 69.4565C241.159 68.2784 242.141 67.4807 243.908 67.4807C245.92 67.4807 246.706 68.4993 246.767 69.6038H244.926C244.865 69.1006 244.595 68.8306 243.945 68.8306C243.405 68.8306 243.172 69.027 243.172 69.3338C243.172 69.751 243.54 69.7756 244.485 69.9964C245.724 70.291 246.951 70.6591 246.951 72.1195C246.951 73.4325 245.957 74.1566 244.141 74.1566ZM250.74 72.6103C250.924 72.6103 251.034 72.598 251.267 72.5612V73.9479C250.85 74.0461 250.494 74.0829 250.102 74.0829C248.727 74.0829 248.138 73.4571 248.138 71.9231V69.1497H247.267V67.6771H248.138V65.9222H250.102V67.6771H251.194V69.1497H250.102V71.874C250.102 72.549 250.359 72.6103 250.74 72.6103ZM255.639 67.628C255.811 67.628 255.958 67.628 256.179 67.6771V69.3951C256.019 69.3706 255.909 69.3583 255.774 69.3583C254.89 69.3583 254.081 69.9105 254.081 71.0395V73.9602H252.117V67.6771H254.081V68.7079H254.105C254.412 68.0452 254.952 67.628 255.639 67.628ZM258.402 74.1566C257.174 74.1566 256.401 73.4325 256.401 72.3158C256.401 71.015 257.469 70.5119 258.807 70.2296C259.494 70.0823 260.463 69.9842 260.463 69.3583C260.463 69.0147 260.193 68.7938 259.629 68.7938C258.905 68.7938 258.573 69.0883 258.512 69.7019H256.647C256.708 68.4993 257.592 67.4685 259.715 67.4685C261.42 67.4685 262.365 68.1557 262.365 70.0823V72.5121C262.365 72.8435 262.402 72.9907 262.598 72.9907C262.648 72.9907 262.684 72.9907 262.758 72.9785V73.9111C262.365 73.9847 261.96 74.0216 261.678 74.0216C260.893 74.0216 260.598 73.727 260.5 73.1994H260.475C260.034 73.7516 259.31 74.1566 258.402 74.1566ZM259.224 72.8067C260.009 72.8067 260.463 72.144 260.463 71.42V70.8923C260.206 70.9905 259.911 71.0641 259.396 71.1868C258.672 71.3586 258.414 71.6654 258.414 72.1072C258.414 72.5858 258.721 72.8067 259.224 72.8067ZM266.547 72.6103C266.731 72.6103 266.841 72.598 267.074 72.5612V73.9479C266.657 74.0461 266.301 74.0829 265.909 74.0829C264.534 74.0829 263.945 73.4571 263.945 71.9231V69.1497H263.074V67.6771H263.945V65.9222H265.909V67.6771H267.001V69.1497H265.909V71.874C265.909 72.549 266.166 72.6103 266.547 72.6103ZM270.86 74.1688C268.786 74.1688 267.522 72.8189 267.522 70.8309C267.522 68.8552 268.786 67.4685 270.897 67.4685C272.971 67.4685 274.235 68.8184 274.235 70.7941C274.235 72.7821 272.971 74.1688 270.86 74.1688ZM270.885 72.6962C271.756 72.6962 272.247 72.0335 272.247 70.8187C272.247 69.6038 271.756 68.9411 270.885 68.9411C270.001 68.9411 269.51 69.6038 269.51 70.8187C269.51 72.0335 270.001 72.6962 270.885 72.6962ZM278.565 67.628C278.736 67.628 278.884 67.628 279.105 67.6771V69.3951C278.945 69.3706 278.835 69.3583 278.7 69.3583C277.816 69.3583 277.006 69.9105 277.006 71.0395V73.9602H275.043V67.6771H277.006V68.7079H277.031C277.337 68.0452 277.877 67.628 278.565 67.628ZM283.33 71.0886H281.71C281.71 69.5669 281.82 69.3951 282.864 68.6343C283.539 68.1434 283.759 67.9348 283.759 67.4194C283.759 67.039 283.539 66.6708 282.851 66.6708C282.078 66.6708 281.698 67.174 281.698 68.0943H279.612C279.612 66.3763 280.704 64.9896 282.913 64.9896C284.618 64.9896 285.846 65.9468 285.846 67.3703C285.846 68.352 285.367 68.9534 284.508 69.4319C283.649 69.9105 283.33 70.1928 283.33 71.0886ZM283.465 73.9602H281.6V72.0949H283.465V73.9602Z" fill="#0A191C"/>
</g>
<path d="M176.896 90.232C176.896 88.6788 178.155 87.4197 179.709 87.4197H284.018C285.571 87.4197 286.83 88.6788 286.83 90.232V109.368C286.83 110.921 285.571 112.18 284.018 112.18H179.709C178.155 112.18 176.896 110.921 176.896 109.368V90.232Z" fill="white"/>
<path d="M176.896 90.232C176.896 88.6788 178.155 87.4197 179.709 87.4197H284.018C285.571 87.4197 286.83 88.6788 286.83 90.232V109.368C286.83 110.921 285.571 112.18 284.018 112.18H179.709C178.155 112.18 176.896 110.921 176.896 109.368V90.232Z" stroke="#CBD5E0" stroke-width="0.511321"/>
<circle cx="187.377" cy="99.8" r="2.5566" fill="#CBD5E0"/>
<path d="M197.551 102.3H196.651V96.4503H197.551V98.8965H200.423V96.4503H201.331V102.3H200.423V99.6737H197.551V102.3ZM206.085 100.124C206.085 100.238 206.085 100.361 206.077 100.426H202.87C202.887 101.122 203.296 101.768 204.122 101.768C204.858 101.768 205.145 101.294 205.218 101.015H206.036C205.815 101.817 205.202 102.423 204.106 102.423C202.78 102.423 202.044 101.482 202.044 100.205C202.044 98.8965 202.829 97.9965 204.106 97.9965C205.374 97.9965 206.085 98.831 206.085 100.124ZM202.87 99.7964H205.251C205.251 99.1419 204.793 98.651 204.081 98.651C203.41 98.651 202.919 99.1092 202.87 99.7964ZM207.916 102.414C207.082 102.414 206.55 101.932 206.55 101.22C206.55 100.287 207.254 100.009 208.293 99.8127C208.947 99.69 209.348 99.6082 209.348 99.1992C209.348 98.8965 209.168 98.6428 208.554 98.6428C207.826 98.6428 207.605 98.8719 207.564 99.4282H206.746C206.787 98.6265 207.311 97.9965 208.587 97.9965C209.446 97.9965 210.133 98.3565 210.133 99.4364V101.351C210.133 101.653 210.174 101.809 210.33 101.809C210.354 101.809 210.379 101.809 210.428 101.801V102.292C210.289 102.324 210.15 102.341 210.019 102.341C209.618 102.341 209.405 102.185 209.356 101.711H209.34C209.07 102.144 208.595 102.414 207.916 102.414ZM208.096 101.768C208.816 101.768 209.348 101.4 209.348 100.672V100.075C209.217 100.197 208.857 100.287 208.432 100.377C207.695 100.524 207.384 100.729 207.384 101.163C207.384 101.555 207.597 101.768 208.096 101.768ZM211.911 102.3H211.109V96.4503H211.911V102.3ZM214.349 101.686C214.488 101.686 214.553 101.678 214.692 101.653V102.3C214.488 102.341 214.357 102.349 214.185 102.349C213.498 102.349 213.081 102.087 213.081 101.122V98.7901H212.475V98.1274H213.081V96.7857H213.882V98.1274H214.684V98.7901H213.882V101.146C213.882 101.588 214.005 101.686 214.349 101.686ZM217.544 98.0047C218.313 98.0047 218.935 98.4465 218.935 99.4037V102.3H218.133V99.6246C218.133 99.0683 217.887 98.6919 217.282 98.6919C216.595 98.6919 216.153 99.1092 216.153 99.7391V102.3H215.351V96.4503H216.153V98.651H216.169C216.39 98.332 216.824 98.0047 217.544 98.0047ZM224.066 102.3H219.844V96.4503H223.984V97.2275H220.744V98.8883H223.583V99.6655H220.744V101.523H224.066V102.3ZM227.589 98.6347V98.1274H228.39V103.748H227.589V101.809H227.572C227.343 102.103 226.942 102.414 226.288 102.414C225.224 102.414 224.414 101.588 224.414 100.214C224.414 98.8392 225.224 98.0047 226.288 98.0047C226.942 98.0047 227.343 98.3074 227.572 98.6347H227.589ZM226.419 101.752C227.139 101.752 227.58 101.154 227.58 100.214C227.58 99.2646 227.139 98.6756 226.419 98.6756C225.633 98.6756 225.249 99.3955 225.249 100.214C225.249 101.032 225.633 101.752 226.419 101.752ZM232.034 100.688V98.1274H232.835V102.3H232.034V101.776H232.017C231.796 102.095 231.363 102.414 230.643 102.414C229.874 102.414 229.252 101.973 229.252 101.015V98.1274H230.054V100.794C230.054 101.359 230.299 101.735 230.905 101.735C231.592 101.735 232.034 101.318 232.034 100.688ZM234.594 97.3829H233.686V96.5157H234.594V97.3829ZM234.537 102.3H233.735V98.1274H234.537V102.3ZM236.975 101.686C237.114 101.686 237.179 101.678 237.318 101.653V102.3C237.114 102.341 236.983 102.349 236.811 102.349C236.124 102.349 235.707 102.087 235.707 101.122V98.7901H235.101V98.1274H235.707V96.7857H236.508V98.1274H237.31V98.7901H236.508V101.146C236.508 101.588 236.631 101.686 236.975 101.686ZM238.517 103.764C238.337 103.764 238.214 103.748 238.002 103.707V103.052C238.141 103.069 238.214 103.077 238.345 103.077C238.664 103.077 239.041 102.913 239.204 102.259L237.519 98.1274H238.394L239.613 101.318H239.63L240.775 98.1274H241.618L239.965 102.398C239.564 103.429 239.163 103.764 238.517 103.764Z" fill="black"/>
<path d="M179.709 119.083C177.732 119.083 176.129 120.685 176.129 122.662V141.798C176.129 143.775 177.732 145.377 179.709 145.377H284.018C285.995 145.377 287.597 143.775 287.597 141.798V122.662C287.597 120.685 285.995 119.083 284.018 119.083H179.709Z" fill="white"/>
<path d="M179.709 119.083C177.732 119.083 176.129 120.685 176.129 122.662V141.798C176.129 143.775 177.732 145.377 179.709 145.377H284.018C285.995 145.377 287.597 143.775 287.597 141.798V122.662C287.597 120.685 285.995 119.083 284.018 119.083H179.709Z" stroke="#2650CB" stroke-width="1.02264"/>
<circle cx="187.377" cy="132.23" r="2.5566" fill="#2650CB"/>
<path d="M198.615 134.73H197.641L196.185 128.88H197.126L198.157 133.486H198.173L199.384 128.88H200.333L201.552 133.486H201.568L202.599 128.88H203.54L202.075 134.73H201.11L199.866 130.026H199.85L198.615 134.73ZM208.455 134.73H204.233V128.88H208.373V129.658H205.133V131.318H207.972V132.096H205.133V133.953H208.455V134.73ZM209.74 134.73H208.685L210.665 131.744L208.824 128.88H209.822L211.18 131.089H211.188L212.554 128.88H213.544L211.704 131.728L213.643 134.73H212.595L211.164 132.398H211.155L209.74 134.73Z" fill="black"/>
<path d="M176.896 155.092C176.896 153.539 178.155 152.28 179.709 152.28H284.018C285.571 152.28 286.83 153.539 286.83 155.092V174.228C286.83 175.781 285.571 177.04 284.018 177.04H179.709C178.155 177.04 176.896 175.781 176.896 174.228V155.092Z" fill="white"/>
<path d="M176.896 155.092C176.896 153.539 178.155 152.28 179.709 152.28H284.018C285.571 152.28 286.83 153.539 286.83 155.092V174.228C286.83 175.781 285.571 177.04 284.018 177.04H179.709C178.155 177.04 176.896 175.781 176.896 174.228V155.092Z" stroke="#CBD5E0" stroke-width="0.511321"/>
<circle cx="187.377" cy="164.66" r="2.5566" fill="#CBD5E0"/>
<path d="M199.236 167.275C197.486 167.275 196.365 165.99 196.365 164.231C196.365 162.472 197.486 161.196 199.236 161.196C200.987 161.196 202.108 162.472 202.108 164.231C202.108 165.99 200.987 167.275 199.236 167.275ZM199.236 166.497C200.619 166.497 201.167 165.434 201.167 164.231C201.167 163.029 200.619 161.973 199.236 161.973C197.854 161.973 197.306 163.029 197.306 164.231C197.306 165.434 197.854 166.497 199.236 166.497ZM204.902 162.865C205.966 162.865 206.776 163.7 206.776 165.074C206.776 166.448 205.966 167.275 204.902 167.275C204.248 167.275 203.847 166.98 203.618 166.645H203.602V168.608H202.8V162.988H203.602V163.479H203.618C203.847 163.184 204.248 162.865 204.902 162.865ZM204.772 166.612C205.557 166.612 205.933 165.892 205.933 165.074C205.933 164.256 205.557 163.536 204.772 163.536C204.052 163.536 203.61 164.125 203.61 165.074C203.61 166.015 204.052 166.612 204.772 166.612ZM208.924 166.547C209.063 166.547 209.128 166.538 209.268 166.514V167.16C209.063 167.201 208.932 167.209 208.76 167.209C208.073 167.209 207.656 166.947 207.656 165.982V163.65H207.05V162.988H207.656V161.646H208.458V162.988H209.259V163.65H208.458V166.007C208.458 166.448 208.58 166.547 208.924 166.547ZM212.675 165.548V162.988H213.477V167.16H212.675V166.637H212.659C212.438 166.956 212.004 167.275 211.285 167.275C210.516 167.275 209.894 166.833 209.894 165.876V162.988H210.695V165.655C210.695 166.219 210.941 166.596 211.546 166.596C212.234 166.596 212.675 166.178 212.675 165.548ZM218.917 162.865C219.76 162.865 220.185 163.372 220.185 164.264V167.16H219.383V164.485C219.383 163.929 219.269 163.552 218.655 163.552C218.058 163.552 217.682 163.97 217.682 164.599V167.16H216.88V164.485C216.88 163.929 216.765 163.552 216.152 163.552C215.555 163.552 215.178 163.97 215.178 164.599V167.16H214.377V162.988H215.178V163.511H215.195C215.416 163.192 215.8 162.865 216.43 162.865C217.011 162.865 217.371 163.127 217.534 163.593H217.551C217.854 163.192 218.279 162.865 218.917 162.865Z" fill="black"/>
<path d="M176.896 187.523C176.896 185.969 178.155 184.71 179.709 184.71H284.018C285.571 184.71 286.83 185.969 286.83 187.523V206.658C286.83 208.212 285.571 209.471 284.018 209.471H179.709C178.155 209.471 176.896 208.212 176.896 206.658V187.523Z" fill="white"/>
<path d="M176.896 187.523C176.896 185.969 178.155 184.71 179.709 184.71H284.018C285.571 184.71 286.83 185.969 286.83 187.523V206.658C286.83 208.212 285.571 209.471 284.018 209.471H179.709C178.155 209.471 176.896 208.212 176.896 206.658V187.523Z" stroke="#CBD5E0" stroke-width="0.511321"/>
<circle cx="187.377" cy="197.091" r="2.5566" fill="#CBD5E0"/>
<path d="M199.261 199.59H196.651V193.741H199.114C200.316 193.741 201.02 194.281 201.02 195.213C201.02 195.933 200.594 196.269 200.112 196.432V196.449C200.725 196.555 201.249 197.005 201.249 197.88C201.249 199.001 200.472 199.59 199.261 199.59ZM197.551 196.171H199.089C199.825 196.171 200.079 195.868 200.079 195.344C200.079 194.829 199.768 194.518 199.155 194.518H197.551V196.171ZM197.551 198.813H199.196C200.063 198.813 200.308 198.396 200.308 197.848C200.308 197.234 199.932 196.882 199.318 196.882H197.551V198.813ZM203.115 199.705C202.28 199.705 201.748 199.222 201.748 198.51C201.748 197.578 202.452 197.3 203.491 197.103C204.145 196.981 204.546 196.899 204.546 196.49C204.546 196.187 204.366 195.933 203.753 195.933C203.025 195.933 202.804 196.162 202.763 196.719H201.945C201.986 195.917 202.509 195.287 203.785 195.287C204.644 195.287 205.332 195.647 205.332 196.727V198.641C205.332 198.944 205.373 199.099 205.528 199.099C205.553 199.099 205.577 199.099 205.626 199.091V199.582C205.487 199.615 205.348 199.631 205.217 199.631C204.816 199.631 204.604 199.476 204.554 199.001H204.538C204.268 199.435 203.794 199.705 203.115 199.705ZM203.295 199.059C204.015 199.059 204.546 198.69 204.546 197.962V197.365C204.415 197.488 204.055 197.578 203.63 197.668C202.894 197.815 202.583 198.02 202.583 198.453C202.583 198.846 202.796 199.059 203.295 199.059ZM208.5 195.295C209.269 195.295 209.891 195.737 209.891 196.694V199.59H209.089V196.915C209.089 196.359 208.843 195.982 208.238 195.982C207.551 195.982 207.109 196.4 207.109 197.03V199.59H206.307V195.418H207.109V195.942H207.125C207.346 195.622 207.78 195.295 208.5 195.295ZM214.48 199.59H213.531L212.165 197.455L211.559 198.036V199.59H210.757V193.741H211.559V197.185L213.384 195.418H214.308L212.704 196.948L214.48 199.59ZM218.255 199.713C216.954 199.713 216.169 198.813 216.169 197.504C216.169 196.203 216.954 195.287 218.263 195.287C219.556 195.287 220.341 196.195 220.341 197.496C220.341 198.805 219.556 199.713 218.255 199.713ZM218.263 199.05C219.114 199.05 219.507 198.371 219.507 197.504C219.507 196.629 219.114 195.958 218.263 195.958C217.396 195.958 217.003 196.629 217.003 197.504C217.003 198.371 217.396 199.05 218.263 199.05ZM222.458 194.354C222.122 194.354 222.024 194.453 222.024 194.894V195.418H222.802V196.081H222.024V199.59H221.214V196.081H220.642V195.418H221.214V194.911C221.214 193.945 221.615 193.684 222.294 193.684C222.45 193.684 222.572 193.7 222.802 193.733V194.379C222.638 194.363 222.572 194.354 222.458 194.354ZM225.199 199.59H224.25L226.426 193.741H227.399L229.592 199.59H228.61L228.128 198.183H225.681L225.199 199.59ZM226.9 194.575L225.951 197.422H227.874L226.917 194.575H226.9ZM234.608 195.295C235.451 195.295 235.876 195.802 235.876 196.694V199.59H235.075V196.915C235.075 196.359 234.96 195.982 234.346 195.982C233.749 195.982 233.373 196.4 233.373 197.03V199.59H232.571V196.915C232.571 196.359 232.457 195.982 231.843 195.982C231.246 195.982 230.869 196.4 230.869 197.03V199.59H230.068V195.418H230.869V195.942H230.886C231.107 195.622 231.491 195.295 232.121 195.295C232.702 195.295 233.062 195.557 233.226 196.023H233.242C233.545 195.622 233.97 195.295 234.608 195.295ZM240.584 197.414C240.584 197.529 240.584 197.651 240.575 197.717H237.368C237.385 198.412 237.794 199.059 238.62 199.059C239.356 199.059 239.643 198.584 239.716 198.306H240.535C240.314 199.108 239.7 199.713 238.604 199.713C237.278 199.713 236.542 198.772 236.542 197.496C236.542 196.187 237.328 195.287 238.604 195.287C239.872 195.287 240.584 196.122 240.584 197.414ZM237.368 197.087H239.749C239.749 196.432 239.291 195.942 238.579 195.942C237.908 195.942 237.418 196.4 237.368 197.087ZM243.2 195.32C243.347 195.32 243.462 195.328 243.584 195.344V196.113C243.486 196.097 243.412 196.089 243.314 196.089C242.586 196.089 242.063 196.637 242.063 197.431V199.59H241.261V195.418H242.063V196.212H242.079C242.3 195.688 242.635 195.32 243.2 195.32ZM244.964 194.673H244.056V193.806H244.964V194.673ZM244.907 199.59H244.105V195.418H244.907V199.59ZM247.639 199.713C246.396 199.713 245.586 198.813 245.586 197.504C245.586 196.195 246.396 195.295 247.631 195.295C248.703 195.295 249.415 195.991 249.513 196.931H248.687C248.646 196.498 248.4 195.958 247.639 195.958C246.748 195.958 246.42 196.719 246.42 197.504C246.42 198.29 246.748 199.042 247.639 199.042C248.408 199.042 248.646 198.519 248.687 198.044H249.513C249.456 199.001 248.711 199.713 247.639 199.713ZM251.307 199.705C250.472 199.705 249.94 199.222 249.94 198.51C249.94 197.578 250.644 197.3 251.683 197.103C252.337 196.981 252.738 196.899 252.738 196.49C252.738 196.187 252.558 195.933 251.945 195.933C251.217 195.933 250.996 196.162 250.955 196.719H250.137C250.178 195.917 250.701 195.287 251.977 195.287C252.836 195.287 253.524 195.647 253.524 196.727V198.641C253.524 198.944 253.565 199.099 253.72 199.099C253.745 199.099 253.769 199.099 253.818 199.091V199.582C253.679 199.615 253.54 199.631 253.409 199.631C253.008 199.631 252.796 199.476 252.746 199.001H252.73C252.46 199.435 251.986 199.705 251.307 199.705ZM251.487 199.059C252.206 199.059 252.738 198.69 252.738 197.962V197.365C252.607 197.488 252.247 197.578 251.822 197.668C251.086 197.815 250.775 198.02 250.775 198.453C250.775 198.846 250.988 199.059 251.487 199.059Z" fill="black"/>
<g filter="url(#filter1_d_28201_14118)">
<path d="M9.28115 15H7.07224V6.22574H9.28115V9.66181H12.2877V6.22574H14.4966V15H12.2877V11.4658H9.28115V15ZM17.3309 15.1963C16.1037 15.1963 15.3306 14.4723 15.3306 13.3556C15.3306 12.0548 16.3983 11.5517 17.7359 11.2694C18.4231 11.1221 19.3925 11.024 19.3925 10.3981C19.3925 10.0545 19.1226 9.83361 18.5581 9.83361C17.834 9.83361 17.5027 10.1281 17.4413 10.7417H15.576C15.6374 9.53909 16.521 8.50827 18.644 8.50827C20.3497 8.50827 21.2947 9.19549 21.2947 11.1221V13.5519C21.2947 13.8833 21.3315 14.0305 21.5278 14.0305C21.5769 14.0305 21.6137 14.0305 21.6874 14.0183V14.9509C21.2947 15.0245 20.8897 15.0614 20.6074 15.0614C19.8221 15.0614 19.5275 14.7668 19.4294 14.2392H19.4048C18.963 14.7914 18.239 15.1963 17.3309 15.1963ZM18.1531 13.8465C18.9385 13.8465 19.3925 13.1838 19.3925 12.4598V11.9321C19.1348 12.0302 18.8403 12.1039 18.3249 12.2266C17.6009 12.3984 17.3432 12.7052 17.3432 13.147C17.3432 13.6256 17.65 13.8465 18.1531 13.8465ZM26.02 15H23.8602L21.6881 8.71689H23.6761L24.9524 12.8647H24.9769L26.2532 8.71689H28.1921L26.02 15ZM34.6927 12.0916V12.3861H30.1767C30.1767 13.2574 30.7903 13.736 31.5266 13.736C32.2261 13.736 32.5206 13.417 32.6433 13.0979H34.6436C34.2877 14.3741 33.2446 15.2086 31.4775 15.2086C29.4404 15.2086 28.2132 13.8219 28.2132 11.8584C28.2132 10.0177 29.3668 8.50827 31.4775 8.50827C33.6128 8.50827 34.6927 9.77226 34.6927 12.0916ZM30.189 11.1712H32.7169C32.7169 10.3613 32.2383 9.93179 31.4775 9.93179C30.7289 9.93179 30.238 10.3613 30.189 11.1712ZM38.941 17.1721C38.5115 17.1721 38.1801 17.1353 37.7629 17.0494V15.5522C37.9715 15.5768 38.131 15.589 38.3519 15.589C38.7324 15.589 39.2846 15.5768 39.4564 14.9141L36.953 8.71689H38.9778L40.4504 12.8525H40.4749L41.8248 8.71689H43.7638L41.4689 15.0123C40.9413 16.4481 40.3277 17.1721 38.941 17.1721ZM47.0945 15.2086C45.0205 15.2086 43.7566 13.8587 43.7566 11.8707C43.7566 9.89497 45.0205 8.50827 47.1313 8.50827C49.2052 8.50827 50.4692 9.85816 50.4692 11.8339C50.4692 13.8219 49.2052 15.2086 47.0945 15.2086ZM47.119 13.736C47.9903 13.736 48.4812 13.0733 48.4812 11.8584C48.4812 10.6435 47.9903 9.98088 47.119 9.98088C46.2354 9.98088 45.7446 10.6435 45.7446 11.8584C45.7446 13.0733 46.2354 13.736 47.119 13.736ZM55.3634 12.3493V8.71689H57.3269V15H55.3634V14.0919H55.3388C55.0075 14.6687 54.3939 15.1963 53.2772 15.1963C52.0623 15.1963 51.2401 14.3987 51.2401 12.9629V8.71689H53.2036V12.337C53.2036 13.282 53.5349 13.601 54.1853 13.601C54.9339 13.601 55.3634 13.2206 55.3634 12.3493ZM64.5486 8.52054C66.2175 8.52054 67.2851 9.7968 67.2851 11.8584C67.2851 13.9201 66.2175 15.1963 64.5486 15.1963C63.6405 15.1963 62.9778 14.7055 62.7323 14.3741H62.7078V15H60.7443V6.22574H62.7078V9.34275H62.7323C62.9778 9.01141 63.6405 8.52054 64.5486 8.52054ZM64.0086 13.7237C64.8063 13.7237 65.2726 13.0856 65.2726 11.8584C65.2726 10.6313 64.8063 9.99315 64.0086 9.99315C63.2109 9.99315 62.7446 10.6313 62.7446 11.8584C62.7446 13.0856 63.2109 13.7237 64.0086 13.7237ZM74.324 12.0916V12.3861H69.808C69.808 13.2574 70.4216 13.736 71.1579 13.736C71.8574 13.736 72.1519 13.417 72.2746 13.0979H74.2749C73.9191 14.3741 72.876 15.2086 71.1088 15.2086C69.0717 15.2086 67.8446 13.8219 67.8446 11.8584C67.8446 10.0177 68.9981 8.50827 71.1088 8.50827C73.2441 8.50827 74.324 9.77226 74.324 12.0916ZM69.8203 11.1712H72.3483C72.3483 10.3613 71.8697 9.93179 71.1088 9.93179C70.3603 9.93179 69.8694 10.3613 69.8203 11.1712ZM81.3587 12.0916V12.3861H76.8427C76.8427 13.2574 77.4563 13.736 78.1926 13.736C78.8921 13.736 79.1866 13.417 79.3093 13.0979H81.3096C80.9537 14.3741 79.9106 15.2086 78.1435 15.2086C76.1064 15.2086 74.8792 13.8219 74.8792 11.8584C74.8792 10.0177 76.0328 8.50827 78.1435 8.50827C80.2788 8.50827 81.3587 9.77226 81.3587 12.0916ZM76.855 11.1712H79.3829C79.3829 10.3613 78.9043 9.93179 78.1435 9.93179C77.3949 9.93179 76.9041 10.3613 76.855 11.1712ZM86.2335 8.52054C87.4484 8.52054 88.2706 9.3182 88.2706 10.754V15H86.3071V11.3798C86.3071 10.4349 85.9758 10.1159 85.3254 10.1159C84.5768 10.1159 84.1473 10.4963 84.1473 11.3676V15H82.1839V8.71689H84.1473V9.625H84.1719C84.5032 9.04823 85.1168 8.52054 86.2335 8.52054ZM95.9709 9.34275V6.22574H97.9344V15H95.9709V14.3741H95.9464C95.7009 14.7055 95.0383 15.1963 94.1302 15.1963C92.4612 15.1963 91.3936 13.9201 91.3936 11.8584C91.3936 9.7968 92.4612 8.52054 94.1302 8.52054C95.0383 8.52054 95.7009 9.01141 95.9464 9.34275H95.9709ZM94.6701 13.7237C95.4678 13.7237 95.9341 13.0856 95.9341 11.8584C95.9341 10.6313 95.4678 9.99315 94.6701 9.99315C93.8725 9.99315 93.4061 10.6313 93.4061 11.8584C93.4061 13.0856 93.8725 13.7237 94.6701 13.7237ZM100.973 7.96832H99.0095V6.22574H100.973V7.96832ZM100.973 15H99.0095V8.71689H100.973V15ZM103.796 15.1963C102.569 15.1963 101.796 14.4723 101.796 13.3556C101.796 12.0548 102.863 11.5517 104.201 11.2694C104.888 11.1221 105.858 11.024 105.858 10.3981C105.858 10.0545 105.588 9.83361 105.023 9.83361C104.299 9.83361 103.968 10.1281 103.906 10.7417H102.041C102.103 9.53909 102.986 8.50827 105.109 8.50827C106.815 8.50827 107.76 9.19549 107.76 11.1221V13.5519C107.76 13.8833 107.797 14.0305 107.993 14.0305C108.042 14.0305 108.079 14.0305 108.152 14.0183V14.9509C107.76 15.0245 107.355 15.0614 107.073 15.0614C106.287 15.0614 105.993 14.7668 105.895 14.2392H105.87C105.428 14.7914 104.704 15.1963 103.796 15.1963ZM104.618 13.8465C105.404 13.8465 105.858 13.1838 105.858 12.4598V11.9321C105.6 12.0302 105.305 12.1039 104.79 12.2266C104.066 12.3984 103.808 12.7052 103.808 13.147C103.808 13.6256 104.115 13.8465 104.618 13.8465ZM113.032 9.34275V8.71689H114.995V14.2514C114.995 16.4971 113.781 17.2457 111.854 17.2457C109.903 17.2457 108.995 16.2149 108.774 15.2086H110.762C110.884 15.5522 111.167 15.8345 111.854 15.8345C112.737 15.8345 113.032 15.3682 113.032 14.2514V13.8833H113.007C112.762 14.2146 112.21 14.7055 111.289 14.7055C109.682 14.7055 108.651 13.4292 108.651 11.613C108.651 9.7968 109.682 8.52054 111.289 8.52054C112.21 8.52054 112.762 9.01141 113.007 9.34275H113.032ZM111.829 13.2329C112.627 13.2329 112.995 12.6316 112.995 11.613C112.995 10.5945 112.627 9.99315 111.829 9.99315C111.032 9.99315 110.663 10.5945 110.663 11.613C110.663 12.6316 111.032 13.2329 111.829 13.2329ZM120.113 8.52054C121.327 8.52054 122.15 9.3182 122.15 10.754V15H120.186V11.3798C120.186 10.4349 119.855 10.1159 119.204 10.1159C118.456 10.1159 118.026 10.4963 118.026 11.3676V15H116.063V8.71689H118.026V9.625H118.051C118.382 9.04823 118.996 8.52054 120.113 8.52054ZM126.261 15.2086C124.187 15.2086 122.923 13.8587 122.923 11.8707C122.923 9.89497 124.187 8.50827 126.298 8.50827C128.372 8.50827 129.636 9.85816 129.636 11.8339C129.636 13.8219 128.372 15.2086 126.261 15.2086ZM126.286 13.736C127.157 13.736 127.648 13.0733 127.648 11.8584C127.648 10.6435 127.157 9.98088 126.286 9.98088C125.402 9.98088 124.911 10.6435 124.911 11.8584C124.911 13.0733 125.402 13.736 126.286 13.736ZM133.229 15.1963C131.033 15.1963 130.174 14.141 130.125 12.9138H131.965C132.027 13.5397 132.444 13.8465 133.193 13.8465C133.769 13.8465 134.027 13.6624 134.027 13.3065C134.027 12.742 133.401 12.6806 132.493 12.472C131.389 12.2143 130.247 11.7725 130.247 10.4963C130.247 9.3182 131.229 8.52054 132.996 8.52054C135.009 8.52054 135.794 9.53909 135.856 10.6435H134.015C133.953 10.1404 133.683 9.87043 133.033 9.87043C132.493 9.87043 132.26 10.0668 132.26 10.3736C132.26 10.7908 132.628 10.8154 133.573 11.0362C134.812 11.3308 136.04 11.6989 136.04 13.1592C136.04 14.4723 135.046 15.1963 133.229 15.1963ZM143.029 12.0916V12.3861H138.513C138.513 13.2574 139.126 13.736 139.863 13.736C140.562 13.736 140.857 13.417 140.979 13.0979H142.98C142.624 14.3741 141.581 15.2086 139.814 15.2086C137.776 15.2086 136.549 13.8219 136.549 11.8584C136.549 10.0177 137.703 8.50827 139.814 8.50827C141.949 8.50827 143.029 9.77226 143.029 12.0916ZM138.525 11.1712H141.053C141.053 10.3613 140.574 9.93179 139.814 9.93179C139.065 9.93179 138.574 10.3613 138.525 11.1712ZM148.174 9.34275V6.22574H150.137V15H148.174V14.3741H148.149C147.904 14.7055 147.241 15.1963 146.333 15.1963C144.664 15.1963 143.596 13.9201 143.596 11.8584C143.596 9.7968 144.664 8.52054 146.333 8.52054C147.241 8.52054 147.904 9.01141 148.149 9.34275H148.174ZM146.873 13.7237C147.67 13.7237 148.137 13.0856 148.137 11.8584C148.137 10.6313 147.67 9.99315 146.873 9.99315C146.075 9.99315 145.609 10.6313 145.609 11.8584C145.609 13.0856 146.075 13.7237 146.873 13.7237ZM156.402 15H154.561L152.806 8.71689H154.769L155.714 12.5457H155.739L156.794 8.71689H158.512L159.568 12.5457H159.604L160.549 8.71689H162.452L160.697 15H158.856L157.641 11.024H157.616L156.402 15ZM164.98 7.96832H163.016V6.22574H164.98V7.96832ZM164.98 15H163.016V8.71689H164.98V15ZM169.165 13.6501C169.349 13.6501 169.46 13.6378 169.693 13.601V14.9877C169.276 15.0859 168.92 15.1227 168.527 15.1227C167.153 15.1227 166.564 14.4969 166.564 12.9629V10.1895H165.692V8.71689H166.564V6.96204H168.527V8.71689H169.619V10.1895H168.527V12.9138C168.527 13.5888 168.785 13.6501 169.165 13.6501ZM174.592 8.52054C175.807 8.52054 176.629 9.3182 176.629 10.754V15H174.666V11.3798C174.666 10.4349 174.334 10.1159 173.684 10.1159C172.935 10.1159 172.506 10.4963 172.506 11.3676V15H170.542V6.22574H172.506V9.625H172.53C172.862 9.04823 173.475 8.52054 174.592 8.52054ZM8.61847 31.1963C7.3913 31.1963 6.61819 30.4723 6.61819 29.3556C6.61819 28.0548 7.68582 27.5517 9.02344 27.2694C9.71065 27.1221 10.6801 27.024 10.6801 26.3981C10.6801 26.0545 10.4101 25.8336 9.84564 25.8336C9.12161 25.8336 8.79028 26.1281 8.72892 26.7417H6.86362C6.92498 25.5391 7.80854 24.5083 9.93155 24.5083C11.6373 24.5083 12.5822 25.1955 12.5822 27.1221V29.5519C12.5822 29.8833 12.619 30.0305 12.8154 30.0305C12.8645 30.0305 12.9013 30.0305 12.9749 30.0183V30.9509C12.5822 31.0245 12.1773 31.0614 11.895 31.0614C11.1096 31.0614 10.8151 30.7668 10.7169 30.2392H10.6924C10.2506 30.7914 9.52658 31.1963 8.61847 31.1963ZM9.44068 29.8465C10.2261 29.8465 10.6801 29.1838 10.6801 28.4598V27.9321C10.4224 28.0302 10.1279 28.1039 9.61248 28.2266C8.88845 28.3984 8.63075 28.7052 8.63075 29.147C8.63075 29.6256 8.93754 29.8465 9.44068 29.8465ZM17.8524 24.5205C19.0672 24.5205 19.8895 25.3182 19.8895 26.754V31H17.926V27.3798C17.926 26.4349 17.5946 26.1159 16.9442 26.1159C16.1957 26.1159 15.7662 26.4963 15.7662 27.3676V31H13.8027V24.7169H15.7662V25.625H15.7907C16.122 25.0482 16.7356 24.5205 17.8524 24.5205ZM22.1513 33.1721C21.7218 33.1721 21.3904 33.1353 20.9732 33.0494V31.5522C21.1818 31.5768 21.3413 31.589 21.5622 31.589C21.9427 31.589 22.4949 31.5768 22.6667 30.9141L20.1633 24.7169H22.1881L23.6607 28.8525H23.6852L25.0351 24.7169H26.9741L24.6792 31.0123C24.1516 32.4481 23.538 33.1721 22.1513 33.1721ZM32.6656 31.2086C30.5917 31.2086 29.3277 29.8587 29.3277 27.8707C29.3277 25.895 30.5917 24.5083 32.7024 24.5083C34.7764 24.5083 36.0404 25.8582 36.0404 27.8339C36.0404 29.8219 34.7764 31.2086 32.6656 31.2086ZM32.6902 29.736C33.5615 29.736 34.0523 29.0733 34.0523 27.8584C34.0523 26.6435 33.5615 25.9809 32.6902 25.9809C31.8066 25.9809 31.3157 26.6435 31.3157 27.8584C31.3157 29.0733 31.8066 29.736 32.6902 29.736ZM39.8093 23.5879C39.4657 23.5879 39.208 23.6493 39.208 24.3242V24.7169H40.3002V26.1895H39.208V31H37.2445V26.1895H36.3978V24.7169H37.2445V24.2751C37.2445 22.7411 37.8336 22.1153 39.1834 22.1153C39.5516 22.1153 39.8829 22.1521 40.3002 22.238V23.6247C40.067 23.6002 39.9688 23.5879 39.8093 23.5879ZM46.4003 29.6501C46.5843 29.6501 46.6948 29.6378 46.9279 29.601V30.9877C46.5107 31.0859 46.1548 31.1227 45.7621 31.1227C44.3877 31.1227 43.7987 30.4969 43.7987 28.9629V26.1895H42.9274V24.7169H43.7987V22.962H45.7621V24.7169H46.8543V26.1895H45.7621V28.9138C45.7621 29.5888 46.0198 29.6501 46.4003 29.6501ZM51.8272 24.5205C53.0421 24.5205 53.8643 25.3182 53.8643 26.754V31H51.9008V27.3798C51.9008 26.4349 51.5695 26.1159 50.9191 26.1159C50.1705 26.1159 49.741 26.4963 49.741 27.3676V31H47.7776V22.2257H49.741V25.625H49.7656C50.0969 25.0482 50.7105 24.5205 51.8272 24.5205ZM61.1176 28.0916V28.3861H56.6016C56.6016 29.2574 57.2152 29.736 57.9515 29.736C58.651 29.736 58.9455 29.417 59.0682 29.0979H61.0685C60.7126 30.3741 59.6695 31.2086 57.9024 31.2086C55.8653 31.2086 54.6381 29.8219 54.6381 27.8584C54.6381 26.0177 55.7916 24.5083 57.9024 24.5083C60.0377 24.5083 61.1176 25.7723 61.1176 28.0916ZM56.6139 27.1712H59.1418C59.1418 26.3613 58.6632 25.9318 57.9024 25.9318C57.1538 25.9318 56.6629 26.3613 56.6139 27.1712ZM67.3966 23.5879C67.053 23.5879 66.7953 23.6493 66.7953 24.3242V24.7169H67.8875V26.1895H66.7953V31H64.8319V26.1895H63.9851V24.7169H64.8319V24.2751C64.8319 22.7411 65.4209 22.1153 66.7708 22.1153C67.1389 22.1153 67.4703 22.1521 67.8875 22.238V23.6247C67.6544 23.6002 67.5562 23.5879 67.3966 23.5879ZM71.4821 31.2086C69.4082 31.2086 68.1442 29.8587 68.1442 27.8707C68.1442 25.895 69.4082 24.5083 71.5189 24.5083C73.5928 24.5083 74.8568 25.8582 74.8568 27.8339C74.8568 29.8219 73.5928 31.2086 71.4821 31.2086ZM71.5066 29.736C72.3779 29.736 72.8688 29.0733 72.8688 27.8584C72.8688 26.6435 72.3779 25.9809 71.5066 25.9809C70.6231 25.9809 70.1322 26.6435 70.1322 27.8584C70.1322 29.0733 70.6231 29.736 71.5066 29.736ZM77.628 31H75.6645V22.2257H77.628V31ZM80.6719 31H78.7085V22.2257H80.6719V31ZM84.8204 31.2086C82.7464 31.2086 81.4824 29.8587 81.4824 27.8707C81.4824 25.895 82.7464 24.5083 84.8572 24.5083C86.9311 24.5083 88.1951 25.8582 88.1951 27.8339C88.1951 29.8219 86.9311 31.2086 84.8204 31.2086ZM84.8449 29.736C85.7162 29.736 86.2071 29.0733 86.2071 27.8584C86.2071 26.6435 85.7162 25.9809 84.8449 25.9809C83.9613 25.9809 83.4705 26.6435 83.4705 27.8584C83.4705 29.0733 83.9613 29.736 84.8449 29.736ZM91.9272 31H90.0864L88.3316 24.7169H90.2951L91.24 28.5457H91.2645L92.3199 24.7169H94.0379L95.0933 28.5457H95.1301L96.075 24.7169H97.9771L96.2223 31H94.3815L93.1666 27.024H93.1421L91.9272 31ZM100.506 23.9683H98.5421V22.2257H100.506V23.9683ZM100.506 31H98.5421V24.7169H100.506V31ZM105.636 24.5205C106.851 24.5205 107.673 25.3182 107.673 26.754V31H105.709V27.3798C105.709 26.4349 105.378 26.1159 104.728 26.1159C103.979 26.1159 103.55 26.4963 103.55 27.3676V31H101.586V24.7169H103.55V25.625H103.574C103.905 25.0482 104.519 24.5205 105.636 24.5205ZM112.852 25.3427V24.7169H114.816V30.2514C114.816 32.4971 113.601 33.2457 111.674 33.2457C109.723 33.2457 108.815 32.2149 108.594 31.2086H110.582C110.705 31.5522 110.987 31.8345 111.674 31.8345C112.558 31.8345 112.852 31.3682 112.852 30.2514V29.8833H112.828C112.582 30.2146 112.03 30.7055 111.11 30.7055C109.502 30.7055 108.471 29.4292 108.471 27.613C108.471 25.7968 109.502 24.5205 111.11 24.5205C112.03 24.5205 112.582 25.0114 112.828 25.3427H112.852ZM111.65 29.2329C112.447 29.2329 112.815 28.6316 112.815 27.613C112.815 26.5945 112.447 25.9931 111.65 25.9931C110.852 25.9931 110.484 26.5945 110.484 27.613C110.484 28.6316 110.852 29.2329 111.65 29.2329ZM121.19 31.2086C119.202 31.2086 117.95 29.8219 117.95 27.8584C117.95 25.9072 119.202 24.5083 121.141 24.5083C122.957 24.5083 124.061 25.5882 124.221 27.0608H122.245C122.184 26.5454 121.963 25.9809 121.177 25.9809C120.368 25.9809 119.963 26.6804 119.963 27.8584C119.963 29.0365 120.355 29.736 121.177 29.736C121.951 29.736 122.184 29.2083 122.245 28.6316H124.221C124.123 30.1287 122.994 31.2086 121.19 31.2086ZM128.023 31.2086C125.949 31.2086 124.685 29.8587 124.685 27.8707C124.685 25.895 125.949 24.5083 128.06 24.5083C130.134 24.5083 131.398 25.8582 131.398 27.8339C131.398 29.8219 130.134 31.2086 128.023 31.2086ZM128.047 29.736C128.919 29.736 129.41 29.0733 129.41 27.8584C129.41 26.6435 128.919 25.9809 128.047 25.9809C127.164 25.9809 126.673 26.6435 126.673 27.8584C126.673 29.0733 127.164 29.736 128.047 29.736ZM136.255 24.5205C137.47 24.5205 138.292 25.3182 138.292 26.754V31H136.329V27.3798C136.329 26.4349 135.997 26.1159 135.347 26.1159C134.598 26.1159 134.169 26.4963 134.169 27.3676V31H132.205V24.7169H134.169V25.625H134.193C134.525 25.0482 135.138 24.5205 136.255 24.5205ZM143.656 25.3427V22.2257H145.619V31H143.656V30.3741H143.631C143.386 30.7055 142.723 31.1963 141.815 31.1963C140.146 31.1963 139.078 29.9201 139.078 27.8584C139.078 25.7968 140.146 24.5205 141.815 24.5205C142.723 24.5205 143.386 25.0114 143.631 25.3427H143.656ZM142.355 29.7237C143.152 29.7237 143.619 29.0856 143.619 27.8584C143.619 26.6313 143.152 25.9931 142.355 25.9931C141.557 25.9931 141.091 26.6313 141.091 27.8584C141.091 29.0856 141.557 29.7237 142.355 29.7237ZM148.658 23.9683H146.694V22.2257H148.658V23.9683ZM148.658 31H146.694V24.7169H148.658V31ZM152.843 29.6501C153.027 29.6501 153.137 29.6378 153.371 29.601V30.9877C152.953 31.0859 152.597 31.1227 152.205 31.1227C150.83 31.1227 150.241 30.4969 150.241 28.9629V26.1895H149.37V24.7169H150.241V22.962H152.205V24.7169H153.297V26.1895H152.205V28.9138C152.205 29.5888 152.462 29.6501 152.843 29.6501ZM156.184 23.9683H154.22V22.2257H156.184V23.9683ZM156.184 31H154.22V24.7169H156.184V31ZM160.332 31.2086C158.258 31.2086 156.994 29.8587 156.994 27.8707C156.994 25.895 158.258 24.5083 160.369 24.5083C162.443 24.5083 163.707 25.8582 163.707 27.8339C163.707 29.8219 162.443 31.2086 160.332 31.2086ZM160.357 29.736C161.228 29.736 161.719 29.0733 161.719 27.8584C161.719 26.6435 161.228 25.9809 160.357 25.9809C159.473 25.9809 158.982 26.6435 158.982 27.8584C158.982 29.0733 159.473 29.736 160.357 29.736ZM168.564 24.5205C169.779 24.5205 170.601 25.3182 170.601 26.754V31H168.638V27.3798C168.638 26.4349 168.306 26.1159 167.656 26.1159C166.907 26.1159 166.478 26.4963 166.478 27.3676V31H164.514V24.7169H166.478V25.625H166.503C166.834 25.0482 167.447 24.5205 168.564 24.5205ZM174.431 31.1963C172.234 31.1963 171.375 30.141 171.326 28.9138H173.167C173.228 29.5397 173.645 29.8465 174.394 29.8465C174.971 29.8465 175.228 29.6624 175.228 29.3065C175.228 28.742 174.602 28.6806 173.694 28.472C172.59 28.2143 171.449 27.7725 171.449 26.4963C171.449 25.3182 172.43 24.5205 174.198 24.5205C176.21 24.5205 176.995 25.5391 177.057 26.6435H175.216C175.155 26.1404 174.885 25.8704 174.234 25.8704C173.694 25.8704 173.461 26.0668 173.461 26.3736C173.461 26.7908 173.829 26.8154 174.774 27.0362C176.014 27.3308 177.241 27.6989 177.241 29.1592C177.241 30.4723 176.247 31.1963 174.431 31.1963ZM181.011 28.1284H179.391C179.391 26.6067 179.501 26.4349 180.545 25.6741C181.22 25.1832 181.44 24.9746 181.44 24.4592C181.44 24.0788 181.22 23.7106 180.532 23.7106C179.759 23.7106 179.379 24.2138 179.379 25.1341H177.293C177.293 23.4161 178.385 22.0294 180.594 22.0294C182.299 22.0294 183.527 22.9866 183.527 24.4101C183.527 25.3918 183.048 25.9931 182.189 26.4717C181.33 26.9503 181.011 27.2326 181.011 28.1284ZM181.146 31H179.281V29.1347H181.146V31Z" fill="#0A191C"/>
</g>
<path d="M6.5916 47.2718C6.5916 45.7186 7.85069 44.4595 9.40386 44.4595H113.713C115.266 44.4595 116.526 45.7186 116.526 47.2718V66.4076C116.526 67.9608 115.266 69.2199 113.713 69.2199H9.40386C7.85069 69.2199 6.5916 67.9608 6.5916 66.4076V47.2718Z" fill="white"/>
<path d="M6.5916 47.2718C6.5916 45.7186 7.85069 44.4595 9.40386 44.4595H113.713C115.266 44.4595 116.526 45.7186 116.526 47.2718V66.4076C116.526 67.9608 115.266 69.2199 113.713 69.2199H9.40386C7.85069 69.2199 6.5916 67.9608 6.5916 66.4076V47.2718Z" stroke="#CBD5E0" stroke-width="0.511321"/>
<circle cx="17.0722" cy="56.8398" r="2.5566" fill="#CBD5E0"/>
<path d="M26.7474 59.3396H25.7983L27.9745 53.4901H28.9481L31.1406 59.3396H30.1589L29.6762 57.9324H27.23L26.7474 59.3396ZM28.449 54.3246L27.5 57.1716H29.4226L28.4654 54.3246H28.449ZM33.2972 59.4623C32.0537 59.4623 31.2437 58.5624 31.2437 57.2534C31.2437 55.9444 32.0537 55.0445 33.289 55.0445C34.3607 55.0445 35.0725 55.7399 35.1707 56.6807H34.3444C34.3035 56.2471 34.058 55.7072 33.2972 55.7072C32.4054 55.7072 32.0782 56.468 32.0782 57.2534C32.0782 58.0388 32.4054 58.7915 33.2972 58.7915C34.0662 58.7915 34.3035 58.2679 34.3444 57.7934H35.1707C35.1134 58.7506 34.3689 59.4623 33.2972 59.4623ZM38.0034 55.0445C38.7724 55.0445 39.3942 55.4863 39.3942 56.4435V59.3396H38.5924V56.6644C38.5924 56.1081 38.347 55.7317 37.7416 55.7317C37.0544 55.7317 36.6126 56.149 36.6126 56.7789V59.3396H35.8108V55.1672H36.6126V55.6908H36.629C36.8498 55.3718 37.2834 55.0445 38.0034 55.0445ZM44.0897 57.1634C44.0897 57.278 44.0897 57.4007 44.0815 57.4661H40.8745C40.8909 58.1615 41.2999 58.8078 42.1262 58.8078C42.8625 58.8078 43.1489 58.3333 43.2225 58.0552H44.0406C43.8197 58.8569 43.2061 59.4623 42.1099 59.4623C40.7845 59.4623 40.0482 58.5215 40.0482 57.2452C40.0482 55.9362 40.8336 55.0363 42.1099 55.0363C43.3779 55.0363 44.0897 55.8708 44.0897 57.1634ZM40.8745 56.8362H43.2552C43.2552 56.1817 42.7971 55.6908 42.0853 55.6908C41.4145 55.6908 40.9236 56.149 40.8745 56.8362Z" fill="black"/>
<path d="M9.40386 76.1227C7.4271 76.1227 5.82462 77.7252 5.82462 79.702V98.8378C5.82462 100.815 7.4271 102.417 9.40386 102.417H113.713C115.69 102.417 117.293 100.815 117.293 98.8378V79.702C117.293 77.7252 115.69 76.1227 113.713 76.1227H9.40386Z" fill="white"/>
<path d="M9.40386 76.1227C7.4271 76.1227 5.82462 77.7252 5.82462 79.702V98.8378C5.82462 100.815 7.4271 102.417 9.40386 102.417H113.713C115.69 102.417 117.293 100.815 117.293 98.8378V79.702C117.293 77.7252 115.69 76.1227 113.713 76.1227H9.40386Z" stroke="#2650CB" stroke-width="1.02264"/>
<circle cx="17.0722" cy="89.27" r="2.5566" fill="#2650CB"/>
<path d="M26.7474 91.7698H25.7983L27.9745 85.9203H28.9481L31.1406 91.7698H30.1589L29.6762 90.3626H27.23L26.7474 91.7698ZM28.449 86.7547L27.5 89.6018H29.4226L28.4654 86.7547H28.449ZM33.809 87.4747C34.578 87.4747 35.1997 87.9165 35.1997 88.8737V91.7698H34.398V89.0945C34.398 88.5382 34.1526 88.1619 33.5472 88.1619C32.8599 88.1619 32.4182 88.5791 32.4182 89.2091V91.7698H31.6164V87.5974H32.4182V88.121H32.4345C32.6554 87.8019 33.089 87.4747 33.809 87.4747ZM36.4837 91.7698H35.5511L37.1219 89.6345L35.6902 87.5974H36.6065L37.6046 89.0864H37.6209L38.6027 87.5974H39.5189L38.0872 89.6345L39.6744 91.7698H38.7336L37.6046 90.1745H37.5882L36.4837 91.7698ZM40.9122 86.8529H40.0041V85.9857H40.9122V86.8529ZM40.855 91.7698H40.0532V87.5974H40.855V91.7698ZM45.5837 89.5936C45.5837 89.7081 45.5837 89.8308 45.5755 89.8963H42.3685C42.3849 90.5917 42.7939 91.238 43.6202 91.238C44.3565 91.238 44.6429 90.7635 44.7165 90.4853H45.5346C45.3137 91.2871 44.7002 91.8925 43.6039 91.8925C42.2785 91.8925 41.5422 90.9517 41.5422 89.6754C41.5422 88.3664 42.3276 87.4665 43.6039 87.4665C44.872 87.4665 45.5837 88.301 45.5837 89.5936ZM42.3685 89.2663H44.7492C44.7492 88.6119 44.2911 88.121 43.5793 88.121C42.9085 88.121 42.4176 88.5791 42.3685 89.2663ZM47.7351 91.1562C47.8742 91.1562 47.9396 91.148 48.0787 91.1235V91.7698C47.8742 91.8107 47.7433 91.8189 47.5715 91.8189C46.8843 91.8189 46.467 91.5571 46.467 90.5917V88.2601H45.8616V87.5974H46.467V86.2557H47.2688V87.5974H48.0705V88.2601H47.2688V90.6162C47.2688 91.058 47.3915 91.1562 47.7351 91.1562ZM49.2776 93.2342C49.0976 93.2342 48.9749 93.2178 48.7622 93.1769V92.5224C48.9013 92.5388 48.9749 92.547 49.1058 92.547C49.4249 92.547 49.8012 92.3834 49.9648 91.7289L48.2795 87.5974H49.1549L50.3739 90.788H50.3903L51.5356 87.5974H52.3783L50.7257 91.8679C50.3248 92.8988 49.9239 93.2342 49.2776 93.2342Z" fill="black"/>
<path d="M6.5916 112.132C6.5916 110.579 7.85069 109.32 9.40386 109.32H113.713C115.266 109.32 116.526 110.579 116.526 112.132V131.268C116.526 132.821 115.266 134.08 113.713 134.08H9.40386C7.85069 134.08 6.5916 132.821 6.5916 131.268V112.132Z" fill="white"/>
<path d="M6.5916 112.132C6.5916 110.579 7.85069 109.32 9.40386 109.32H113.713C115.266 109.32 116.526 110.579 116.526 112.132V131.268C116.526 132.821 115.266 134.08 113.713 134.08H9.40386C7.85069 134.08 6.5916 132.821 6.5916 131.268V112.132Z" stroke="#CBD5E0" stroke-width="0.511321"/>
<circle cx="17.0722" cy="121.7" r="2.5566" fill="#CBD5E0"/>
<path d="M28.7926 124.315C27.1319 124.315 26.0601 123.038 26.0601 121.28C26.0601 119.512 27.1401 118.236 28.8008 118.236C30.2652 118.236 31.1734 119.169 31.3124 120.339H30.3716C30.2652 119.766 29.9053 119.013 28.7845 119.013C27.4918 119.013 27.001 120.11 27.001 121.271C27.001 122.441 27.4918 123.538 28.7845 123.538C29.9135 123.538 30.3143 122.785 30.3716 122.073H31.3124C31.1815 123.374 30.2652 124.315 28.7926 124.315ZM33.1215 124.315C32.287 124.315 31.7552 123.832 31.7552 123.12C31.7552 122.188 32.4588 121.909 33.4978 121.713C34.1523 121.59 34.5532 121.509 34.5532 121.1C34.5532 120.797 34.3732 120.543 33.7596 120.543C33.0315 120.543 32.8106 120.772 32.7697 121.329H31.9516C31.9925 120.527 32.5161 119.897 33.7923 119.897C34.6514 119.897 35.3386 120.257 35.3386 121.337V123.251C35.3386 123.554 35.3795 123.709 35.5349 123.709C35.5595 123.709 35.584 123.709 35.6331 123.701V124.192C35.494 124.225 35.3549 124.241 35.224 124.241C34.8232 124.241 34.6105 124.086 34.5614 123.611H34.545C34.275 124.045 33.8005 124.315 33.1215 124.315ZM33.3015 123.668C34.0214 123.668 34.5532 123.3 34.5532 122.572V121.975C34.4223 122.098 34.0623 122.188 33.6369 122.278C32.9006 122.425 32.5897 122.629 32.5897 123.063C32.5897 123.456 32.8024 123.668 33.3015 123.668ZM38.5067 119.905C39.2757 119.905 39.8975 120.347 39.8975 121.304V124.2H39.0958V121.525C39.0958 120.969 38.8503 120.592 38.2449 120.592C37.5577 120.592 37.1159 121.01 37.1159 121.64V124.2H36.3142V120.028H37.1159V120.551H37.1323C37.3532 120.232 37.7868 119.905 38.5067 119.905ZM42.5968 124.323C41.3533 124.323 40.5434 123.423 40.5434 122.114C40.5434 120.805 41.3533 119.905 42.5887 119.905C43.6604 119.905 44.3721 120.6 44.4703 121.541H43.644C43.6031 121.108 43.3577 120.568 42.5968 120.568C41.7051 120.568 41.3778 121.329 41.3778 122.114C41.3778 122.899 41.7051 123.652 42.5968 123.652C43.3659 123.652 43.6031 123.128 43.644 122.654H44.4703C44.413 123.611 43.6686 124.323 42.5968 124.323ZM48.9393 122.024C48.9393 122.139 48.9393 122.261 48.9311 122.327H45.7241C45.7404 123.022 46.1495 123.668 46.9758 123.668C47.7121 123.668 47.9984 123.194 48.0721 122.916H48.8902C48.6693 123.718 48.0557 124.323 46.9594 124.323C45.6341 124.323 44.8978 123.382 44.8978 122.106C44.8978 120.797 45.6832 119.897 46.9594 119.897C48.2275 119.897 48.9393 120.731 48.9393 122.024ZM45.7241 121.697H48.1048C48.1048 121.042 47.6466 120.551 46.9349 120.551C46.264 120.551 45.7732 121.01 45.7241 121.697ZM51.5554 119.93C51.7027 119.93 51.8172 119.938 51.9399 119.954V120.723C51.8418 120.707 51.7681 120.699 51.67 120.699C50.9418 120.699 50.4183 121.247 50.4183 122.04V124.2H49.6165V120.028H50.4183V120.821H50.4346C50.6555 120.298 50.9909 119.93 51.5554 119.93Z" fill="black"/>
<path d="M6.5916 144.562C6.5916 143.009 7.85069 141.75 9.40386 141.75H113.713C115.266 141.75 116.526 143.009 116.526 144.562V163.698C116.526 165.251 115.266 166.51 113.713 166.51H9.40386C7.85069 166.51 6.5916 165.251 6.5916 163.698V144.562Z" fill="white"/>
<path d="M6.5916 144.562C6.5916 143.009 7.85069 141.75 9.40386 141.75H113.713C115.266 141.75 116.526 143.009 116.526 144.562V163.698C116.526 165.251 115.266 166.51 113.713 166.51H9.40386C7.85069 166.51 6.5916 165.251 6.5916 163.698V144.562Z" stroke="#CBD5E0" stroke-width="0.511321"/>
<circle cx="17.0722" cy="154.13" r="2.5566" fill="#CBD5E0"/>
<path d="M28.5881 156.63H26.3465V150.781H28.5718C30.1916 150.781 31.1734 151.828 31.1734 153.71C31.1734 155.591 30.208 156.63 28.5881 156.63ZM27.2464 155.853H28.5308C29.8889 155.853 30.2407 154.839 30.2407 153.71C30.2407 152.581 29.8889 151.558 28.5308 151.558H27.2464V155.853ZM35.7488 154.454C35.7488 154.569 35.7488 154.691 35.7406 154.757H32.5336C32.55 155.452 32.959 156.099 33.7853 156.099C34.5216 156.099 34.8079 155.624 34.8816 155.346H35.6997C35.4788 156.148 34.8652 156.753 33.7689 156.753C32.4436 156.753 31.7073 155.812 31.7073 154.536C31.7073 153.227 32.4927 152.327 33.7689 152.327C35.037 152.327 35.7488 153.162 35.7488 154.454ZM32.5336 154.127H34.9143C34.9143 153.472 34.4562 152.982 33.7444 152.982C33.0735 152.982 32.5827 153.44 32.5336 154.127ZM38.5286 152.335C39.5921 152.335 40.4021 153.17 40.4021 154.544C40.4021 155.919 39.5921 156.745 38.5286 156.745C37.8741 156.745 37.4732 156.45 37.2441 156.115H37.2278V158.078H36.426V152.458H37.2278V152.949H37.2441C37.4732 152.654 37.8741 152.335 38.5286 152.335ZM38.3977 156.082C39.1831 156.082 39.5594 155.362 39.5594 154.544C39.5594 153.726 39.1831 153.006 38.3977 153.006C37.6777 153.006 37.236 153.595 37.236 154.544C37.236 155.485 37.6777 156.082 38.3977 156.082ZM43.0308 152.36C43.178 152.36 43.2926 152.368 43.4153 152.384V153.153C43.3171 153.137 43.2435 153.129 43.1453 153.129C42.4172 153.129 41.8936 153.677 41.8936 154.471V156.63H41.0918V152.458H41.8936V153.252H41.9099C42.1308 152.728 42.4663 152.36 43.0308 152.36ZM47.5891 154.454C47.5891 154.569 47.5891 154.691 47.5809 154.757H44.3739C44.3902 155.452 44.7993 156.099 45.6256 156.099C46.3619 156.099 46.6482 155.624 46.7219 155.346H47.54C47.3191 156.148 46.7055 156.753 45.6092 156.753C44.2839 156.753 43.5476 155.812 43.5476 154.536C43.5476 153.227 44.333 152.327 45.6092 152.327C46.8773 152.327 47.5891 153.162 47.5891 154.454ZM44.3739 154.127H46.7546C46.7546 153.472 46.2964 152.982 45.5847 152.982C44.9138 152.982 44.423 153.44 44.3739 154.127ZM49.9107 156.745C48.6426 156.745 48.0127 156.09 47.9881 155.24H48.7981C48.8308 155.722 49.1253 156.099 49.9025 156.099C50.6061 156.099 50.7943 155.788 50.7943 155.485C50.7943 154.961 50.2379 154.904 49.698 154.79C48.9699 154.618 48.1354 154.405 48.1354 153.538C48.1354 152.818 48.7163 152.335 49.7225 152.335C50.8679 152.335 51.416 152.949 51.4733 153.669H50.6634C50.6061 153.35 50.4343 152.982 49.7389 152.982C49.1989 152.982 48.9699 153.194 48.9699 153.505C48.9699 153.939 49.4362 153.98 50.0252 154.111C50.7943 154.291 51.6287 154.511 51.6287 155.444C51.6287 156.254 51.007 156.745 49.9107 156.745ZM53.9054 156.745C52.6373 156.745 52.0074 156.09 51.9828 155.24H52.7928C52.8255 155.722 53.12 156.099 53.8972 156.099C54.6008 156.099 54.789 155.788 54.789 155.485C54.789 154.961 54.2326 154.904 53.6927 154.79C52.9646 154.618 52.1301 154.405 52.1301 153.538C52.1301 152.818 52.711 152.335 53.7172 152.335C54.8626 152.335 55.4107 152.949 55.468 153.669H54.6581C54.6008 153.35 54.429 152.982 53.7336 152.982C53.1936 152.982 52.9646 153.194 52.9646 153.505C52.9646 153.939 53.4309 153.98 54.0199 154.111C54.789 154.291 55.6234 154.511 55.6234 155.444C55.6234 156.254 55.0017 156.745 53.9054 156.745ZM57.1147 151.714H56.2066V150.846H57.1147V151.714ZM57.0574 156.63H56.2557V152.458H57.0574V156.63ZM59.8227 156.753C58.5219 156.753 57.7365 155.853 57.7365 154.544C57.7365 153.243 58.5219 152.327 59.8309 152.327C61.1235 152.327 61.9089 153.235 61.9089 154.536C61.9089 155.845 61.1235 156.753 59.8227 156.753ZM59.8309 156.09C60.6817 156.09 61.0744 155.411 61.0744 154.544C61.0744 153.669 60.6817 152.998 59.8309 152.998C58.9637 152.998 58.571 153.669 58.571 154.544C58.571 155.411 58.9637 156.09 59.8309 156.09ZM64.7838 152.335C65.5528 152.335 66.1746 152.777 66.1746 153.734V156.63H65.3729V153.955C65.3729 153.399 65.1274 153.022 64.522 153.022C63.8348 153.022 63.393 153.44 63.393 154.07V156.63H62.5913V152.458H63.393V152.982H63.4094C63.6303 152.663 64.0639 152.335 64.7838 152.335Z" fill="black"/>
<path d="M6.5916 176.992C6.5916 175.439 7.85069 174.18 9.40386 174.18H113.713C115.266 174.18 116.526 175.439 116.526 176.992V196.128C116.526 197.682 115.266 198.941 113.713 198.941H9.40386C7.85069 198.941 6.5916 197.682 6.5916 196.128V176.992Z" fill="white"/>
<path d="M6.5916 176.992C6.5916 175.439 7.85069 174.18 9.40386 174.18H113.713C115.266 174.18 116.526 175.439 116.526 176.992V196.128C116.526 197.682 115.266 198.941 113.713 198.941H9.40386C7.85069 198.941 6.5916 197.682 6.5916 196.128V176.992Z" stroke="#CBD5E0" stroke-width="0.511321"/>
<circle cx="17.0722" cy="186.561" r="2.5566" fill="#CBD5E0"/>
<path d="M28.7926 189.175C27.1319 189.175 26.0601 187.899 26.0601 186.14C26.0601 184.373 27.1401 183.097 28.8008 183.097C30.2652 183.097 31.1734 184.029 31.3124 185.199H30.3716C30.2652 184.626 29.9053 183.874 28.7845 183.874C27.4918 183.874 27.001 184.97 27.001 186.132C27.001 187.302 27.4918 188.398 28.7845 188.398C29.9135 188.398 30.3143 187.645 30.3716 186.933H31.3124C31.1815 188.234 30.2652 189.175 28.7926 189.175ZM34.1765 184.765C34.9455 184.765 35.5673 185.207 35.5673 186.164V189.061H34.7655V186.385C34.7655 185.829 34.5201 185.453 33.9147 185.453C33.2275 185.453 32.7857 185.87 32.7857 186.5V189.061H31.9839V183.211H32.7857V185.412H32.802C33.0229 185.093 33.4565 184.765 34.1765 184.765ZM38.3729 184.79C38.5202 184.79 38.6347 184.798 38.7575 184.815V185.584C38.6593 185.567 38.5857 185.559 38.4875 185.559C37.7594 185.559 37.2358 186.107 37.2358 186.901V189.061H36.434V184.888H37.2358V185.682H37.2521C37.473 185.158 37.8084 184.79 38.3729 184.79ZM40.9678 189.183C39.667 189.183 38.8816 188.283 38.8816 186.974C38.8816 185.674 39.667 184.757 40.9759 184.757C42.2686 184.757 43.054 185.665 43.054 186.966C43.054 188.275 42.2686 189.183 40.9678 189.183ZM40.9759 188.521C41.8268 188.521 42.2195 187.842 42.2195 186.974C42.2195 186.099 41.8268 185.428 40.9759 185.428C40.1087 185.428 39.7161 186.099 39.7161 186.974C39.7161 187.842 40.1087 188.521 40.9759 188.521ZM45.9289 184.765C46.6979 184.765 47.3196 185.207 47.3196 186.164V189.061H46.5179V186.385C46.5179 185.829 46.2725 185.453 45.6671 185.453C44.9798 185.453 44.5381 185.87 44.5381 186.5V189.061H43.7363V184.888H44.5381V185.412H44.5544C44.7753 185.093 45.2089 184.765 45.9289 184.765ZM49.0454 184.144H48.1373V183.276H49.0454V184.144ZM48.9882 189.061H48.1864V184.888H48.9882V189.061ZM51.7207 189.183C50.4772 189.183 49.6673 188.283 49.6673 186.974C49.6673 185.665 50.4772 184.765 51.7125 184.765C52.7843 184.765 53.496 185.461 53.5942 186.402H52.7679C52.727 185.968 52.4816 185.428 51.7207 185.428C50.829 185.428 50.5017 186.189 50.5017 186.974C50.5017 187.76 50.829 188.512 51.7207 188.512C52.4897 188.512 52.727 187.989 52.7679 187.514H53.5942C53.5369 188.472 52.7924 189.183 51.7207 189.183ZM56.9749 189.061H56.075V183.211H60.1328V183.988H56.9749V185.747H59.5274V186.524H56.9749V189.061ZM61.3799 189.175C60.5455 189.175 60.0137 188.692 60.0137 187.981C60.0137 187.048 60.7173 186.77 61.7563 186.573C62.4108 186.451 62.8116 186.369 62.8116 185.96C62.8116 185.657 62.6317 185.404 62.0181 185.404C61.29 185.404 61.0691 185.633 61.0282 186.189H60.21C60.2509 185.387 60.7745 184.757 62.0508 184.757C62.9098 184.757 63.597 185.117 63.597 186.197V188.112C63.597 188.414 63.6379 188.57 63.7934 188.57C63.8179 188.57 63.8425 188.57 63.8916 188.561V189.052C63.7525 189.085 63.6134 189.101 63.4825 189.101C63.0816 189.101 62.8689 188.946 62.8198 188.472H62.8035C62.5335 188.905 62.059 189.175 61.3799 189.175ZM61.5599 188.529C62.2799 188.529 62.8116 188.161 62.8116 187.433V186.835C62.6807 186.958 62.3208 187.048 61.8954 187.138C61.1591 187.285 60.8482 187.49 60.8482 187.923C60.8482 188.316 61.0609 188.529 61.5599 188.529ZM66.0308 188.447C66.1699 188.447 66.2353 188.439 66.3744 188.414V189.061C66.1699 189.101 66.039 189.11 65.8672 189.11C65.18 189.11 64.7627 188.848 64.7627 187.882V185.551H64.1573V184.888H64.7627V183.546H65.5645V184.888H66.3662V185.551H65.5645V187.907C65.5645 188.349 65.6872 188.447 66.0308 188.447ZM67.8924 184.144H66.9843V183.276H67.8924V184.144ZM67.8351 189.061H67.0334V184.888H67.8351V189.061ZM71.6803 185.379V184.888H72.4821V188.733C72.4821 189.993 71.7212 190.558 70.5268 190.558C69.3323 190.558 68.7351 189.985 68.6533 189.232H69.4878C69.5696 189.609 69.8477 189.903 70.5268 189.903C71.2876 189.903 71.6803 189.568 71.6803 188.782V188.218H71.6639C71.4349 188.553 71.0504 188.848 70.3795 188.848C69.3405 188.848 68.5388 188.144 68.5388 186.811C68.5388 185.469 69.3405 184.765 70.3795 184.765C71.0504 184.765 71.4349 185.085 71.6639 185.379H71.6803ZM70.5268 188.185C71.2467 188.185 71.6721 187.719 71.6721 186.811C71.6721 185.894 71.2467 185.436 70.5268 185.436C69.7414 185.436 69.3732 186.025 69.3732 186.811C69.3732 187.596 69.7414 188.185 70.5268 188.185ZM76.1258 187.449V184.888H76.9275V189.061H76.1258V188.537H76.1094C75.8885 188.856 75.4549 189.175 74.735 189.175C73.966 189.175 73.3442 188.733 73.3442 187.776V184.888H74.146V187.555C74.146 188.12 74.3914 188.496 74.9968 188.496C75.684 188.496 76.1258 188.079 76.1258 187.449ZM81.6558 186.884C81.6558 186.999 81.6558 187.122 81.6476 187.187H78.4406C78.457 187.882 78.866 188.529 79.6923 188.529C80.4286 188.529 80.715 188.054 80.7886 187.776H81.6067C81.3858 188.578 80.7722 189.183 79.676 189.183C78.3506 189.183 77.6143 188.242 77.6143 186.966C77.6143 185.657 78.3997 184.757 79.676 184.757C80.944 184.757 81.6558 185.592 81.6558 186.884ZM78.4406 186.557H80.8213C80.8213 185.903 80.3632 185.412 79.6514 185.412C78.9806 185.412 78.4897 185.87 78.4406 186.557Z" fill="black"/>
<defs>
<filter id="filter0_d_28201_14118" x="170.602" y="43.365" width="121.377" height="37.4511" filterUnits="userSpaceOnUse" color-interpolation-filters="sRGB">
<feFlood flood-opacity="0" result="BackgroundImageFix"/>
<feColorMatrix in="SourceAlpha" type="matrix" values="0 0 0 0 0 0 0 0 0 0 0 0 0 0 0 0 0 0 127 0" result="hardAlpha"/>
<feOffset dy="0.511321"/>
<feGaussianBlur stdDeviation="3.06792"/>
<feComposite in2="hardAlpha" operator="out"/>
<feColorMatrix type="matrix" values="0 0 0 0 0.14902 0 0 0 0 0.313726 0 0 0 0 0.796078 0 0 0 0.1 0"/>
<feBlend mode="normal" in2="BackgroundImageFix" result="effect1_dropShadow_28201_14118"/>
<feBlend mode="normal" in="SourceGraphic" in2="effect1_dropShadow_28201_14118" result="shape"/>
</filter>
<filter id="filter1_d_28201_14118" x="0.481339" y="0.601302" width="189.182" height="39.2915" filterUnits="userSpaceOnUse" color-interpolation-filters="sRGB">
<feFlood flood-opacity="0" result="BackgroundImageFix"/>
<feColorMatrix in="SourceAlpha" type="matrix" values="0 0 0 0 0 0 0 0 0 0 0 0 0 0 0 0 0 0 127 0" result="hardAlpha"/>
<feOffset dy="0.511321"/>
<feGaussianBlur stdDeviation="3.06792"/>
<feComposite in2="hardAlpha" operator="out"/>
<feColorMatrix type="matrix" values="0 0 0 0 0.14902 0 0 0 0 0.313726 0 0 0 0 0.796078 0 0 0 0.1 0"/>
<feBlend mode="normal" in2="BackgroundImageFix" result="effect1_dropShadow_28201_14118"/>
<feBlend mode="normal" in="SourceGraphic" in2="effect1_dropShadow_28201_14118" result="shape"/>
</filter>
</defs>
</svg>
