<svg width="1728" height="843" viewBox="0 0 1728 843" fill="none" xmlns="http://www.w3.org/2000/svg">
<mask id="mask0_558_2032" style="mask-type:alpha" maskUnits="userSpaceOnUse" x="144" y="-298" width="1440" height="1440">
<rect width="1440" height="1440" transform="translate(144 -298)" fill="url(#paint0_radial_558_2032)"/>
</mask>
<g mask="url(#mask0_558_2032)">
<g clip-path="url(#clip0_558_2032)">
<mask id="path-3-inside-1_558_2032" fill="white">
<path d="M96 -10H192V86H96V-10Z"/>
</mask>
<path d="M96 -10H192V86H96V-10Z" fill="#1F242F"/>
<path d="M192 86V87H193V86H192ZM191 -10V86H193V-10H191ZM192 85H96V87H192V85Z" fill="#333741" mask="url(#path-3-inside-1_558_2032)"/>
<mask id="path-5-inside-2_558_2032" fill="white">
<path d="M192 -10H288V86H192V-10Z"/>
</mask>
<path d="M288 86V87H289V86H288ZM287 -10V86H289V-10H287ZM288 85H192V87H288V85Z" fill="#333741" mask="url(#path-5-inside-2_558_2032)"/>
<mask id="path-7-inside-3_558_2032" fill="white">
<path d="M288 -10H384V86H288V-10Z"/>
</mask>
<path d="M384 86V87H385V86H384ZM383 -10V86H385V-10H383ZM384 85H288V87H384V85Z" fill="#333741" mask="url(#path-7-inside-3_558_2032)"/>
<mask id="path-9-inside-4_558_2032" fill="white">
<path d="M384 -10H480V86H384V-10Z"/>
</mask>
<path d="M480 86V87H481V86H480ZM479 -10V86H481V-10H479ZM480 85H384V87H480V85Z" fill="#333741" mask="url(#path-9-inside-4_558_2032)"/>
<mask id="path-11-inside-5_558_2032" fill="white">
<path d="M480 -10H576V86H480V-10Z"/>
</mask>
<path d="M576 86V87H577V86H576ZM575 -10V86H577V-10H575ZM576 85H480V87H576V85Z" fill="#333741" mask="url(#path-11-inside-5_558_2032)"/>
<mask id="path-13-inside-6_558_2032" fill="white">
<path d="M576 -10H672V86H576V-10Z"/>
</mask>
<path d="M672 86V87H673V86H672ZM671 -10V86H673V-10H671ZM672 85H576V87H672V85Z" fill="#333741" mask="url(#path-13-inside-6_558_2032)"/>
<mask id="path-15-inside-7_558_2032" fill="white">
<path d="M672 -10H768V86H672V-10Z"/>
</mask>
<path d="M768 86V87H769V86H768ZM767 -10V86H769V-10H767ZM768 85H672V87H768V85Z" fill="#333741" mask="url(#path-15-inside-7_558_2032)"/>
<mask id="path-17-inside-8_558_2032" fill="white">
<path d="M768 -10H864V86H768V-10Z"/>
</mask>
<path d="M864 86V87H865V86H864ZM863 -10V86H865V-10H863ZM864 85H768V87H864V85Z" fill="#333741" mask="url(#path-17-inside-8_558_2032)"/>
<mask id="path-19-inside-9_558_2032" fill="white">
<path d="M864 -10H960V86H864V-10Z"/>
</mask>
<path d="M960 86V87H961V86H960ZM959 -10V86H961V-10H959ZM960 85H864V87H960V85Z" fill="#333741" mask="url(#path-19-inside-9_558_2032)"/>
<mask id="path-21-inside-10_558_2032" fill="white">
<path d="M960 -10H1056V86H960V-10Z"/>
</mask>
<path d="M1056 86V87H1057V86H1056ZM1055 -10V86H1057V-10H1055ZM1056 85H960V87H1056V85Z" fill="#333741" mask="url(#path-21-inside-10_558_2032)"/>
<mask id="path-23-inside-11_558_2032" fill="white">
<path d="M1056 -10H1152V86H1056V-10Z"/>
</mask>
<path d="M1152 86V87H1153V86H1152ZM1151 -10V86H1153V-10H1151ZM1152 85H1056V87H1152V85Z" fill="#333741" mask="url(#path-23-inside-11_558_2032)"/>
<mask id="path-25-inside-12_558_2032" fill="white">
<path d="M1152 -10H1248V86H1152V-10Z"/>
</mask>
<path d="M1248 86V87H1249V86H1248ZM1247 -10V86H1249V-10H1247ZM1248 85H1152V87H1248V85Z" fill="#333741" mask="url(#path-25-inside-12_558_2032)"/>
<mask id="path-27-inside-13_558_2032" fill="white">
<path d="M1248 -10H1344V86H1248V-10Z"/>
</mask>
<path d="M1248 -10H1344V86H1248V-10Z" fill="#1F242F"/>
<path d="M1344 86V87H1345V86H1344ZM1343 -10V86H1345V-10H1343ZM1344 85H1248V87H1344V85Z" fill="#333741" mask="url(#path-27-inside-13_558_2032)"/>
<mask id="path-29-inside-14_558_2032" fill="white">
<path d="M1344 -10H1440V86H1344V-10Z"/>
</mask>
<path d="M1440 86V87H1441V86H1440ZM1439 -10V86H1441V-10H1439ZM1440 85H1344V87H1440V85Z" fill="#333741" mask="url(#path-29-inside-14_558_2032)"/>
<mask id="path-31-inside-15_558_2032" fill="white">
<path d="M1440 -10H1536V86H1440V-10Z"/>
</mask>
<path d="M1536 86V87H1537V86H1536ZM1535 -10V86H1537V-10H1535ZM1536 85H1440V87H1536V85Z" fill="#333741" mask="url(#path-31-inside-15_558_2032)"/>
<mask id="path-33-inside-16_558_2032" fill="white">
<path d="M1536 -10H1632V86H1536V-10Z"/>
</mask>
<path d="M1632 86V87H1633V86H1632ZM1631 -10V86H1633V-10H1631ZM1632 85H1536V87H1632V85Z" fill="#333741" mask="url(#path-33-inside-16_558_2032)"/>
<mask id="path-35-inside-17_558_2032" fill="white">
<path d="M96 86H192V182H96V86Z"/>
</mask>
<path d="M192 182V183H193V182H192ZM191 86V182H193V86H191ZM192 181H96V183H192V181Z" fill="#333741" mask="url(#path-35-inside-17_558_2032)"/>
<mask id="path-37-inside-18_558_2032" fill="white">
<path d="M192 86H288V182H192V86Z"/>
</mask>
<path d="M288 182V183H289V182H288ZM287 86V182H289V86H287ZM288 181H192V183H288V181Z" fill="#333741" mask="url(#path-37-inside-18_558_2032)"/>
<mask id="path-39-inside-19_558_2032" fill="white">
<path d="M288 86H384V182H288V86Z"/>
</mask>
<path d="M384 182V183H385V182H384ZM383 86V182H385V86H383ZM384 181H288V183H384V181Z" fill="#333741" mask="url(#path-39-inside-19_558_2032)"/>
<mask id="path-41-inside-20_558_2032" fill="white">
<path d="M384 86H480V182H384V86Z"/>
</mask>
<path d="M480 182V183H481V182H480ZM479 86V182H481V86H479ZM480 181H384V183H480V181Z" fill="#333741" mask="url(#path-41-inside-20_558_2032)"/>
<mask id="path-43-inside-21_558_2032" fill="white">
<path d="M480 86H576V182H480V86Z"/>
</mask>
<path d="M576 182V183H577V182H576ZM575 86V182H577V86H575ZM576 181H480V183H576V181Z" fill="#333741" mask="url(#path-43-inside-21_558_2032)"/>
<mask id="path-45-inside-22_558_2032" fill="white">
<path d="M576 86H672V182H576V86Z"/>
</mask>
<path d="M672 182V183H673V182H672ZM671 86V182H673V86H671ZM672 181H576V183H672V181Z" fill="#333741" mask="url(#path-45-inside-22_558_2032)"/>
<mask id="path-47-inside-23_558_2032" fill="white">
<path d="M672 86H768V182H672V86Z"/>
</mask>
<path d="M672 86H768V182H672V86Z" fill="#1F242F"/>
<path d="M768 182V183H769V182H768ZM767 86V182H769V86H767ZM768 181H672V183H768V181Z" fill="#333741" mask="url(#path-47-inside-23_558_2032)"/>
<mask id="path-49-inside-24_558_2032" fill="white">
<path d="M768 86H864V182H768V86Z"/>
</mask>
<path d="M864 182V183H865V182H864ZM863 86V182H865V86H863ZM864 181H768V183H864V181Z" fill="#333741" mask="url(#path-49-inside-24_558_2032)"/>
<mask id="path-51-inside-25_558_2032" fill="white">
<path d="M864 86H960V182H864V86Z"/>
</mask>
<path d="M960 182V183H961V182H960ZM959 86V182H961V86H959ZM960 181H864V183H960V181Z" fill="#333741" mask="url(#path-51-inside-25_558_2032)"/>
<mask id="path-53-inside-26_558_2032" fill="white">
<path d="M960 86H1056V182H960V86Z"/>
</mask>
<path d="M1056 182V183H1057V182H1056ZM1055 86V182H1057V86H1055ZM1056 181H960V183H1056V181Z" fill="#333741" mask="url(#path-53-inside-26_558_2032)"/>
<mask id="path-55-inside-27_558_2032" fill="white">
<path d="M1056 86H1152V182H1056V86Z"/>
</mask>
<path d="M1152 182V183H1153V182H1152ZM1151 86V182H1153V86H1151ZM1152 181H1056V183H1152V181Z" fill="#333741" mask="url(#path-55-inside-27_558_2032)"/>
<mask id="path-57-inside-28_558_2032" fill="white">
<path d="M1152 86H1248V182H1152V86Z"/>
</mask>
<path d="M1248 182V183H1249V182H1248ZM1247 86V182H1249V86H1247ZM1248 181H1152V183H1248V181Z" fill="#333741" mask="url(#path-57-inside-28_558_2032)"/>
<mask id="path-59-inside-29_558_2032" fill="white">
<path d="M1248 86H1344V182H1248V86Z"/>
</mask>
<path d="M1344 182V183H1345V182H1344ZM1343 86V182H1345V86H1343ZM1344 181H1248V183H1344V181Z" fill="#333741" mask="url(#path-59-inside-29_558_2032)"/>
<mask id="path-61-inside-30_558_2032" fill="white">
<path d="M1344 86H1440V182H1344V86Z"/>
</mask>
<path d="M1440 182V183H1441V182H1440ZM1439 86V182H1441V86H1439ZM1440 181H1344V183H1440V181Z" fill="#333741" mask="url(#path-61-inside-30_558_2032)"/>
<mask id="path-63-inside-31_558_2032" fill="white">
<path d="M1440 86H1536V182H1440V86Z"/>
</mask>
<path d="M1536 182V183H1537V182H1536ZM1535 86V182H1537V86H1535ZM1536 181H1440V183H1536V181Z" fill="#333741" mask="url(#path-63-inside-31_558_2032)"/>
<mask id="path-65-inside-32_558_2032" fill="white">
<path d="M1536 86H1632V182H1536V86Z"/>
</mask>
<path d="M1632 182V183H1633V182H1632ZM1631 86V182H1633V86H1631ZM1632 181H1536V183H1632V181Z" fill="#333741" mask="url(#path-65-inside-32_558_2032)"/>
<mask id="path-67-inside-33_558_2032" fill="white">
<path d="M96 182H192V278H96V182Z"/>
</mask>
<path d="M192 278V279H193V278H192ZM191 182V278H193V182H191ZM192 277H96V279H192V277Z" fill="#333741" mask="url(#path-67-inside-33_558_2032)"/>
<mask id="path-69-inside-34_558_2032" fill="white">
<path d="M192 182H288V278H192V182Z"/>
</mask>
<path d="M288 278V279H289V278H288ZM287 182V278H289V182H287ZM288 277H192V279H288V277Z" fill="#333741" mask="url(#path-69-inside-34_558_2032)"/>
<mask id="path-71-inside-35_558_2032" fill="white">
<path d="M288 182H384V278H288V182Z"/>
</mask>
<path d="M384 278V279H385V278H384ZM383 182V278H385V182H383ZM384 277H288V279H384V277Z" fill="#333741" mask="url(#path-71-inside-35_558_2032)"/>
<mask id="path-73-inside-36_558_2032" fill="white">
<path d="M384 182H480V278H384V182Z"/>
</mask>
<path d="M384 182H480V278H384V182Z" fill="#1F242F"/>
<path d="M480 278V279H481V278H480ZM479 182V278H481V182H479ZM480 277H384V279H480V277Z" fill="#333741" mask="url(#path-73-inside-36_558_2032)"/>
<mask id="path-75-inside-37_558_2032" fill="white">
<path d="M480 182H576V278H480V182Z"/>
</mask>
<path d="M576 278V279H577V278H576ZM575 182V278H577V182H575ZM576 277H480V279H576V277Z" fill="#333741" mask="url(#path-75-inside-37_558_2032)"/>
<mask id="path-77-inside-38_558_2032" fill="white">
<path d="M576 182H672V278H576V182Z"/>
</mask>
<path d="M672 278V279H673V278H672ZM671 182V278H673V182H671ZM672 277H576V279H672V277Z" fill="#333741" mask="url(#path-77-inside-38_558_2032)"/>
<mask id="path-79-inside-39_558_2032" fill="white">
<path d="M672 182H768V278H672V182Z"/>
</mask>
<path d="M768 278V279H769V278H768ZM767 182V278H769V182H767ZM768 277H672V279H768V277Z" fill="#333741" mask="url(#path-79-inside-39_558_2032)"/>
<mask id="path-81-inside-40_558_2032" fill="white">
<path d="M768 182H864V278H768V182Z"/>
</mask>
<path d="M864 278V279H865V278H864ZM863 182V278H865V182H863ZM864 277H768V279H864V277Z" fill="#333741" mask="url(#path-81-inside-40_558_2032)"/>
<mask id="path-83-inside-41_558_2032" fill="white">
<path d="M864 182H960V278H864V182Z"/>
</mask>
<path d="M960 278V279H961V278H960ZM959 182V278H961V182H959ZM960 277H864V279H960V277Z" fill="#333741" mask="url(#path-83-inside-41_558_2032)"/>
<mask id="path-85-inside-42_558_2032" fill="white">
<path d="M960 182H1056V278H960V182Z"/>
</mask>
<path d="M960 182H1056V278H960V182Z" fill="#1F242F"/>
<path d="M1056 278V279H1057V278H1056ZM1055 182V278H1057V182H1055ZM1056 277H960V279H1056V277Z" fill="#333741" mask="url(#path-85-inside-42_558_2032)"/>
<mask id="path-87-inside-43_558_2032" fill="white">
<path d="M1056 182H1152V278H1056V182Z"/>
</mask>
<path d="M1152 278V279H1153V278H1152ZM1151 182V278H1153V182H1151ZM1152 277H1056V279H1152V277Z" fill="#333741" mask="url(#path-87-inside-43_558_2032)"/>
<mask id="path-89-inside-44_558_2032" fill="white">
<path d="M1152 182H1248V278H1152V182Z"/>
</mask>
<path d="M1248 278V279H1249V278H1248ZM1247 182V278H1249V182H1247ZM1248 277H1152V279H1248V277Z" fill="#333741" mask="url(#path-89-inside-44_558_2032)"/>
<mask id="path-91-inside-45_558_2032" fill="white">
<path d="M1248 182H1344V278H1248V182Z"/>
</mask>
<path d="M1344 278V279H1345V278H1344ZM1343 182V278H1345V182H1343ZM1344 277H1248V279H1344V277Z" fill="#333741" mask="url(#path-91-inside-45_558_2032)"/>
<mask id="path-93-inside-46_558_2032" fill="white">
<path d="M1344 182H1440V278H1344V182Z"/>
</mask>
<path d="M1440 278V279H1441V278H1440ZM1439 182V278H1441V182H1439ZM1440 277H1344V279H1440V277Z" fill="#333741" mask="url(#path-93-inside-46_558_2032)"/>
<mask id="path-95-inside-47_558_2032" fill="white">
<path d="M1440 182H1536V278H1440V182Z"/>
</mask>
<path d="M1536 278V279H1537V278H1536ZM1535 182V278H1537V182H1535ZM1536 277H1440V279H1536V277Z" fill="#333741" mask="url(#path-95-inside-47_558_2032)"/>
<mask id="path-97-inside-48_558_2032" fill="white">
<path d="M1536 182H1632V278H1536V182Z"/>
</mask>
<path d="M1632 278V279H1633V278H1632ZM1631 182V278H1633V182H1631ZM1632 277H1536V279H1632V277Z" fill="#333741" mask="url(#path-97-inside-48_558_2032)"/>
<mask id="path-99-inside-49_558_2032" fill="white">
<path d="M96 278H192V374H96V278Z"/>
</mask>
<path d="M192 374V375H193V374H192ZM191 278V374H193V278H191ZM192 373H96V375H192V373Z" fill="#333741" mask="url(#path-99-inside-49_558_2032)"/>
<mask id="path-101-inside-50_558_2032" fill="white">
<path d="M192 278H288V374H192V278Z"/>
</mask>
<path d="M192 278H288V374H192V278Z" fill="#1F242F"/>
<path d="M288 374V375H289V374H288ZM287 278V374H289V278H287ZM288 373H192V375H288V373Z" fill="#333741" mask="url(#path-101-inside-50_558_2032)"/>
<mask id="path-103-inside-51_558_2032" fill="white">
<path d="M288 278H384V374H288V278Z"/>
</mask>
<path d="M384 374V375H385V374H384ZM383 278V374H385V278H383ZM384 373H288V375H384V373Z" fill="#333741" mask="url(#path-103-inside-51_558_2032)"/>
<mask id="path-105-inside-52_558_2032" fill="white">
<path d="M384 278H480V374H384V278Z"/>
</mask>
<path d="M480 374V375H481V374H480ZM479 278V374H481V278H479ZM480 373H384V375H480V373Z" fill="#333741" mask="url(#path-105-inside-52_558_2032)"/>
<mask id="path-107-inside-53_558_2032" fill="white">
<path d="M480 278H576V374H480V278Z"/>
</mask>
<path d="M576 374V375H577V374H576ZM575 278V374H577V278H575ZM576 373H480V375H576V373Z" fill="#333741" mask="url(#path-107-inside-53_558_2032)"/>
<mask id="path-109-inside-54_558_2032" fill="white">
<path d="M576 278H672V374H576V278Z"/>
</mask>
<path d="M672 374V375H673V374H672ZM671 278V374H673V278H671ZM672 373H576V375H672V373Z" fill="#333741" mask="url(#path-109-inside-54_558_2032)"/>
<mask id="path-111-inside-55_558_2032" fill="white">
<path d="M672 278H768V374H672V278Z"/>
</mask>
<path d="M768 374V375H769V374H768ZM767 278V374H769V278H767ZM768 373H672V375H768V373Z" fill="#333741" mask="url(#path-111-inside-55_558_2032)"/>
<mask id="path-113-inside-56_558_2032" fill="white">
<path d="M768 278H864V374H768V278Z"/>
</mask>
<path d="M864 374V375H865V374H864ZM863 278V374H865V278H863ZM864 373H768V375H864V373Z" fill="#333741" mask="url(#path-113-inside-56_558_2032)"/>
<mask id="path-115-inside-57_558_2032" fill="white">
<path d="M864 278H960V374H864V278Z"/>
</mask>
<path d="M960 374V375H961V374H960ZM959 278V374H961V278H959ZM960 373H864V375H960V373Z" fill="#333741" mask="url(#path-115-inside-57_558_2032)"/>
<mask id="path-117-inside-58_558_2032" fill="white">
<path d="M960 278H1056V374H960V278Z"/>
</mask>
<path d="M1056 374V375H1057V374H1056ZM1055 278V374H1057V278H1055ZM1056 373H960V375H1056V373Z" fill="#333741" mask="url(#path-117-inside-58_558_2032)"/>
<mask id="path-119-inside-59_558_2032" fill="white">
<path d="M1056 278H1152V374H1056V278Z"/>
</mask>
<path d="M1152 374V375H1153V374H1152ZM1151 278V374H1153V278H1151ZM1152 373H1056V375H1152V373Z" fill="#333741" mask="url(#path-119-inside-59_558_2032)"/>
<mask id="path-121-inside-60_558_2032" fill="white">
<path d="M1152 278H1248V374H1152V278Z"/>
</mask>
<path d="M1248 374V375H1249V374H1248ZM1247 278V374H1249V278H1247ZM1248 373H1152V375H1248V373Z" fill="#333741" mask="url(#path-121-inside-60_558_2032)"/>
<mask id="path-123-inside-61_558_2032" fill="white">
<path d="M1248 278H1344V374H1248V278Z"/>
</mask>
<path d="M1344 374V375H1345V374H1344ZM1343 278V374H1345V278H1343ZM1344 373H1248V375H1344V373Z" fill="#333741" mask="url(#path-123-inside-61_558_2032)"/>
<mask id="path-125-inside-62_558_2032" fill="white">
<path d="M1344 278H1440V374H1344V278Z"/>
</mask>
<path d="M1440 374V375H1441V374H1440ZM1439 278V374H1441V278H1439ZM1440 373H1344V375H1440V373Z" fill="#333741" mask="url(#path-125-inside-62_558_2032)"/>
<mask id="path-127-inside-63_558_2032" fill="white">
<path d="M1440 278H1536V374H1440V278Z"/>
</mask>
<path d="M1440 278H1536V374H1440V278Z" fill="#1F242F"/>
<path d="M1536 374V375H1537V374H1536ZM1535 278V374H1537V278H1535ZM1536 373H1440V375H1536V373Z" fill="#333741" mask="url(#path-127-inside-63_558_2032)"/>
<mask id="path-129-inside-64_558_2032" fill="white">
<path d="M1536 278H1632V374H1536V278Z"/>
</mask>
<path d="M1632 374V375H1633V374H1632ZM1631 278V374H1633V278H1631ZM1632 373H1536V375H1632V373Z" fill="#333741" mask="url(#path-129-inside-64_558_2032)"/>
<mask id="path-131-inside-65_558_2032" fill="white">
<path d="M96 374H192V470H96V374Z"/>
</mask>
<path d="M192 470V471H193V470H192ZM191 374V470H193V374H191ZM192 469H96V471H192V469Z" fill="#333741" mask="url(#path-131-inside-65_558_2032)"/>
<mask id="path-133-inside-66_558_2032" fill="white">
<path d="M192 374H288V470H192V374Z"/>
</mask>
<path d="M288 470V471H289V470H288ZM287 374V470H289V374H287ZM288 469H192V471H288V469Z" fill="#333741" mask="url(#path-133-inside-66_558_2032)"/>
<mask id="path-135-inside-67_558_2032" fill="white">
<path d="M288 374H384V470H288V374Z"/>
</mask>
<path d="M384 470V471H385V470H384ZM383 374V470H385V374H383ZM384 469H288V471H384V469Z" fill="#333741" mask="url(#path-135-inside-67_558_2032)"/>
<mask id="path-137-inside-68_558_2032" fill="white">
<path d="M384 374H480V470H384V374Z"/>
</mask>
<path d="M480 470V471H481V470H480ZM479 374V470H481V374H479ZM480 469H384V471H480V469Z" fill="#333741" mask="url(#path-137-inside-68_558_2032)"/>
<mask id="path-139-inside-69_558_2032" fill="white">
<path d="M480 374H576V470H480V374Z"/>
</mask>
<path d="M576 470V471H577V470H576ZM575 374V470H577V374H575ZM576 469H480V471H576V469Z" fill="#333741" mask="url(#path-139-inside-69_558_2032)"/>
<mask id="path-141-inside-70_558_2032" fill="white">
<path d="M576 374H672V470H576V374Z"/>
</mask>
<path d="M672 470V471H673V470H672ZM671 374V470H673V374H671ZM672 469H576V471H672V469Z" fill="#333741" mask="url(#path-141-inside-70_558_2032)"/>
<mask id="path-143-inside-71_558_2032" fill="white">
<path d="M672 374H768V470H672V374Z"/>
</mask>
<path d="M672 374H768V470H672V374Z" fill="#1F242F"/>
<path d="M768 470V471H769V470H768ZM767 374V470H769V374H767ZM768 469H672V471H768V469Z" fill="#333741" mask="url(#path-143-inside-71_558_2032)"/>
<mask id="path-145-inside-72_558_2032" fill="white">
<path d="M768 374H864V470H768V374Z"/>
</mask>
<path d="M864 470V471H865V470H864ZM863 374V470H865V374H863ZM864 469H768V471H864V469Z" fill="#333741" mask="url(#path-145-inside-72_558_2032)"/>
<mask id="path-147-inside-73_558_2032" fill="white">
<path d="M864 374H960V470H864V374Z"/>
</mask>
<path d="M960 470V471H961V470H960ZM959 374V470H961V374H959ZM960 469H864V471H960V469Z" fill="#333741" mask="url(#path-147-inside-73_558_2032)"/>
<mask id="path-149-inside-74_558_2032" fill="white">
<path d="M960 374H1056V470H960V374Z"/>
</mask>
<path d="M1056 470V471H1057V470H1056ZM1055 374V470H1057V374H1055ZM1056 469H960V471H1056V469Z" fill="#333741" mask="url(#path-149-inside-74_558_2032)"/>
<mask id="path-151-inside-75_558_2032" fill="white">
<path d="M1056 374H1152V470H1056V374Z"/>
</mask>
<path d="M1152 470V471H1153V470H1152ZM1151 374V470H1153V374H1151ZM1152 469H1056V471H1152V469Z" fill="#333741" mask="url(#path-151-inside-75_558_2032)"/>
<mask id="path-153-inside-76_558_2032" fill="white">
<path d="M1152 374H1248V470H1152V374Z"/>
</mask>
<path d="M1248 470V471H1249V470H1248ZM1247 374V470H1249V374H1247ZM1248 469H1152V471H1248V469Z" fill="#333741" mask="url(#path-153-inside-76_558_2032)"/>
<mask id="path-155-inside-77_558_2032" fill="white">
<path d="M1248 374H1344V470H1248V374Z"/>
</mask>
<path d="M1248 374H1344V470H1248V374Z" fill="#1F242F"/>
<path d="M1344 470V471H1345V470H1344ZM1343 374V470H1345V374H1343ZM1344 469H1248V471H1344V469Z" fill="#333741" mask="url(#path-155-inside-77_558_2032)"/>
<mask id="path-157-inside-78_558_2032" fill="white">
<path d="M1344 374H1440V470H1344V374Z"/>
</mask>
<path d="M1440 470V471H1441V470H1440ZM1439 374V470H1441V374H1439ZM1440 469H1344V471H1440V469Z" fill="#333741" mask="url(#path-157-inside-78_558_2032)"/>
<mask id="path-159-inside-79_558_2032" fill="white">
<path d="M1440 374H1536V470H1440V374Z"/>
</mask>
<path d="M1536 470V471H1537V470H1536ZM1535 374V470H1537V374H1535ZM1536 469H1440V471H1536V469Z" fill="#333741" mask="url(#path-159-inside-79_558_2032)"/>
<mask id="path-161-inside-80_558_2032" fill="white">
<path d="M1536 374H1632V470H1536V374Z"/>
</mask>
<path d="M1632 470V471H1633V470H1632ZM1631 374V470H1633V374H1631ZM1632 469H1536V471H1632V469Z" fill="#333741" mask="url(#path-161-inside-80_558_2032)"/>
<mask id="path-163-inside-81_558_2032" fill="white">
<path d="M96 470H192V566H96V470Z"/>
</mask>
<path d="M192 566V567H193V566H192ZM191 470V566H193V470H191ZM192 565H96V567H192V565Z" fill="#333741" mask="url(#path-163-inside-81_558_2032)"/>
<mask id="path-165-inside-82_558_2032" fill="white">
<path d="M192 470H288V566H192V470Z"/>
</mask>
<path d="M288 566V567H289V566H288ZM287 470V566H289V470H287ZM288 565H192V567H288V565Z" fill="#333741" mask="url(#path-165-inside-82_558_2032)"/>
<mask id="path-167-inside-83_558_2032" fill="white">
<path d="M288 470H384V566H288V470Z"/>
</mask>
<path d="M384 566V567H385V566H384ZM383 470V566H385V470H383ZM384 565H288V567H384V565Z" fill="#333741" mask="url(#path-167-inside-83_558_2032)"/>
<mask id="path-169-inside-84_558_2032" fill="white">
<path d="M384 470H480V566H384V470Z"/>
</mask>
<path d="M384 470H480V566H384V470Z" fill="#1F242F"/>
<path d="M480 566V567H481V566H480ZM479 470V566H481V470H479ZM480 565H384V567H480V565Z" fill="#333741" mask="url(#path-169-inside-84_558_2032)"/>
<mask id="path-171-inside-85_558_2032" fill="white">
<path d="M480 470H576V566H480V470Z"/>
</mask>
<path d="M576 566V567H577V566H576ZM575 470V566H577V470H575ZM576 565H480V567H576V565Z" fill="#333741" mask="url(#path-171-inside-85_558_2032)"/>
<mask id="path-173-inside-86_558_2032" fill="white">
<path d="M576 470H672V566H576V470Z"/>
</mask>
<path d="M672 566V567H673V566H672ZM671 470V566H673V470H671ZM672 565H576V567H672V565Z" fill="#333741" mask="url(#path-173-inside-86_558_2032)"/>
<mask id="path-175-inside-87_558_2032" fill="white">
<path d="M672 470H768V566H672V470Z"/>
</mask>
<path d="M768 566V567H769V566H768ZM767 470V566H769V470H767ZM768 565H672V567H768V565Z" fill="#333741" mask="url(#path-175-inside-87_558_2032)"/>
<mask id="path-177-inside-88_558_2032" fill="white">
<path d="M768 470H864V566H768V470Z"/>
</mask>
<path d="M864 566V567H865V566H864ZM863 470V566H865V470H863ZM864 565H768V567H864V565Z" fill="#333741" mask="url(#path-177-inside-88_558_2032)"/>
<mask id="path-179-inside-89_558_2032" fill="white">
<path d="M864 470H960V566H864V470Z"/>
</mask>
<path d="M960 566V567H961V566H960ZM959 470V566H961V470H959ZM960 565H864V567H960V565Z" fill="#333741" mask="url(#path-179-inside-89_558_2032)"/>
<mask id="path-181-inside-90_558_2032" fill="white">
<path d="M960 470H1056V566H960V470Z"/>
</mask>
<path d="M960 470H1056V566H960V470Z" fill="#1F242F"/>
<path d="M1056 566V567H1057V566H1056ZM1055 470V566H1057V470H1055ZM1056 565H960V567H1056V565Z" fill="#333741" mask="url(#path-181-inside-90_558_2032)"/>
<mask id="path-183-inside-91_558_2032" fill="white">
<path d="M1056 470H1152V566H1056V470Z"/>
</mask>
<path d="M1152 566V567H1153V566H1152ZM1151 470V566H1153V470H1151ZM1152 565H1056V567H1152V565Z" fill="#333741" mask="url(#path-183-inside-91_558_2032)"/>
<mask id="path-185-inside-92_558_2032" fill="white">
<path d="M1152 470H1248V566H1152V470Z"/>
</mask>
<path d="M1248 566V567H1249V566H1248ZM1247 470V566H1249V470H1247ZM1248 565H1152V567H1248V565Z" fill="#333741" mask="url(#path-185-inside-92_558_2032)"/>
<mask id="path-187-inside-93_558_2032" fill="white">
<path d="M1248 470H1344V566H1248V470Z"/>
</mask>
<path d="M1344 566V567H1345V566H1344ZM1343 470V566H1345V470H1343ZM1344 565H1248V567H1344V565Z" fill="#333741" mask="url(#path-187-inside-93_558_2032)"/>
<mask id="path-189-inside-94_558_2032" fill="white">
<path d="M1344 470H1440V566H1344V470Z"/>
</mask>
<path d="M1440 566V567H1441V566H1440ZM1439 470V566H1441V470H1439ZM1440 565H1344V567H1440V565Z" fill="#333741" mask="url(#path-189-inside-94_558_2032)"/>
<mask id="path-191-inside-95_558_2032" fill="white">
<path d="M1440 470H1536V566H1440V470Z"/>
</mask>
<path d="M1536 566V567H1537V566H1536ZM1535 470V566H1537V470H1535ZM1536 565H1440V567H1536V565Z" fill="#333741" mask="url(#path-191-inside-95_558_2032)"/>
<mask id="path-193-inside-96_558_2032" fill="white">
<path d="M1536 470H1632V566H1536V470Z"/>
</mask>
<path d="M1632 566V567H1633V566H1632ZM1631 470V566H1633V470H1631ZM1632 565H1536V567H1632V565Z" fill="#333741" mask="url(#path-193-inside-96_558_2032)"/>
<mask id="path-195-inside-97_558_2032" fill="white">
<path d="M96 566H192V662H96V566Z"/>
</mask>
<path d="M192 662V663H193V662H192ZM191 566V662H193V566H191ZM192 661H96V663H192V661Z" fill="#333741" mask="url(#path-195-inside-97_558_2032)"/>
<mask id="path-197-inside-98_558_2032" fill="white">
<path d="M192 566H288V662H192V566Z"/>
</mask>
<path d="M288 662V663H289V662H288ZM287 566V662H289V566H287ZM288 661H192V663H288V661Z" fill="#333741" mask="url(#path-197-inside-98_558_2032)"/>
<mask id="path-199-inside-99_558_2032" fill="white">
<path d="M288 566H384V662H288V566Z"/>
</mask>
<path d="M384 662V663H385V662H384ZM383 566V662H385V566H383ZM384 661H288V663H384V661Z" fill="#333741" mask="url(#path-199-inside-99_558_2032)"/>
<mask id="path-201-inside-100_558_2032" fill="white">
<path d="M384 566H480V662H384V566Z"/>
</mask>
<path d="M480 662V663H481V662H480ZM479 566V662H481V566H479ZM480 661H384V663H480V661Z" fill="#333741" mask="url(#path-201-inside-100_558_2032)"/>
<mask id="path-203-inside-101_558_2032" fill="white">
<path d="M480 566H576V662H480V566Z"/>
</mask>
<path d="M576 662V663H577V662H576ZM575 566V662H577V566H575ZM576 661H480V663H576V661Z" fill="#333741" mask="url(#path-203-inside-101_558_2032)"/>
<mask id="path-205-inside-102_558_2032" fill="white">
<path d="M576 566H672V662H576V566Z"/>
</mask>
<path d="M672 662V663H673V662H672ZM671 566V662H673V566H671ZM672 661H576V663H672V661Z" fill="#333741" mask="url(#path-205-inside-102_558_2032)"/>
<mask id="path-207-inside-103_558_2032" fill="white">
<path d="M672 566H768V662H672V566Z"/>
</mask>
<path d="M768 662V663H769V662H768ZM767 566V662H769V566H767ZM768 661H672V663H768V661Z" fill="#333741" mask="url(#path-207-inside-103_558_2032)"/>
<mask id="path-209-inside-104_558_2032" fill="white">
<path d="M768 566H864V662H768V566Z"/>
</mask>
<path d="M864 662V663H865V662H864ZM863 566V662H865V566H863ZM864 661H768V663H864V661Z" fill="#333741" mask="url(#path-209-inside-104_558_2032)"/>
<mask id="path-211-inside-105_558_2032" fill="white">
<path d="M864 566H960V662H864V566Z"/>
</mask>
<path d="M960 662V663H961V662H960ZM959 566V662H961V566H959ZM960 661H864V663H960V661Z" fill="#333741" mask="url(#path-211-inside-105_558_2032)"/>
<mask id="path-213-inside-106_558_2032" fill="white">
<path d="M960 566H1056V662H960V566Z"/>
</mask>
<path d="M1056 662V663H1057V662H1056ZM1055 566V662H1057V566H1055ZM1056 661H960V663H1056V661Z" fill="#333741" mask="url(#path-213-inside-106_558_2032)"/>
<mask id="path-215-inside-107_558_2032" fill="white">
<path d="M1056 566H1152V662H1056V566Z"/>
</mask>
<path d="M1152 662V663H1153V662H1152ZM1151 566V662H1153V566H1151ZM1152 661H1056V663H1152V661Z" fill="#333741" mask="url(#path-215-inside-107_558_2032)"/>
<mask id="path-217-inside-108_558_2032" fill="white">
<path d="M1152 566H1248V662H1152V566Z"/>
</mask>
<path d="M1248 662V663H1249V662H1248ZM1247 566V662H1249V566H1247ZM1248 661H1152V663H1248V661Z" fill="#333741" mask="url(#path-217-inside-108_558_2032)"/>
<mask id="path-219-inside-109_558_2032" fill="white">
<path d="M1248 566H1344V662H1248V566Z"/>
</mask>
<path d="M1344 662V663H1345V662H1344ZM1343 566V662H1345V566H1343ZM1344 661H1248V663H1344V661Z" fill="#333741" mask="url(#path-219-inside-109_558_2032)"/>
<mask id="path-221-inside-110_558_2032" fill="white">
<path d="M1344 566H1440V662H1344V566Z"/>
</mask>
<path d="M1440 662V663H1441V662H1440ZM1439 566V662H1441V566H1439ZM1440 661H1344V663H1440V661Z" fill="#333741" mask="url(#path-221-inside-110_558_2032)"/>
<mask id="path-223-inside-111_558_2032" fill="white">
<path d="M1440 566H1536V662H1440V566Z"/>
</mask>
<path d="M1536 662V663H1537V662H1536ZM1535 566V662H1537V566H1535ZM1536 661H1440V663H1536V661Z" fill="#333741" mask="url(#path-223-inside-111_558_2032)"/>
<mask id="path-225-inside-112_558_2032" fill="white">
<path d="M1536 566H1632V662H1536V566Z"/>
</mask>
<path d="M1536 566H1632V662H1536V566Z" fill="#1F242F"/>
<path d="M1632 662V663H1633V662H1632ZM1631 566V662H1633V566H1631ZM1632 661H1536V663H1632V661Z" fill="#333741" mask="url(#path-225-inside-112_558_2032)"/>
<mask id="path-227-inside-113_558_2032" fill="white">
<path d="M96 662H192V758H96V662Z"/>
</mask>
<path d="M192 758V759H193V758H192ZM191 662V758H193V662H191ZM192 757H96V759H192V757Z" fill="#333741" mask="url(#path-227-inside-113_558_2032)"/>
<mask id="path-229-inside-114_558_2032" fill="white">
<path d="M192 662H288V758H192V662Z"/>
</mask>
<path d="M288 758V759H289V758H288ZM287 662V758H289V662H287ZM288 757H192V759H288V757Z" fill="#333741" mask="url(#path-229-inside-114_558_2032)"/>
<mask id="path-231-inside-115_558_2032" fill="white">
<path d="M288 662H384V758H288V662Z"/>
</mask>
<path d="M384 758V759H385V758H384ZM383 662V758H385V662H383ZM384 757H288V759H384V757Z" fill="#333741" mask="url(#path-231-inside-115_558_2032)"/>
<mask id="path-233-inside-116_558_2032" fill="white">
<path d="M384 662H480V758H384V662Z"/>
</mask>
<path d="M480 758V759H481V758H480ZM479 662V758H481V662H479ZM480 757H384V759H480V757Z" fill="#333741" mask="url(#path-233-inside-116_558_2032)"/>
<mask id="path-235-inside-117_558_2032" fill="white">
<path d="M480 662H576V758H480V662Z"/>
</mask>
<path d="M480 662H576V758H480V662Z" fill="#1F242F"/>
<path d="M576 758V759H577V758H576ZM575 662V758H577V662H575ZM576 757H480V759H576V757Z" fill="#333741" mask="url(#path-235-inside-117_558_2032)"/>
<mask id="path-237-inside-118_558_2032" fill="white">
<path d="M576 662H672V758H576V662Z"/>
</mask>
<path d="M672 758V759H673V758H672ZM671 662V758H673V662H671ZM672 757H576V759H672V757Z" fill="#333741" mask="url(#path-237-inside-118_558_2032)"/>
<mask id="path-239-inside-119_558_2032" fill="white">
<path d="M672 662H768V758H672V662Z"/>
</mask>
<path d="M768 758V759H769V758H768ZM767 662V758H769V662H767ZM768 757H672V759H768V757Z" fill="#333741" mask="url(#path-239-inside-119_558_2032)"/>
<mask id="path-241-inside-120_558_2032" fill="white">
<path d="M768 662H864V758H768V662Z"/>
</mask>
<path d="M864 758V759H865V758H864ZM863 662V758H865V662H863ZM864 757H768V759H864V757Z" fill="#333741" mask="url(#path-241-inside-120_558_2032)"/>
<mask id="path-243-inside-121_558_2032" fill="white">
<path d="M864 662H960V758H864V662Z"/>
</mask>
<path d="M864 662H960V758H864V662Z" fill="#1F242F"/>
<path d="M960 758V759H961V758H960ZM959 662V758H961V662H959ZM960 757H864V759H960V757Z" fill="#333741" mask="url(#path-243-inside-121_558_2032)"/>
<mask id="path-245-inside-122_558_2032" fill="white">
<path d="M960 662H1056V758H960V662Z"/>
</mask>
<path d="M1056 758V759H1057V758H1056ZM1055 662V758H1057V662H1055ZM1056 757H960V759H1056V757Z" fill="#333741" mask="url(#path-245-inside-122_558_2032)"/>
<mask id="path-247-inside-123_558_2032" fill="white">
<path d="M1056 662H1152V758H1056V662Z"/>
</mask>
<path d="M1152 758V759H1153V758H1152ZM1151 662V758H1153V662H1151ZM1152 757H1056V759H1152V757Z" fill="#333741" mask="url(#path-247-inside-123_558_2032)"/>
<mask id="path-249-inside-124_558_2032" fill="white">
<path d="M1152 662H1248V758H1152V662Z"/>
</mask>
<path d="M1248 758V759H1249V758H1248ZM1247 662V758H1249V662H1247ZM1248 757H1152V759H1248V757Z" fill="#333741" mask="url(#path-249-inside-124_558_2032)"/>
<mask id="path-251-inside-125_558_2032" fill="white">
<path d="M1248 662H1344V758H1248V662Z"/>
</mask>
<path d="M1344 758V759H1345V758H1344ZM1343 662V758H1345V662H1343ZM1344 757H1248V759H1344V757Z" fill="#333741" mask="url(#path-251-inside-125_558_2032)"/>
<mask id="path-253-inside-126_558_2032" fill="white">
<path d="M1344 662H1440V758H1344V662Z"/>
</mask>
<path d="M1440 758V759H1441V758H1440ZM1439 662V758H1441V662H1439ZM1440 757H1344V759H1440V757Z" fill="#333741" mask="url(#path-253-inside-126_558_2032)"/>
<mask id="path-255-inside-127_558_2032" fill="white">
<path d="M1440 662H1536V758H1440V662Z"/>
</mask>
<path d="M1536 758V759H1537V758H1536ZM1535 662V758H1537V662H1535ZM1536 757H1440V759H1536V757Z" fill="#333741" mask="url(#path-255-inside-127_558_2032)"/>
<mask id="path-257-inside-128_558_2032" fill="white">
<path d="M1536 662H1632V758H1536V662Z"/>
</mask>
<path d="M1632 758V759H1633V758H1632ZM1631 662V758H1633V662H1631ZM1632 757H1536V759H1632V757Z" fill="#333741" mask="url(#path-257-inside-128_558_2032)"/>
<mask id="path-259-inside-129_558_2032" fill="white">
<path d="M96 758H192V854H96V758Z"/>
</mask>
<path d="M96 758H192V854H96V758Z" fill="#1F242F"/>
<path d="M192 854V855H193V854H192ZM191 758V854H193V758H191ZM192 853H96V855H192V853Z" fill="#333741" mask="url(#path-259-inside-129_558_2032)"/>
<mask id="path-261-inside-130_558_2032" fill="white">
<path d="M192 758H288V854H192V758Z"/>
</mask>
<path d="M288 854V855H289V854H288ZM287 758V854H289V758H287ZM288 853H192V855H288V853Z" fill="#333741" mask="url(#path-261-inside-130_558_2032)"/>
<mask id="path-263-inside-131_558_2032" fill="white">
<path d="M288 758H384V854H288V758Z"/>
</mask>
<path d="M384 854V855H385V854H384ZM383 758V854H385V758H383ZM384 853H288V855H384V853Z" fill="#333741" mask="url(#path-263-inside-131_558_2032)"/>
<mask id="path-265-inside-132_558_2032" fill="white">
<path d="M384 758H480V854H384V758Z"/>
</mask>
<path d="M480 854V855H481V854H480ZM479 758V854H481V758H479ZM480 853H384V855H480V853Z" fill="#333741" mask="url(#path-265-inside-132_558_2032)"/>
<mask id="path-267-inside-133_558_2032" fill="white">
<path d="M480 758H576V854H480V758Z"/>
</mask>
<path d="M576 854V855H577V854H576ZM575 758V854H577V758H575ZM576 853H480V855H576V853Z" fill="#333741" mask="url(#path-267-inside-133_558_2032)"/>
<mask id="path-269-inside-134_558_2032" fill="white">
<path d="M576 758H672V854H576V758Z"/>
</mask>
<path d="M672 854V855H673V854H672ZM671 758V854H673V758H671ZM672 853H576V855H672V853Z" fill="#333741" mask="url(#path-269-inside-134_558_2032)"/>
<mask id="path-271-inside-135_558_2032" fill="white">
<path d="M672 758H768V854H672V758Z"/>
</mask>
<path d="M768 854V855H769V854H768ZM767 758V854H769V758H767ZM768 853H672V855H768V853Z" fill="#333741" mask="url(#path-271-inside-135_558_2032)"/>
<mask id="path-273-inside-136_558_2032" fill="white">
<path d="M768 758H864V854H768V758Z"/>
</mask>
<path d="M864 854V855H865V854H864ZM863 758V854H865V758H863ZM864 853H768V855H864V853Z" fill="#333741" mask="url(#path-273-inside-136_558_2032)"/>
<mask id="path-275-inside-137_558_2032" fill="white">
<path d="M864 758H960V854H864V758Z"/>
</mask>
<path d="M960 854V855H961V854H960ZM959 758V854H961V758H959ZM960 853H864V855H960V853Z" fill="#333741" mask="url(#path-275-inside-137_558_2032)"/>
<mask id="path-277-inside-138_558_2032" fill="white">
<path d="M960 758H1056V854H960V758Z"/>
</mask>
<path d="M1056 854V855H1057V854H1056ZM1055 758V854H1057V758H1055ZM1056 853H960V855H1056V853Z" fill="#333741" mask="url(#path-277-inside-138_558_2032)"/>
<mask id="path-279-inside-139_558_2032" fill="white">
<path d="M1056 758H1152V854H1056V758Z"/>
</mask>
<path d="M1152 854V855H1153V854H1152ZM1151 758V854H1153V758H1151ZM1152 853H1056V855H1152V853Z" fill="#333741" mask="url(#path-279-inside-139_558_2032)"/>
<mask id="path-281-inside-140_558_2032" fill="white">
<path d="M1152 758H1248V854H1152V758Z"/>
</mask>
<path d="M1248 854V855H1249V854H1248ZM1247 758V854H1249V758H1247ZM1248 853H1152V855H1248V853Z" fill="#333741" mask="url(#path-281-inside-140_558_2032)"/>
<mask id="path-283-inside-141_558_2032" fill="white">
<path d="M1248 758H1344V854H1248V758Z"/>
</mask>
<path d="M1248 758H1344V854H1248V758Z" fill="#1F242F"/>
<path d="M1344 854V855H1345V854H1344ZM1343 758V854H1345V758H1343ZM1344 853H1248V855H1344V853Z" fill="#333741" mask="url(#path-283-inside-141_558_2032)"/>
<mask id="path-285-inside-142_558_2032" fill="white">
<path d="M1344 758H1440V854H1344V758Z"/>
</mask>
<path d="M1440 854V855H1441V854H1440ZM1439 758V854H1441V758H1439ZM1440 853H1344V855H1440V853Z" fill="#333741" mask="url(#path-285-inside-142_558_2032)"/>
<mask id="path-287-inside-143_558_2032" fill="white">
<path d="M1440 758H1536V854H1440V758Z"/>
</mask>
<path d="M1536 854V855H1537V854H1536ZM1535 758V854H1537V758H1535ZM1536 853H1440V855H1536V853Z" fill="#333741" mask="url(#path-287-inside-143_558_2032)"/>
<mask id="path-289-inside-144_558_2032" fill="white">
<path d="M1536 758H1632V854H1536V758Z"/>
</mask>
<path d="M1632 854V855H1633V854H1632ZM1631 758V854H1633V758H1631ZM1632 853H1536V855H1632V853Z" fill="#333741" mask="url(#path-289-inside-144_558_2032)"/>
</g>
<rect x="-95.5" y="-297.5" width="1919" height="1439" stroke="#333741"/>
</g>
<defs>
<radialGradient id="paint0_radial_558_2032" cx="0" cy="0" r="1" gradientUnits="userSpaceOnUse" gradientTransform="translate(720 -0.000171661) rotate(90) scale(1440 751.588)">
<stop/>
<stop offset="0.953125" stop-opacity="0"/>
</radialGradient>
<clipPath id="clip0_558_2032">
<rect x="-96" y="-298" width="1920" height="1440" fill="white"/>
</clipPath>
</defs>
</svg>
