<svg width="246" height="129" viewBox="0 0 246 129" fill="none" xmlns="http://www.w3.org/2000/svg">
<path d="M4.12957 10.1311C2.22823 10.1311 1.00125 8.66999 1.00125 6.65625C1.00125 4.63314 2.23759 3.172 4.13894 3.172C5.8155 3.172 6.85515 4.23976 7.01438 5.57913H5.93726C5.8155 4.92349 5.40338 4.0618 4.12021 4.0618C2.64034 4.0618 2.07837 5.31688 2.07837 6.64688C2.07837 7.98626 2.64034 9.24133 4.12021 9.24133C5.41275 9.24133 5.8717 8.37964 5.93726 7.56478H7.01438C6.86452 9.05401 5.8155 10.1311 4.12957 10.1311ZM9.08549 10.1311C8.13013 10.1311 7.52133 9.57852 7.52133 8.76366C7.52133 7.6959 8.32682 7.37745 9.51634 7.15266C10.2656 7.01217 10.7246 6.9185 10.7246 6.45019C10.7246 6.10364 10.5185 5.81329 9.81606 5.81329C8.98246 5.81329 8.72957 6.07554 8.68274 6.71245H7.74612C7.79295 5.79455 8.39239 5.07335 9.85352 5.07335C10.837 5.07335 11.6237 5.48547 11.6237 6.72181V8.91352C11.6237 9.26007 11.6706 9.43803 11.8485 9.43803C11.8766 9.43803 11.9047 9.43803 11.9609 9.42866V9.99063C11.8017 10.0281 11.6425 10.0468 11.4926 10.0468C11.0337 10.0468 10.7901 9.86887 10.734 9.32563H10.7152C10.4061 9.82204 9.86289 10.1311 9.08549 10.1311ZM9.29155 9.39119C10.1158 9.39119 10.7246 8.96971 10.7246 8.13612V7.45238C10.5747 7.59287 10.1626 7.6959 9.67556 7.79893C8.8326 7.96752 8.47669 8.20168 8.47669 8.69809C8.47669 9.14767 8.72021 9.39119 9.29155 9.39119ZM14.9605 5.11082C15.1291 5.11082 15.2602 5.12018 15.4007 5.13892V6.01934C15.2883 6.00061 15.204 5.99125 15.0916 5.99125C14.258 5.99125 13.6586 6.61878 13.6586 7.52731V10H12.7407V5.22321H13.6586V6.13174H13.6773C13.9302 5.5323 14.3142 5.11082 14.9605 5.11082ZM19.2046 5.80392V3.30313H20.1224V10H19.2046V9.43803H19.1858C18.9236 9.77521 18.4646 10.1311 17.7153 10.1311C16.4977 10.1311 15.5704 9.18514 15.5704 7.61161C15.5704 6.03808 16.4977 5.08272 17.7153 5.08272C18.4646 5.08272 18.9236 5.42927 19.1858 5.80392H19.2046ZM17.8652 9.37246C18.6894 9.37246 19.1952 8.68873 19.1952 7.61161C19.1952 6.52512 18.6894 5.85075 17.8652 5.85075C16.966 5.85075 16.5258 6.67498 16.5258 7.61161C16.5258 8.54823 16.966 9.37246 17.8652 9.37246ZM24.0965 4.37088H23.0569V3.37806H24.0965V4.37088ZM24.031 10H23.1131V5.22321H24.031V10ZM27.5715 5.08272C28.4519 5.08272 29.1637 5.5885 29.1637 6.68435V10H28.2458V6.93724C28.2458 6.30033 27.9648 5.86948 27.2717 5.86948C26.485 5.86948 25.9792 6.34716 25.9792 7.06836V10H25.0613V5.22321H25.9792V5.82265H25.9979C26.2508 5.45737 26.7472 5.08272 27.5715 5.08272ZM31.8437 4.0056C31.4597 4.0056 31.3473 4.118 31.3473 4.62377V5.22321H32.2371V5.98188H31.3473V10H30.4201V5.98188H29.7644V5.22321H30.4201V4.64251C30.4201 3.53729 30.879 3.23757 31.6564 3.23757C31.8344 3.23757 31.9748 3.2563 32.2371 3.29377V4.0337C32.0498 4.01497 31.9748 4.0056 31.8437 4.0056ZM34.8526 10.1405C33.3634 10.1405 32.4642 9.11021 32.4642 7.61161C32.4642 6.12237 33.3634 5.07335 34.862 5.07335C36.3419 5.07335 37.241 6.11301 37.241 7.60224C37.241 9.10084 36.3419 10.1405 34.8526 10.1405ZM34.862 9.38183C35.8361 9.38183 36.2857 8.60443 36.2857 7.61161C36.2857 6.60942 35.8361 5.84139 34.862 5.84139C33.8692 5.84139 33.4196 6.60942 33.4196 7.61161C33.4196 8.60443 33.8692 9.38183 34.862 9.38183ZM40.242 5.11082C40.4106 5.11082 40.5417 5.12018 40.6822 5.13892V6.01934C40.5698 6.00061 40.4855 5.99125 40.3732 5.99125C39.5396 5.99125 38.9401 6.61878 38.9401 7.52731V10H38.0222V5.22321H38.9401V6.13174H38.9588C39.2117 5.5323 39.5958 5.11082 40.242 5.11082ZM46.4767 5.08272C47.4415 5.08272 47.9285 5.66343 47.9285 6.68435V10H47.0106V6.93724C47.0106 6.30033 46.8795 5.86948 46.177 5.86948C45.4933 5.86948 45.0624 6.34716 45.0624 7.06836V10H44.1445V6.93724C44.1445 6.30033 44.0134 5.86948 43.3109 5.86948C42.6272 5.86948 42.1964 6.34716 42.1964 7.06836V10H41.2785V5.22321H42.1964V5.82265H42.2151C42.468 5.45737 42.9082 5.08272 43.6294 5.08272C44.2944 5.08272 44.7065 5.38244 44.8938 5.91632H44.9126C45.2591 5.45737 45.7462 5.08272 46.4767 5.08272ZM50.2549 10.1311C49.2996 10.1311 48.6907 9.57852 48.6907 8.76366C48.6907 7.6959 49.4962 7.37745 50.6858 7.15266C51.4351 7.01217 51.894 6.9185 51.894 6.45019C51.894 6.10364 51.6879 5.81329 50.9855 5.81329C50.1519 5.81329 49.899 6.07554 49.8522 6.71245H48.9155C48.9624 5.79455 49.5618 5.07335 51.0229 5.07335C52.0064 5.07335 52.7932 5.48547 52.7932 6.72181V8.91352C52.7932 9.26007 52.84 9.43803 53.018 9.43803C53.0461 9.43803 53.0742 9.43803 53.1304 9.42866V9.99063C52.9711 10.0281 52.8119 10.0468 52.662 10.0468C52.2031 10.0468 51.9596 9.86887 51.9034 9.32563H51.8846C51.5756 9.82204 51.0323 10.1311 50.2549 10.1311ZM50.461 9.39119C51.2852 9.39119 51.894 8.96971 51.894 8.13612V7.45238C51.7441 7.59287 51.332 7.6959 50.845 7.79893C50.002 7.96752 49.6461 8.20168 49.6461 8.69809C49.6461 9.14767 49.8896 9.39119 50.461 9.39119ZM55.5795 9.29753C55.7387 9.29753 55.8136 9.28817 55.9729 9.26007V10C55.7387 10.0468 55.5888 10.0562 55.3922 10.0562C54.6054 10.0562 54.1277 9.75648 54.1277 8.65126V5.98188H53.4346V5.22321H54.1277V3.68715H55.0456V5.22321H55.9635V5.98188H55.0456V8.67936C55.0456 9.18514 55.1861 9.29753 55.5795 9.29753ZM57.7107 4.37088H56.6711V3.37806H57.7107V4.37088ZM57.6452 10H56.7273V5.22321H57.6452V10ZM60.811 10.1405C59.3218 10.1405 58.4226 9.11021 58.4226 7.61161C58.4226 6.12237 59.3218 5.07335 60.8204 5.07335C62.3003 5.07335 63.1994 6.11301 63.1994 7.60224C63.1994 9.10084 62.3003 10.1405 60.811 10.1405ZM60.8204 9.38183C61.7945 9.38183 62.2441 8.60443 62.2441 7.61161C62.2441 6.60942 61.7945 5.84139 60.8204 5.84139C59.8276 5.84139 59.378 6.60942 59.378 7.61161C59.378 8.60443 59.8276 9.38183 60.8204 9.38183ZM66.4908 5.08272C67.3712 5.08272 68.0831 5.5885 68.0831 6.68435V10H67.1652V6.93724C67.1652 6.30033 66.8842 5.86948 66.1911 5.86948C65.4043 5.86948 64.8985 6.34716 64.8985 7.06836V10H63.9806V5.22321H64.8985V5.82265H64.9173C65.1701 5.45737 65.6666 5.08272 66.4908 5.08272Z" fill="#6E7474"/>
<path d="M0.956758 20.7244C0.956758 18.9892 2.36343 17.5825 4.09864 17.5825H242.229C243.965 17.5825 245.371 18.9892 245.371 20.7244V45.7354H0.956758V20.7244Z" fill="white"/>
<path d="M0.956758 20.7244C0.956758 18.9892 2.36343 17.5825 4.09864 17.5825H242.229C243.965 17.5825 245.371 18.9892 245.371 20.7244V45.7354H0.956758V20.7244Z" stroke="#CBD5E0" stroke-width="0.585391"/>
<path d="M11.3041 34.1589V29.354C11.0231 29.6163 10.5267 29.6631 9.94598 29.6631V28.8389C11.0887 28.8108 11.4258 28.4643 11.5101 27.6869H12.3156V34.1589H11.3041ZM17.8775 34.1589H13.2787C13.2787 32.9413 14.0186 32.0984 15.255 31.3303C16.3508 30.6653 16.9034 30.3937 16.9034 29.532C16.9034 28.9981 16.688 28.4268 15.8076 28.4268C14.796 28.4268 14.4776 29.0824 14.4776 29.9722H13.4473C13.4473 28.5954 14.1966 27.5557 15.8357 27.5557C17.0064 27.5557 17.9524 28.2582 17.9524 29.4945C17.9524 30.7496 16.9315 31.3959 16.0043 31.9672C15.3674 32.3419 14.7679 32.6978 14.5806 33.2691V33.2879H17.8775V34.1589ZM21.2525 34.2901C19.5853 34.2901 18.6487 33.4284 18.6487 31.9485H19.679C19.679 32.8383 20.0536 33.419 21.1869 33.419C22.2079 33.419 22.5544 33.0069 22.5544 32.3138C22.5544 31.424 21.9175 31.2086 21.2619 31.2086H20.6531V30.375H21.2244C21.8707 30.375 22.3296 30.0846 22.3296 29.3821C22.3296 28.8764 22.0205 28.4268 21.2244 28.4268C20.1286 28.4268 19.8569 29.0075 19.8569 29.635H18.8266C18.8266 28.4362 19.6415 27.5557 21.2338 27.5557C22.3858 27.5557 23.3786 28.1926 23.3786 29.3353C23.3786 30.0284 23.0227 30.4593 22.4046 30.7215V30.7403C23.2569 31.0119 23.6034 31.5739 23.6034 32.3325C23.6034 33.5876 22.6762 34.2901 21.2525 34.2901ZM28.3199 34.1589H27.3084V32.6791H24.2269V31.7424L27.3084 27.6869H28.3199V31.808H29.2285V32.6791H28.3199V34.1589ZM27.3084 28.9888L25.1635 31.808H27.3084V28.9888ZM34.2097 34.2901C32.6643 34.2901 31.8213 33.3534 31.7838 32.267H32.8141C32.8797 32.857 33.2169 33.419 34.1535 33.419C34.9777 33.419 35.521 32.9132 35.521 31.9485C35.521 31.04 35.0246 30.6279 34.2191 30.6279C33.6945 30.6279 33.2169 30.8058 32.9078 31.2086H31.8681L32.5612 27.6869H36.2422V28.5579H33.3386L32.9827 30.3469V30.3656C33.3199 30.0191 33.7976 29.8036 34.4907 29.8036C35.7177 29.8036 36.57 30.7122 36.57 31.9485C36.57 33.3815 35.5397 34.2901 34.2097 34.2901ZM39.8393 34.2901C37.9848 34.2901 37.3198 32.9132 37.3198 30.9369C37.3198 28.8108 38.2471 27.5557 39.8487 27.5557C41.0663 27.5557 41.8624 28.3612 41.9748 29.326H40.9352C40.8509 28.7921 40.5418 28.3987 39.8487 28.3987C38.6404 28.3987 38.3313 29.5226 38.3313 30.6372V30.7309L38.3594 30.7403C38.6966 30.197 39.2867 29.8879 40.0266 29.8879C41.2817 29.8879 42.1528 30.7684 42.1528 32.0422C42.1528 33.2972 41.2724 34.2901 39.8393 34.2901ZM39.8112 33.4471C40.6635 33.4471 41.1225 32.9132 41.1225 32.0984C41.1225 31.246 40.6261 30.7403 39.8768 30.7403C38.987 30.7403 38.4437 31.3022 38.4437 32.1171C38.4437 32.9039 38.9308 33.4471 39.8112 33.4471ZM44.5767 34.1589H43.509C43.509 32.0141 44.839 29.5976 45.991 28.5767V28.5579H42.5443V27.6869H47.0963V28.4643C45.6258 29.6912 44.5767 32.089 44.5767 34.1589ZM50.0357 34.2901C48.6308 34.2901 47.5537 33.6438 47.5537 32.3325C47.5537 31.4427 48.1437 30.9931 48.7619 30.7215V30.7028C48.303 30.4593 47.8721 30.0472 47.8721 29.3166C47.8721 28.202 48.7806 27.5557 50.0357 27.5557C51.3002 27.5557 52.2087 28.202 52.2087 29.3166C52.2087 30.0472 51.7685 30.4593 51.3189 30.7028V30.7215C51.9277 30.9931 52.5271 31.4427 52.5271 32.3325C52.5271 33.6438 51.45 34.2901 50.0357 34.2901ZM50.0357 30.3188C50.7663 30.3188 51.1971 30.0097 51.1971 29.354C51.1971 28.7078 50.7663 28.38 50.0357 28.38C49.3145 28.38 48.8837 28.7078 48.8837 29.354C48.8837 30.0097 49.3145 30.3188 50.0357 30.3188ZM50.0357 33.4471C50.9349 33.4471 51.4688 33.0163 51.4688 32.2763C51.4688 31.5551 50.9349 31.1243 50.0357 31.1243C49.1366 31.1243 48.6027 31.5551 48.6027 32.2763C48.6027 33.0163 49.1366 33.4471 50.0357 33.4471ZM56.3243 34.1589V29.354C56.0433 29.6163 55.5469 29.6631 54.9662 29.6631V28.8389C56.1089 28.8108 56.446 28.4643 56.5303 27.6869H57.3358V34.1589H56.3243ZM62.8977 34.1589H58.2989C58.2989 32.9413 59.0388 32.0984 60.2752 31.3303C61.371 30.6653 61.9236 30.3937 61.9236 29.532C61.9236 28.9981 61.7082 28.4268 60.8278 28.4268C59.8162 28.4268 59.4978 29.0824 59.4978 29.9722H58.4675C58.4675 28.5954 59.2168 27.5557 60.8559 27.5557C62.0266 27.5557 62.9726 28.2582 62.9726 29.4945C62.9726 30.7496 61.9517 31.3959 61.0245 31.9672C60.3875 32.3419 59.7881 32.6978 59.6008 33.2691V33.2879H62.8977V34.1589ZM66.2727 34.2901C64.6055 34.2901 63.6689 33.4284 63.6689 31.9485H64.6992C64.6992 32.8383 65.0738 33.419 66.2071 33.419C67.2281 33.419 67.5746 33.0069 67.5746 32.3138C67.5746 31.424 66.9377 31.2086 66.2821 31.2086H65.6733V30.375H66.2446C66.8909 30.375 67.3498 30.0846 67.3498 29.3821C67.3498 28.8764 67.0407 28.4268 66.2446 28.4268C65.1488 28.4268 64.8771 29.0075 64.8771 29.635H63.8468C63.8468 28.4362 64.6617 27.5557 66.254 27.5557C67.406 27.5557 68.3988 28.1926 68.3988 29.3353C68.3988 30.0284 68.0429 30.4593 67.4247 30.7215V30.7403C68.2771 31.0119 68.6236 31.5739 68.6236 32.3325C68.6236 33.5876 67.6964 34.2901 66.2727 34.2901ZM73.3401 34.1589H72.3286V32.6791H69.2471V31.7424L72.3286 27.6869H73.3401V31.808H74.2486V32.6791H73.3401V34.1589ZM72.3286 28.9888L70.1837 31.808H72.3286V28.9888ZM79.2299 34.2901C77.6845 34.2901 76.8415 33.3534 76.804 32.267H77.8343C77.8999 32.857 78.2371 33.419 79.1737 33.419C79.9979 33.419 80.5412 32.9132 80.5412 31.9485C80.5412 31.04 80.0447 30.6279 79.2393 30.6279C78.7147 30.6279 78.2371 30.8058 77.928 31.2086H76.8883L77.5814 27.6869H81.2624V28.5579H78.3588L78.0029 30.3469V30.3656C78.3401 30.0191 78.8178 29.8036 79.5109 29.8036C80.7379 29.8036 81.5902 30.7122 81.5902 31.9485C81.5902 33.3815 80.5599 34.2901 79.2299 34.2901ZM84.8595 34.2901C83.005 34.2901 82.34 32.9132 82.34 30.9369C82.34 28.8108 83.2672 27.5557 84.8689 27.5557C86.0865 27.5557 86.8826 28.3612 86.995 29.326H85.9554C85.8711 28.7921 85.562 28.3987 84.8689 28.3987C83.6606 28.3987 83.3515 29.5226 83.3515 30.6372V30.7309L83.3796 30.7403C83.7168 30.197 84.3069 29.8879 85.0468 29.8879C86.3019 29.8879 87.173 30.7684 87.173 32.0422C87.173 33.2972 86.2925 34.2901 84.8595 34.2901ZM84.8314 33.4471C85.6837 33.4471 86.1427 32.9132 86.1427 32.0984C86.1427 31.246 85.6463 30.7403 84.897 30.7403C84.0072 30.7403 83.4639 31.3022 83.4639 32.1171C83.4639 32.9039 83.951 33.4471 84.8314 33.4471ZM89.5969 34.1589H88.5292C88.5292 32.0141 89.8592 29.5976 91.0112 28.5767V28.5579H87.5644V27.6869H92.1164V28.4643C90.6459 29.6912 89.5969 32.089 89.5969 34.1589ZM95.0559 34.2901C93.651 34.2901 92.5739 33.6438 92.5739 32.3325C92.5739 31.4427 93.1639 30.9931 93.7821 30.7215V30.7028C93.3232 30.4593 92.8923 30.0472 92.8923 29.3166C92.8923 28.202 93.8008 27.5557 95.0559 27.5557C96.3204 27.5557 97.2289 28.202 97.2289 29.3166C97.2289 30.0472 96.7887 30.4593 96.3391 30.7028V30.7215C96.9479 30.9931 97.5473 31.4427 97.5473 32.3325C97.5473 33.6438 96.4702 34.2901 95.0559 34.2901ZM95.0559 30.3188C95.7865 30.3188 96.2173 30.0097 96.2173 29.354C96.2173 28.7078 95.7865 28.38 95.0559 28.38C94.3347 28.38 93.9039 28.7078 93.9039 29.354C93.9039 30.0097 94.3347 30.3188 95.0559 30.3188ZM95.0559 33.4471C95.9551 33.4471 96.489 33.0163 96.489 32.2763C96.489 31.5551 95.9551 31.1243 95.0559 31.1243C94.1568 31.1243 93.6229 31.5551 93.6229 32.2763C93.6229 33.0163 94.1568 33.4471 95.0559 33.4471Z" fill="black"/>
<g clip-path="url(#clip0_28384_46403)">
<g clip-path="url(#clip1_28384_46403)">
<g clip-path="url(#clip2_28384_46403)">
<path opacity="0.07" d="M185.558 24.7898H167.241C166.268 24.7898 165.523 25.534 165.523 26.5071V36.8108C165.523 37.784 166.325 38.5281 167.241 38.5281H185.558C186.532 38.5281 187.276 37.784 187.276 36.8108V26.5071C187.276 25.534 186.474 24.7898 185.558 24.7898Z" fill="black"/>
<path d="M185.56 25.3621C186.19 25.3621 186.705 25.8772 186.705 26.5069V36.8107C186.705 37.4403 186.19 37.9555 185.56 37.9555H167.243C166.613 37.9555 166.098 37.4403 166.098 36.8107V26.5069C166.098 25.8772 166.613 25.3621 167.243 25.3621H185.56Z" fill="white"/>
<path d="M181.724 30.5717H181.553C181.324 31.1442 181.152 31.4304 180.98 32.289H182.068C181.896 31.4304 181.896 31.0297 181.724 30.5717ZM183.384 33.9491H182.411C182.354 33.9491 182.354 33.9491 182.297 33.8918L182.182 33.3766L182.125 33.2622H180.751C180.694 33.2622 180.637 33.2622 180.637 33.3766L180.465 33.8918C180.465 33.9491 180.408 33.9491 180.408 33.9491H179.206L179.32 33.6629L180.98 29.7703C180.98 29.4841 181.152 29.3696 181.438 29.3696H182.297C182.354 29.3696 182.411 29.3696 182.411 29.4841L183.213 33.2049C183.27 33.4339 183.327 33.6056 183.327 33.8346C183.384 33.8918 183.384 33.8918 183.384 33.9491ZM175.714 33.7773L175.943 32.747C176 32.747 176.057 32.8042 176.057 32.8042C176.458 32.9759 176.859 33.0904 177.259 33.0332C177.374 33.0332 177.546 32.9759 177.66 32.9187C177.946 32.8042 177.946 32.518 177.717 32.289C177.603 32.1745 177.431 32.1173 177.259 32.0028C177.03 31.8883 176.801 31.7738 176.63 31.6021C175.943 31.0297 176.172 30.2283 176.572 29.8276C176.916 29.5986 177.088 29.3696 177.546 29.3696C178.233 29.3696 178.977 29.3696 179.32 29.4841H179.377C179.32 29.8276 179.263 30.1138 179.148 30.4572C178.862 30.3428 178.576 30.2283 178.29 30.2283C178.118 30.2283 177.946 30.2283 177.775 30.2855C177.66 30.2855 177.603 30.3428 177.546 30.4C177.431 30.5145 177.431 30.6862 177.546 30.8007L177.832 31.0297C178.061 31.1442 178.29 31.2586 178.461 31.3731C178.748 31.5449 179.034 31.8311 179.091 32.1745C179.206 32.6897 179.034 33.1477 178.576 33.4911C178.29 33.7201 178.175 33.8346 177.775 33.8346C176.973 33.8346 176.343 33.8918 175.828 33.7201C175.771 33.8346 175.771 33.8346 175.714 33.7773ZM173.71 33.9491C173.768 33.5484 173.768 33.5484 173.825 33.3766C174.111 32.1173 174.397 30.8007 174.626 29.5414C174.683 29.4269 174.683 29.3696 174.798 29.3696H175.828C175.714 30.0565 175.599 30.5717 175.428 31.2014C175.256 32.06 175.084 32.9187 174.855 33.7773C174.855 33.8918 174.798 33.8918 174.683 33.8918M168.387 29.4841C168.387 29.4269 168.501 29.3696 168.558 29.3696H170.505C170.791 29.3696 171.02 29.5414 171.077 29.8276L171.592 32.3463C171.592 32.4035 171.592 32.4035 171.65 32.4608C171.65 32.4035 171.707 32.4035 171.707 32.4035L172.909 29.4841C172.852 29.4269 172.909 29.3696 172.966 29.3696H174.168C174.168 29.4269 174.168 29.4269 174.111 29.4841L172.336 33.6629C172.279 33.7773 172.279 33.8346 172.222 33.8918C172.165 33.9491 172.05 33.8918 171.936 33.8918H171.077C171.02 33.8918 170.963 33.8918 170.963 33.7773L170.047 30.2283C169.932 30.1138 169.761 29.9421 169.532 29.8848C169.188 29.7131 168.558 29.5986 168.444 29.5986L168.387 29.4841Z" fill="#142688"/>
</g>
</g>
</g>
<g clip-path="url(#clip3_28384_46403)">
<g clip-path="url(#clip4_28384_46403)">
<g clip-path="url(#clip5_28384_46403)">
<path opacity="0.07" d="M210.172 24.7898H191.854C190.881 24.7898 190.137 25.534 190.137 26.5071V36.8108C190.137 37.784 190.938 38.5281 191.854 38.5281H210.172C211.145 38.5281 211.889 37.784 211.889 36.8108V26.5071C211.889 25.534 211.088 24.7898 210.172 24.7898Z" fill="black"/>
<path d="M210.17 25.3618C210.799 25.3618 211.315 25.877 211.315 26.5067V36.8104C211.315 37.4401 210.799 37.9553 210.17 37.9553H191.852C191.222 37.9553 190.707 37.4401 190.707 36.8104V26.5067C190.707 25.877 191.222 25.3618 191.852 25.3618H210.17Z" fill="white"/>
<path d="M198.722 35.6664C200.935 35.6664 202.729 33.8724 202.729 31.6594C202.729 29.4463 200.935 27.6523 198.722 27.6523C196.509 27.6523 194.715 29.4463 194.715 31.6594C194.715 33.8724 196.509 35.6664 198.722 35.6664Z" fill="#EB001B"/>
<path d="M203.304 35.6664C205.517 35.6664 207.311 33.8724 207.311 31.6594C207.311 29.4463 205.517 27.6523 203.304 27.6523C201.091 27.6523 199.297 29.4463 199.297 31.6594C199.297 33.8724 201.091 35.6664 203.304 35.6664Z" fill="#F79E1B"/>
<path d="M202.731 31.6588C202.731 30.285 202.045 29.0829 201.014 28.396C199.984 29.1402 199.297 30.3423 199.297 31.6588C199.297 32.9754 199.984 34.2348 201.014 34.9217C202.045 34.2348 202.731 33.0327 202.731 31.6588Z" fill="#FF5F00"/>
</g>
</g>
</g>
<g clip-path="url(#clip6_28384_46403)">
<g clip-path="url(#clip7_28384_46403)">
<g clip-path="url(#clip8_28384_46403)">
<path opacity="0.07" d="M234.789 24.7898H216.471C215.498 24.7898 214.754 25.534 214.754 26.5071V36.8108C214.754 37.784 215.555 38.5281 216.471 38.5281H234.789C235.762 38.5281 236.506 37.784 236.506 36.8108V26.5071C236.506 25.534 235.705 24.7898 234.789 24.7898Z" fill="black"/>
<path d="M234.791 25.3621C235.42 25.3621 235.936 25.8772 235.936 26.5069V36.8107C235.936 37.4403 235.42 37.9555 234.791 37.9555H216.473C215.843 37.9555 215.328 37.4403 215.328 36.8107V26.5069C215.328 25.8772 215.843 25.3621 216.473 25.3621H234.791Z" fill="#006FCF"/>
<path d="M227.359 36.202V31.3816L235.939 31.389V32.7205L234.948 33.7806L235.939 34.8494V36.2089H234.356L233.514 35.2804L232.678 36.2123L227.359 36.2009V36.202Z" fill="white"/>
<path d="M227.926 35.6727V31.9119H231.115V32.778H228.958V33.3664H231.064V34.2182H228.958V34.7963H231.115V35.6727H227.926Z" fill="#006FCF"/>
<path d="M231.098 35.6733L232.862 33.7906L231.098 31.9119H232.463L233.542 33.1042L234.624 31.9124H235.931V31.9416L234.204 33.7906L235.931 35.6206V35.6739H234.61L233.513 34.4701L232.426 35.6744H231.098V35.6733Z" fill="#006FCF"/>
<path d="M227.753 27.1023H229.821L230.548 28.7515V27.1023H233.101L233.542 28.3382L233.983 27.1023H235.933V31.9227H225.629L227.753 27.1023Z" fill="white"/>
<path d="M228.15 27.6267L226.48 31.3853H227.625L227.94 30.6325H229.646L229.961 31.3853H231.134L229.472 27.6267H228.15ZM228.293 29.7888L228.794 28.5924L229.293 29.7888H228.293Z" fill="#006FCF"/>
<path d="M231.117 31.3846V27.6255L232.726 27.6312L233.555 29.9421L234.389 27.6261H235.936V31.3841L234.94 31.3932V28.8116L233.999 31.3841H233.089L232.13 28.803V31.3846H231.118H231.117Z" fill="#006FCF"/>
</g>
</g>
</g>
<mask id="path-20-inside-1_28384_46403" fill="white">
<path d="M0.664062 46.0281H123.164V74.7664H4.09864C2.20177 74.7664 0.664062 73.2287 0.664062 71.3318V46.0281Z"/>
</mask>
<path d="M0.664062 46.0281H123.164V74.7664H4.09864C2.20177 74.7664 0.664062 73.2287 0.664062 71.3318V46.0281Z" fill="white"/>
<path d="M0.664062 46.0281H123.164H0.664062ZM123.164 75.3518H4.09864C1.87847 75.3518 0.0786719 73.552 0.0786719 71.3318H1.24945C1.24945 72.9054 2.52508 74.181 4.09864 74.181H123.164V75.3518ZM4.09864 75.3518C1.87847 75.3518 0.0786719 73.552 0.0786719 71.3318V46.0281H1.24945V71.3318C1.24945 72.9054 2.52508 74.181 4.09864 74.181V75.3518ZM123.164 46.0281V74.7664V46.0281Z" fill="#CBD5E0" mask="url(#path-20-inside-1_28384_46403)"/>
<path d="M11.2198 62.8975H10.5361V56.2006H11.482L13.7393 61.9796H13.758L16.0247 56.2006H16.9707V62.8975H16.2869V57.1653H16.2682L14.0578 62.8975H13.4396L11.2385 57.1653H11.2198V62.8975ZM19.0768 62.8975H18.3931V56.2006H19.3391L21.5963 61.9796H21.6151L23.8817 56.2006H24.8277V62.8975H24.144V57.1653H24.1252L21.9148 62.8975H21.2966L19.0956 57.1653H19.0768V62.8975ZM26.2782 62.8975H25.6601L28.292 56.2006H28.9101L26.2782 62.8975ZM32.2637 62.8975H31.58V60.1531L29.1354 56.2006H29.8753L31.9172 59.6193H31.9359L33.9871 56.2006H34.7177L32.2637 60.1531V62.8975ZM38.0536 62.8975H37.3698V60.1531L34.9253 56.2006H35.6652L37.707 59.6193H37.7258L39.777 56.2006H40.5075L38.0536 60.1531V62.8975Z" fill="#6E7474"/>
<mask id="path-23-inside-2_28384_46403" fill="white">
<path d="M123.164 46.0281H245.664V71.3318C245.664 73.2287 244.126 74.7664 242.229 74.7664H123.164V46.0281Z"/>
</mask>
<path d="M123.164 46.0281H245.664V71.3318C245.664 73.2287 244.126 74.7664 242.229 74.7664H123.164V46.0281Z" fill="white"/>
<path d="M123.164 46.0281H245.664H123.164ZM246.249 71.3318C246.249 73.552 244.45 75.3518 242.229 75.3518H122.579L123.749 74.181H242.229C243.803 74.181 245.079 72.9054 245.079 71.3318H246.249ZM122.579 75.3518V46.0281H123.749V74.181L122.579 75.3518ZM246.249 46.0281V71.3318C246.249 73.552 244.45 75.3518 242.229 75.3518V74.181C243.803 74.181 245.079 72.9054 245.079 71.3318V46.0281H246.249Z" fill="#CBD5E0" mask="url(#path-23-inside-2_28384_46403)"/>
<path d="M135.771 63.0192C133.954 63.0192 132.699 61.5862 132.699 59.5537C132.699 57.5306 133.945 56.0788 135.78 56.0788C137.345 56.0788 138.365 57.081 138.534 58.3361H137.822C137.691 57.5868 137.138 56.6783 135.771 56.6783C134.151 56.6783 133.411 58.0551 133.411 59.5537C133.411 61.0523 134.16 62.4198 135.771 62.4198C137.185 62.4198 137.775 61.4457 137.85 60.5184H138.562C138.403 61.9796 137.363 63.0192 135.771 63.0192ZM141.94 62.8975H141.229L138.784 56.2006H139.524L141.585 62.2044H141.594L143.636 56.2006H144.348L141.94 62.8975ZM147.68 63.0192C145.863 63.0192 144.608 61.5862 144.608 59.5537C144.608 57.5306 145.854 56.0788 147.689 56.0788C149.254 56.0788 150.274 57.081 150.443 58.3361H149.731C149.6 57.5868 149.048 56.6783 147.68 56.6783C146.06 56.6783 145.32 58.0551 145.32 59.5537C145.32 61.0523 146.069 62.4198 147.68 62.4198C149.094 62.4198 149.684 61.4457 149.759 60.5184H150.471C150.312 61.9796 149.272 63.0192 147.68 63.0192Z" fill="#6E7474"/>
<path d="M6.16205 92.9619H1.32907V86.265H6.06839V87.1548H2.35935V89.0562H5.60944V89.946H2.35935V92.0721H6.16205V92.9619ZM12.085 88.0446C13.0498 88.0446 13.5368 88.6253 13.5368 89.6463V92.9619H12.6189V89.8992C12.6189 89.2622 12.4878 88.8314 11.7853 88.8314C11.1016 88.8314 10.6707 89.3091 10.6707 90.0303V92.9619H9.75284V89.8992C9.75284 89.2622 9.62171 88.8314 8.91924 88.8314C8.2355 88.8314 7.80466 89.3091 7.80466 90.0303V92.9619H6.88676V88.1851H7.80466V88.7846H7.82339C8.07628 88.4193 8.51649 88.0446 9.23769 88.0446C9.9027 88.0446 10.3148 88.3444 10.5021 88.8782H10.5209C10.8674 88.4193 11.3545 88.0446 12.085 88.0446ZM15.8632 93.093C14.9079 93.093 14.2991 92.5404 14.2991 91.7256C14.2991 90.6578 15.1046 90.3394 16.2941 90.1146C17.0434 89.9741 17.5023 89.8804 17.5023 89.4121C17.5023 89.0656 17.2963 88.7752 16.5938 88.7752C15.7602 88.7752 15.5073 89.0375 15.4605 89.6744H14.5238C14.5707 88.7565 15.1701 88.0353 16.6312 88.0353C17.6147 88.0353 18.4015 88.4474 18.4015 89.6837V91.8754C18.4015 92.222 18.4483 92.3999 18.6263 92.3999C18.6544 92.3999 18.6825 92.3999 18.7387 92.3906V92.9525C18.5794 92.99 18.4202 93.0087 18.2703 93.0087C17.8114 93.0087 17.5679 92.8308 17.5117 92.2875H17.4929C17.1839 92.784 16.6406 93.093 15.8632 93.093ZM16.0693 92.3531C16.8935 92.3531 17.5023 91.9316 17.5023 91.098V90.4143C17.3525 90.5548 16.9403 90.6578 16.4533 90.7608C15.6103 90.9294 15.2544 91.1636 15.2544 91.66C15.2544 92.1096 15.4979 92.3531 16.0693 92.3531ZM20.5019 87.3328H19.4622V86.34H20.5019V87.3328ZM20.4363 92.9619H19.5184V88.1851H20.4363V92.9619ZM22.3845 92.9619H21.4666V86.265H22.3845V92.9619Z" fill="#6E7474"/>
<rect x="0.956758" y="100.544" width="244.415" height="28.1529" rx="3.14188" fill="white"/>
<rect x="0.956758" y="100.544" width="244.415" height="28.1529" rx="3.14188" stroke="#CBD5E0" stroke-width="0.585391"/>
<path d="M11.3228 111.492H10.2832V110.499H11.3228V111.492ZM10.1146 118.816C9.91788 118.816 9.77739 118.797 9.54323 118.76V118.001C9.69309 118.02 9.76802 118.029 9.90851 118.029C10.1989 118.029 10.3394 117.87 10.3394 117.336V112.344H11.2573V117.374C11.2573 118.395 10.7889 118.816 10.1146 118.816ZM14.4231 117.261C12.9339 117.261 12.0347 116.231 12.0347 114.732C12.0347 113.243 12.9339 112.194 14.4325 112.194C15.9124 112.194 16.8115 113.234 16.8115 114.723C16.8115 116.222 15.9124 117.261 14.4231 117.261ZM14.4325 116.503C15.4066 116.503 15.8562 115.725 15.8562 114.732C15.8562 113.73 15.4066 112.962 14.4325 112.962C13.4397 112.962 12.9901 113.73 12.9901 114.732C12.9901 115.725 13.4397 116.503 14.4325 116.503ZM20.1029 112.204C20.9833 112.204 21.6951 112.709 21.6951 113.805V117.121H20.7772V114.058C20.7772 113.421 20.4963 112.99 19.8032 112.99C19.0164 112.99 18.5106 113.468 18.5106 114.189V117.121H17.5927V110.424H18.5106V112.944H18.5293C18.7822 112.578 19.2786 112.204 20.1029 112.204ZM25.1976 112.204C26.078 112.204 26.7899 112.709 26.7899 113.805V117.121H25.872V114.058C25.872 113.421 25.591 112.99 24.8979 112.99C24.1111 112.99 23.6053 113.468 23.6053 114.189V117.121H22.6874V112.344H23.6053V112.944H23.6241C23.877 112.578 24.3734 112.204 25.1976 112.204ZM28.7094 117.121H27.6885V116.1H28.7094V117.121ZM32.9198 112.925V110.424H33.8377V117.121H32.9198V116.559H32.901C32.6388 116.896 32.1798 117.252 31.4305 117.252C30.2129 117.252 29.2857 116.306 29.2857 114.732C29.2857 113.159 30.2129 112.204 31.4305 112.204C32.1798 112.204 32.6388 112.55 32.901 112.925H32.9198ZM31.5804 116.493C32.4046 116.493 32.9104 115.81 32.9104 114.732C32.9104 113.646 32.4046 112.972 31.5804 112.972C30.6812 112.972 30.241 113.796 30.241 114.732C30.241 115.669 30.6812 116.493 31.5804 116.493ZM37.0064 117.261C35.5172 117.261 34.618 116.231 34.618 114.732C34.618 113.243 35.5172 112.194 37.0158 112.194C38.4956 112.194 39.3948 113.234 39.3948 114.723C39.3948 116.222 38.4956 117.261 37.0064 117.261ZM37.0158 116.503C37.9898 116.503 38.4394 115.725 38.4394 114.732C38.4394 113.73 37.9898 112.962 37.0158 112.962C36.0229 112.962 35.5734 113.73 35.5734 114.732C35.5734 115.725 36.0229 116.503 37.0158 116.503ZM44.5594 114.629C44.5594 114.761 44.5594 114.901 44.55 114.976H40.8785C40.8972 115.772 41.3655 116.512 42.3115 116.512C43.1545 116.512 43.4823 115.969 43.5666 115.65H44.5032C44.2503 116.568 43.5478 117.261 42.2928 117.261C40.7754 117.261 39.9325 116.184 39.9325 114.723C39.9325 113.224 40.8316 112.194 42.2928 112.194C43.7445 112.194 44.5594 113.15 44.5594 114.629ZM40.8785 114.255H43.604C43.604 113.505 43.0795 112.944 42.2647 112.944C41.4966 112.944 40.9347 113.468 40.8785 114.255ZM48.8846 118.114C46.5805 118.114 45.0912 116.624 45.0912 114.367C45.0912 112.194 46.6554 110.443 48.9782 110.443C51.301 110.443 52.7153 112.063 52.7153 114.067C52.7153 115.8 51.7694 116.372 50.9826 116.372C50.3832 116.372 50.0179 116.091 49.7931 115.594H49.7743C49.5402 116.044 49.1281 116.343 48.4724 116.343C47.6014 116.343 46.9083 115.641 46.9083 114.423C46.9083 113.121 47.695 112.278 48.6598 112.278C49.2686 112.278 49.7462 112.634 49.9148 113.047H49.9336L50.0272 112.344H50.814L50.5143 114.695C50.43 115.323 50.6173 115.678 51.0763 115.678C51.6289 115.678 51.9941 115.135 51.9941 114.086C51.9941 112.335 50.814 111.136 48.9969 111.136C47.03 111.136 45.8312 112.663 45.8312 114.367C45.8312 116.184 47.0675 117.421 48.8846 117.421C49.4372 117.421 49.9898 117.355 50.5424 117.13L50.7953 117.711C50.2052 118.029 49.5683 118.114 48.8846 118.114ZM48.641 115.604C49.3622 115.604 49.7462 114.957 49.7462 114.17C49.7462 113.402 49.3435 113.018 48.819 113.018C48.0884 113.018 47.7044 113.637 47.7044 114.451C47.7044 115.116 47.9854 115.604 48.641 115.604ZM56.9021 112.906V112.344H57.82V116.746C57.82 118.189 56.9489 118.835 55.5814 118.835C54.2139 118.835 53.5302 118.179 53.4365 117.318H54.3919C54.4856 117.748 54.804 118.086 55.5814 118.086C56.4525 118.086 56.9021 117.702 56.9021 116.802V116.156H56.8833C56.6211 116.54 56.1809 116.877 55.4128 116.877C54.2233 116.877 53.3054 116.072 53.3054 114.545C53.3054 113.009 54.2233 112.204 55.4128 112.204C56.1809 112.204 56.6211 112.569 56.8833 112.906H56.9021ZM55.5814 116.119C56.4057 116.119 56.8927 115.585 56.8927 114.545C56.8927 113.496 56.4057 112.972 55.5814 112.972C54.6823 112.972 54.2608 113.646 54.2608 114.545C54.2608 115.444 54.6823 116.119 55.5814 116.119ZM64.0427 112.204C65.0075 112.204 65.4945 112.784 65.4945 113.805V117.121H64.5766V114.058C64.5766 113.421 64.4455 112.99 63.743 112.99C63.0593 112.99 62.6284 113.468 62.6284 114.189V117.121H61.7105V114.058C61.7105 113.421 61.5794 112.99 60.8769 112.99C60.1932 112.99 59.7624 113.468 59.7624 114.189V117.121H58.8445V112.344H59.7624V112.944H59.7811C60.034 112.578 60.4742 112.204 61.1954 112.204C61.8604 112.204 62.2725 112.503 62.4598 113.037H62.4786C62.8251 112.578 63.3122 112.204 64.0427 112.204ZM67.8209 117.252C66.8656 117.252 66.2567 116.699 66.2567 115.885C66.2567 114.817 67.0622 114.498 68.2518 114.274C69.0011 114.133 69.46 114.039 69.46 113.571C69.46 113.224 69.2539 112.934 68.5515 112.934C67.7179 112.934 67.465 113.196 67.4182 113.833H66.4815C66.5284 112.915 67.1278 112.194 68.5889 112.194C69.5724 112.194 70.3592 112.606 70.3592 113.843V116.034C70.3592 116.381 70.406 116.559 70.584 116.559C70.6121 116.559 70.6402 116.559 70.6963 116.55V117.111C70.5371 117.149 70.3779 117.168 70.228 117.168C69.7691 117.168 69.5256 116.99 69.4694 116.446H69.4506C69.1416 116.943 68.5983 117.252 67.8209 117.252ZM68.027 116.512C68.8512 116.512 69.46 116.091 69.46 115.257V114.573C69.3101 114.714 68.898 114.817 68.411 114.92C67.568 115.088 67.2121 115.323 67.2121 115.819C67.2121 116.269 67.4556 116.512 68.027 116.512ZM72.4595 111.492H71.4199V110.499H72.4595V111.492ZM72.394 117.121H71.4761V112.344H72.394V117.121ZM74.3422 117.121H73.4243V110.424H74.3422V117.121ZM76.2999 117.121H75.2789V116.1H76.2999V117.121ZM79.2085 117.261C77.7848 117.261 76.8576 116.231 76.8576 114.732C76.8576 113.234 77.7848 112.204 79.1991 112.204C80.4261 112.204 81.241 113 81.3534 114.077H80.4074C80.3606 113.58 80.0796 112.962 79.2085 112.962C78.1876 112.962 77.8129 113.833 77.8129 114.732C77.8129 115.632 78.1876 116.493 79.2085 116.493C80.0889 116.493 80.3606 115.894 80.4074 115.351H81.3534C81.2878 116.446 80.4355 117.261 79.2085 117.261ZM84.2218 117.261C82.7326 117.261 81.8334 116.231 81.8334 114.732C81.8334 113.243 82.7326 112.194 84.2312 112.194C85.711 112.194 86.6102 113.234 86.6102 114.723C86.6102 116.222 85.711 117.261 84.2218 117.261ZM84.2312 116.503C85.2053 116.503 85.6548 115.725 85.6548 114.732C85.6548 113.73 85.2053 112.962 84.2312 112.962C83.2383 112.962 82.7888 113.73 82.7888 114.732C82.7888 115.725 83.2383 116.503 84.2312 116.503ZM92.5897 112.204C93.5544 112.204 94.0414 112.784 94.0414 113.805V117.121H93.1235V114.058C93.1235 113.421 92.9924 112.99 92.2899 112.99C91.6062 112.99 91.1754 113.468 91.1754 114.189V117.121H90.2575V114.058C90.2575 113.421 90.1263 112.99 89.4239 112.99C88.7401 112.99 88.3093 113.468 88.3093 114.189V117.121H87.3914V112.344H88.3093V112.944H88.328C88.5809 112.578 89.0211 112.204 89.7423 112.204C90.4073 112.204 90.8194 112.503 91.0068 113.037H91.0255C91.3721 112.578 91.8591 112.204 92.5897 112.204Z" fill="black"/>
<defs>
<clipPath id="clip0_28384_46403">
<rect width="21.7523" height="13.7383" fill="white" transform="translate(165.523 24.7898)"/>
</clipPath>
<clipPath id="clip1_28384_46403">
<rect width="21.7523" height="13.7383" fill="white" transform="translate(165.523 24.7898)"/>
</clipPath>
<clipPath id="clip2_28384_46403">
<rect width="21.7523" height="13.7383" fill="white" transform="translate(165.523 24.7898)"/>
</clipPath>
<clipPath id="clip3_28384_46403">
<rect width="21.7523" height="13.7383" fill="white" transform="translate(190.137 24.7898)"/>
</clipPath>
<clipPath id="clip4_28384_46403">
<rect width="21.7523" height="13.7383" fill="white" transform="translate(190.137 24.7898)"/>
</clipPath>
<clipPath id="clip5_28384_46403">
<rect width="21.7523" height="13.7383" fill="white" transform="translate(190.137 24.7898)"/>
</clipPath>
<clipPath id="clip6_28384_46403">
<rect width="21.7523" height="13.7383" fill="white" transform="translate(214.754 24.7898)"/>
</clipPath>
<clipPath id="clip7_28384_46403">
<rect width="21.7523" height="13.7383" fill="white" transform="translate(214.754 24.7898)"/>
</clipPath>
<clipPath id="clip8_28384_46403">
<rect width="21.7523" height="13.7383" fill="white" transform="translate(214.754 24.7898)"/>
</clipPath>
</defs>
</svg>
