<svg width="25" height="25" viewBox="0 0 25 25" fill="none" xmlns="http://www.w3.org/2000/svg">
<g clip-path="url(#clip0_770_405)">
<path d="M12.229 6.036C11.0049 6.036 9.80831 6.39905 8.79059 7.07921C7.77287 7.75938 6.97974 8.72611 6.51153 9.85711C6.04333 10.9881 5.92107 12.2326 6.16025 13.4331C6.39942 14.6335 6.98926 15.7361 7.85517 16.6013C8.72108 17.4666 9.82414 18.0555 11.0248 18.2937C12.2255 18.5319 13.4699 18.4087 14.6005 17.9395C15.7311 17.4704 16.6972 16.6765 17.3765 15.6582C18.0559 14.64 18.418 13.4431 18.417 12.219C18.4176 11.4064 18.258 10.6017 17.9472 9.85093C17.6364 9.10015 17.1805 8.41806 16.6057 7.84372C16.0309 7.26938 15.3485 6.81407 14.5974 6.50388C13.8464 6.19368 13.0415 6.03468 12.229 6.036ZM12.229 16.247C11.4335 16.247 10.6559 16.0112 9.99444 15.5693C9.33297 15.1275 8.81733 14.4995 8.51269 13.7647C8.20805 13.0299 8.12809 12.2212 8.28292 11.441C8.43774 10.6607 8.8204 9.9439 9.38252 9.38108C9.94465 8.81825 10.661 8.4347 11.4411 8.27891C12.2211 8.12312 13.0299 8.20207 13.7651 8.5058C14.5002 8.80952 15.1289 9.32438 15.5715 9.9853C16.0142 10.6462 16.251 11.4235 16.252 12.219C16.2501 13.2854 15.8257 14.3076 15.0716 15.0616C14.3176 15.8157 13.2954 16.2401 12.229 16.242V16.247ZM20.114 5.783C20.114 6.0684 20.0293 6.34739 19.8708 6.58469C19.7122 6.82199 19.4869 7.00694 19.2232 7.11616C18.9595 7.22538 18.6694 7.25395 18.3895 7.19827C18.1095 7.14259 17.8524 7.00516 17.6506 6.80336C17.4488 6.60155 17.3114 6.34443 17.2557 6.06452C17.2 5.7846 17.2286 5.49446 17.3378 5.23079C17.447 4.96711 17.632 4.74175 17.8693 4.58319C18.1066 4.42463 18.3856 4.34 18.671 4.34C18.8606 4.3396 19.0484 4.37666 19.2237 4.44904C19.3989 4.52141 19.5581 4.62769 19.6922 4.76176C19.8263 4.89584 19.9326 5.05507 20.0049 5.23032C20.0773 5.40557 20.1144 5.59339 20.114 5.783ZM24.214 7.248C24.2531 5.37131 23.5519 3.55465 22.262 2.191C20.8953 0.906128 19.0805 0.206341 17.205 0.241C15.212 0.128 9.23998 0.128 7.24698 0.241C5.37231 0.204188 3.55764 0.902276 2.19098 2.186C0.904599 3.55128 0.204851 5.36653 0.241977 7.242C0.128977 9.235 0.128977 15.207 0.241977 17.2C0.202271 19.0764 0.902768 20.893 2.19198 22.257C3.55931 23.5409 5.37367 24.2405 7.24898 24.207C9.24198 24.32 15.214 24.32 17.207 24.207C19.0834 24.2467 20.9 23.5462 22.264 22.257C23.5485 20.8901 24.2479 19.0754 24.213 17.2C24.326 15.207 24.327 9.24 24.214 7.248ZM21.64 19.338C21.4352 19.8571 21.1259 20.3286 20.7312 20.7233C20.3366 21.1179 19.8651 21.4272 19.346 21.632C17.757 22.262 13.988 22.117 12.232 22.117C10.476 22.117 5.11798 21.632 5.11798 21.632C4.19391 21.0453 3.41064 20.2621 2.82398 19.338C2.19398 17.749 2.33898 13.98 2.33898 12.224C2.33898 10.468 2.19898 6.693 2.82398 5.11C3.0288 4.59171 3.3378 4.12096 3.73187 3.7269C4.12594 3.33283 4.59668 3.02382 5.11498 2.819C6.70398 2.189 10.473 2.334 12.229 2.334C13.985 2.334 17.76 2.194 19.343 2.819C19.8621 3.02381 20.3336 3.33313 20.7282 3.72774C21.1228 4.12236 21.4322 4.59387 21.637 5.113C22.267 6.702 22.122 10.471 22.122 12.227C22.122 13.983 22.268 17.755 21.638 19.338H21.64Z" fill="#BC2026" stroke="#BC2026" stroke-width="0.2"/>
</g>
<defs>
<clipPath id="clip0_770_405">
<rect width="24.453" height="24.447" fill="white"/>
</clipPath>
</defs>
</svg>
