<svg width="40" height="40" viewBox="0 0 40 40" fill="none" xmlns="http://www.w3.org/2000/svg">
<rect x="0.5" y="0.5" width="39" height="39" rx="19.5" stroke="#3B3B3B"/>
<path d="M26.7325 20.6504C26.4089 21.8814 24.8781 22.7514 21.8155 24.4912C18.8547 26.1733 17.3743 27.0139 16.1817 26.6765C15.6874 26.5364 15.2377 26.2708 14.8763 25.9056C14 25.021 14 23.3059 14 19.8749C14 16.4438 14 14.7287 14.8763 13.8441C15.2378 13.4792 15.6875 13.214 16.1817 13.0741C17.3743 12.7349 18.8547 13.5764 21.8155 15.2585C24.8772 16.9984 26.4089 17.8683 26.7334 19.0994C26.8682 19.6076 26.8673 20.1422 26.7325 20.6504Z" stroke="#3B3B3B" stroke-linecap="round" stroke-linejoin="round"/>
</svg>
