<svg width="27" height="22" viewBox="0 0 27 22" fill="none" xmlns="http://www.w3.org/2000/svg">
<g clip-path="url(#clip0_770_409)">
<path d="M25.3999 0.998996C24.3322 1.75017 23.1504 2.32421 21.8999 2.699C21.2289 1.92897 20.3378 1.38343 19.3469 1.13605C18.356 0.888666 17.313 0.95137 16.3589 1.31569C15.4047 1.68001 14.5854 2.32839 14.0115 3.17325C13.4376 4.01811 13.1369 5.01875 13.1499 6.04V7.154C11.1928 7.20479 9.25344 6.77075 7.50468 5.89052C5.75592 5.0103 4.25201 3.71122 3.1269 2.109C3.1269 2.109 -1.3271 12.131 8.6999 16.586C6.40509 18.1436 3.67119 18.9242 0.899902 18.813C10.9229 24.381 23.1729 18.813 23.1729 6.006C23.1719 5.69591 23.1421 5.38658 23.0839 5.082C24.2196 3.9621 25.0215 2.54843 25.3999 0.998996Z" stroke="#BC2026" stroke-width="1.8" stroke-linecap="round" stroke-linejoin="round"/>
</g>
<defs>
<clipPath id="clip0_770_409">
<rect width="26.3" height="21.998" fill="white"/>
</clipPath>
</defs>
</svg>
