<svg width="35" height="25" viewBox="0 0 35 25" fill="none" xmlns="http://www.w3.org/2000/svg">
<g clip-path="url(#clip0_770_411)">
<path d="M33.211 4.53002C33.0328 3.81814 32.6699 3.16588 32.159 2.63913C31.648 2.11239 31.0071 1.7298 30.301 1.53002C27.721 0.900025 17.401 0.900024 17.401 0.900024C17.401 0.900024 7.081 0.900024 4.501 1.59002C3.79487 1.7898 3.15397 2.17239 2.64302 2.69913C2.13208 3.22588 1.76919 3.87814 1.591 4.59002C1.11883 7.20836 0.887858 9.86449 0.901004 12.525C0.884173 15.2056 1.11516 17.882 1.591 20.52C1.78744 21.2098 2.15846 21.8372 2.66822 22.3417C3.17798 22.8462 3.80923 23.2107 4.501 23.4C7.081 24.09 17.401 24.09 17.401 24.09C17.401 24.09 27.721 24.09 30.301 23.4C31.0071 23.2002 31.648 22.8177 32.159 22.2909C32.6699 21.7642 33.0328 21.1119 33.211 20.4C33.6795 17.8014 33.9105 15.1655 33.901 12.525C33.9181 9.84279 33.6872 7.16471 33.211 4.52502V4.53002Z" stroke="#BC2026" stroke-width="1.8" stroke-linecap="round" stroke-linejoin="round"/>
<path d="M14.0261 17.43L22.6511 12.525L14.0261 7.625V17.43Z" stroke="#BC2026" stroke-width="1.8" stroke-linecap="round" stroke-linejoin="round"/>
</g>
<defs>
<clipPath id="clip0_770_411">
<rect width="34.802" height="24.99" fill="white"/>
</clipPath>
</defs>
</svg>
