<svg width="118" height="48" viewBox="0 0 118 48" fill="none" xmlns="http://www.w3.org/2000/svg">
<g clip-path="url(#clip0_928_2)">
<path d="M65.5874 21.6162C63.0689 21.6162 61.2404 22.5477 59.9984 24.1347V22.0992H55.5479V46.2491H59.9984V37.3137C61.2404 38.9007 63.0689 39.8322 65.5874 39.8322C70.2103 39.8322 74.0053 35.8647 74.0053 30.7242C74.0053 25.5837 70.2103 21.6162 65.5874 21.6162ZM64.7593 35.5887C62.0338 35.5887 59.9984 33.6222 59.9984 30.7242C59.9984 27.8262 62.0338 25.8597 64.7593 25.8597C67.5192 25.8597 69.5548 27.8262 69.5548 30.7242C69.5548 33.6222 67.5192 35.5887 64.7593 35.5887Z" fill="white"/>
<path d="M90.2541 22.0992V24.1347C89.0121 22.5822 87.1491 21.6162 84.6306 21.6162C80.0421 21.6162 76.2471 25.5837 76.2471 30.7242C76.2471 35.8647 80.0421 39.8322 84.6306 39.8322C87.1491 39.8322 89.0121 38.8662 90.2541 37.3137V39.3492H94.7046V22.0992H90.2541ZM85.4586 35.5887C82.7331 35.5887 80.6976 33.6222 80.6976 30.7242C80.6976 27.8262 82.7331 25.8597 85.4586 25.8597C88.2186 25.8597 90.2541 27.8262 90.2541 30.7242C90.2541 33.6222 88.2186 35.5887 85.4586 35.5887Z" fill="white"/>
<path d="M109.987 22.0996L106.158 33.6916L101.673 22.0996H96.8086L103.881 38.7976C103.053 41.1091 101.811 42.1441 99.3616 42.1096V46.2495C103.743 46.491 106.675 44.3175 108.469 39.3496L114.748 22.0996H109.987Z" fill="white"/>
<path d="M62.2676 6.80099C60.8793 6.80099 59.8714 7.31448 59.1867 8.1893V3.26367H56.7334V16.5761H59.1867V15.4541C59.8714 16.3289 60.8793 16.8424 62.2676 16.8424C64.816 16.8424 66.908 14.6553 66.908 11.8217C66.908 8.98805 64.816 6.80099 62.2676 6.80099ZM61.8112 14.5032C60.3088 14.5032 59.1867 13.4192 59.1867 11.8217C59.1867 10.2242 60.3088 9.14019 61.8112 9.14019C63.3326 9.14019 64.4547 10.2242 64.4547 11.8217C64.4547 13.4192 63.3326 14.5032 61.8112 14.5032Z" fill="white"/>
<path d="M71.092 8.70267V7.06713H68.6387V16.576H71.092V12.0308C71.092 10.0339 72.7085 9.46339 73.9827 9.61553V6.87695C72.7846 6.87695 71.5864 7.40946 71.092 8.70267Z" fill="white"/>
<path d="M77.1367 12.8294H84.3064C84.3635 12.5061 84.4015 12.1828 84.4015 11.8215C84.4015 9.02588 82.4046 6.80078 79.59 6.80078C76.6042 6.80078 74.5693 8.98784 74.5693 11.8215C74.5693 14.6551 76.5852 16.8422 79.7802 16.8422C81.6059 16.8422 83.0322 16.1005 83.9261 14.8073L81.9482 13.6662C81.5298 14.2177 80.7691 14.6171 79.8182 14.6171C78.525 14.6171 77.479 14.0846 77.1367 12.8294ZM77.0986 10.9276C77.3839 9.71052 78.2778 9.00686 79.59 9.00686C80.617 9.00686 81.6439 9.55837 81.9482 10.9276H77.0986Z" fill="white"/>
<path d="M93.2672 7.06703V8.18909C92.5825 7.33328 91.5556 6.80078 90.1673 6.80078C87.6379 6.80078 85.5459 8.98784 85.5459 11.8215C85.5459 14.6551 87.6379 16.8422 90.1673 16.8422C91.5556 16.8422 92.5825 16.3097 93.2672 15.4539V16.5759H95.7205V7.06703H93.2672ZM90.6237 14.503C89.1213 14.503 87.9992 13.419 87.9992 11.8215C87.9992 10.224 89.1213 9.13998 90.6237 9.13998C92.1451 9.13998 93.2672 10.224 93.2672 11.8215C93.2672 13.419 92.1451 14.503 90.6237 14.503Z" fill="white"/>
<path d="M105.153 3.26367V8.1893C104.468 7.31448 103.46 6.80099 102.072 6.80099C99.5236 6.80099 97.4316 8.98805 97.4316 11.8217C97.4316 14.6553 99.5236 16.8424 102.072 16.8424C103.46 16.8424 104.468 16.3289 105.153 15.4541V16.5761H107.606V3.26367H105.153ZM102.528 14.5032C101.007 14.5032 99.8849 13.4192 99.8849 11.8217C99.8849 10.2242 101.007 9.14019 102.528 9.14019C104.031 9.14019 105.153 10.2242 105.153 11.8217C105.153 13.4192 104.031 14.5032 102.528 14.5032Z" fill="white"/>
<path d="M24 0C10.7439 0 0 10.7439 0 24C0 37.2561 10.7439 48 24 48C37.2561 48 48 37.2561 48 24C48.0224 10.7439 37.2785 0 24 0ZM28.6206 41.4729L28.3065 41.6523C26.1981 42.7962 23.5514 41.9888 22.4075 39.8804L9.35327 15.6336C8.20934 13.5252 9.01682 10.8785 11.1252 9.73458L11.4392 9.55514C13.5477 8.41121 16.1944 9.19626 17.3383 11.3271L30.3925 35.5738C31.514 37.7047 30.729 40.329 28.6206 41.4729ZM33.8916 34.7439L23.7533 15.9252C28.957 13.1215 35.4392 15.0729 38.243 20.2766C41.0467 25.4579 39.0953 31.9402 33.8916 34.7439Z" fill="white"/>
<path d="M115.01 38.1865H113.244V38.6393H113.889V40.5877H114.362V38.6393H115.01V38.1865Z" fill="white"/>
<path d="M117.625 38.1865H117.137L116.451 39.322L115.762 38.1865H115.275V40.5877H115.748V39.0338L116.424 40.1452H116.479L117.155 39.0304V40.5877H117.625V38.1865Z" fill="white"/>
</g>
<defs>
<clipPath id="clip0_928_2">
<rect width="118" height="48" fill="white"/>
</clipPath>
</defs>
</svg>
