<svg width="1957" height="715" viewBox="0 0 1957 715" fill="none" xmlns="http://www.w3.org/2000/svg">
<path d="M65.8215 305C91.1039 305 110.72 296.951 125.104 280.854C139.489 264.333 146.9 243.153 146.9 217.312C146.9 190.625 134.694 163.514 110.72 135.979C92.8475 116.069 84.1294 97.4306 84.1294 80.9097C84.1294 59.3056 92.8475 42.3611 112.463 42.3611C126.848 42.3611 134.258 48.7153 134.258 61.4236C134.258 65.2361 133.822 69.4722 132.951 74.1319L130.335 86.8403H176.105L177.413 81.3334C179.592 70.7431 180.9 61.8472 180.9 54.6458C180.9 18.2153 159.105 0 115.514 0C91.1039 0 71.4882 8.04861 57.1034 24.1458C42.7186 39.8194 35.7441 60.1528 35.7441 85.1458C35.7441 111.833 47.9494 138.521 71.9241 164.785C89.7962 184.694 98.5142 203.757 98.5142 221.125C98.5142 248.66 88.4885 262.639 68.8728 262.639C53.6162 262.639 46.2058 256.285 46.2058 243.153C46.2058 239.764 46.6417 235.951 47.5135 231.715L51.0007 213.5H5.23085L3.05133 223.667C0.871808 232.562 0 241.458 0 249.931C0 286.785 21.7952 305 65.8215 305Z" fill="white"/>
<path d="M284.25 300.764L293.404 258.403H215.377L271.173 4.23611H222.352L157.402 300.764H284.25Z" fill="white"/>
<path d="M438.015 300.764L447.169 258.403H365.655L385.707 167.326H450.22L459.374 124.965H394.861L411.861 46.5972H493.375L502.965 4.23611H372.194L307.244 300.764H438.015Z" fill="white"/>
<path d="M542.36 300.764C589.437 300.764 615.156 277.889 625.617 229.174L658.31 79.2153C660.054 71.1667 660.925 63.5417 660.925 57.1875C660.925 23.2986 639.566 4.23611 599.463 4.23611H528.847L463.897 300.764H542.36ZM568.514 46.5972H593.36C605.566 46.5972 611.668 51.6806 611.668 62.2708C611.668 65.2361 611.232 69.0486 610.361 73.7083L576.36 227.903C571.565 248.236 560.668 258.403 543.667 258.403H522.308L568.514 46.5972Z" fill="white"/>
<path d="M798.382 300.764L853.741 46.5972H903.87L913.46 4.23611H764.381L754.791 46.5972H804.92L749.56 300.764H798.382Z" fill="white"/>
<path d="M920.527 300.764L948.424 173.681H965.861C982.861 173.681 988.963 177.493 988.963 190.625C988.963 195.285 988.092 201.215 986.348 208.417L974.579 262.639C971.963 274.5 970.656 283.396 970.656 289.75C970.656 291.868 971.091 295.681 971.527 300.764H1019.04C1018.6 297.375 1018.17 294.833 1018.17 293.139C1018.17 289.326 1019.48 280.431 1022.53 266.451L1033.86 214.347C1036.04 206.299 1036.91 197.826 1036.91 189.778C1036.91 169.868 1029.5 157.583 1014.68 152.924V152.5C1039.53 146.146 1052.61 127.931 1060.02 92.3472L1063.07 77.9445C1064.81 69.4722 1065.68 61.8472 1065.68 55.0694C1065.68 21.6042 1044.76 4.23611 1006.84 4.23611H936.655L871.705 300.764H920.527ZM976.322 46.5972H998.117C1010.32 46.5972 1016.43 51.6806 1016.43 61.8472C1016.43 66.0833 1015.99 70.7431 1014.68 75.4028L1009.45 98.2778C1004.22 120.306 991.579 131.319 971.963 131.319H957.578L976.322 46.5972Z" fill="white"/>
<path d="M1036.14 300.764H1082.35L1103.27 242.729H1157.32L1152.96 300.764H1201.78L1217.04 4.23611H1150.78L1036.14 300.764ZM1170.83 58.0347L1159.94 202.486H1118.09L1170.83 58.0347Z" fill="white"/>
<path d="M1273.42 300.764L1338.37 4.23611H1289.55L1224.6 300.764H1273.42Z" fill="white"/>
<path d="M1352.9 300.764L1400.42 84.2986L1412.62 300.764H1459.7L1524.65 4.23611H1481.06L1441.83 181.729L1432.24 4.23611H1374.26L1309.31 300.764H1352.9Z" fill="white"/>
<path d="M1544.16 300.764L1609.11 4.23611H1560.29L1495.34 300.764H1544.16Z" fill="white"/>
<path d="M1623.64 300.764L1671.15 84.2986L1683.36 300.764H1730.44L1795.39 4.23611H1751.79L1712.56 181.729L1702.97 4.23611H1645L1580.05 300.764H1623.64Z" fill="white"/>
<path d="M1845.41 305C1885.51 305 1910.36 282.549 1919.95 238.069L1943.05 133.438H1872.43L1863.28 175.799H1887.69L1874.18 236.799C1870.26 254.167 1861.1 262.639 1846.72 262.639C1831.46 262.639 1823.61 255.861 1823.61 242.306C1823.61 238.917 1824.05 235.528 1824.92 231.715L1861.1 68.2014C1865.02 50.8333 1874.18 41.9375 1888.13 41.9375C1903.38 41.9375 1911.23 48.7153 1911.23 62.6944C1911.23 66.0833 1910.79 69.4722 1909.92 73.2847L1904.26 99.9722H1950.46L1954.38 80.9097C1956.13 72.8611 1957 65.2361 1957 58.0347C1957 20.7569 1933.46 0 1887.69 0C1847.15 0 1822.31 22.0278 1812.28 66.5069L1777.84 223.243C1776.1 231.715 1775.23 239.764 1775.23 246.965C1775.23 285.514 1802.25 305 1845.41 305Z" fill="white"/>
<path fill-rule="evenodd" clip-rule="evenodd" d="M74.851 715H0L80.939 334.75H171.237C195 334.75 214.766 340.339 228.668 352.57C242.748 364.956 249.562 383.042 249.562 405.275C249.562 414.252 248.442 424.159 246.284 434.948L246.275 434.994L242.64 452.647C242.639 452.652 242.638 452.657 242.637 452.662C238.112 475.014 231.698 492.81 222.017 506.176C215.647 514.97 207.997 521.661 198.93 526.47C202.274 529.398 205.142 532.87 207.496 536.886C212.881 546.072 215.242 557.518 215.242 570.635C215.242 580.991 214.161 592.034 211.386 602.667L197.906 666.436L197.905 666.441C194.246 683.691 192.882 693.811 192.882 697.515C192.882 698.466 193.053 699.743 193.35 701.964C193.492 703.026 193.664 704.305 193.859 705.867L195 715H121.64L121.02 707.55C120.889 705.985 120.751 704.445 120.618 702.971C120.264 699.038 119.952 695.573 119.952 693.355C119.952 684.67 121.663 673.07 124.809 658.387C124.81 658.382 124.811 658.378 124.812 658.373L138.866 591.746L138.888 591.654C140.897 583.113 141.792 576.514 141.792 571.675C141.792 564.642 140.204 562.709 138.945 561.788C136.897 560.29 132.43 559 122.357 559H108.131L74.851 715ZM101.557 550.875L68.2765 706.875H10.0365L87.5165 342.875H171.237C216.477 342.875 241.437 364.195 241.437 405.275C241.437 413.595 240.397 422.955 238.317 433.355L234.677 451.035C226.966 489.133 214.113 511.012 191.287 521.158C187.997 522.62 184.499 523.838 180.781 524.826C180.719 524.843 180.658 524.859 180.597 524.875V525.395C180.647 525.411 180.696 525.428 180.746 525.444C184.395 526.639 187.665 528.234 190.556 530.231C201.596 537.854 207.117 551.322 207.117 570.635C207.117 580.515 206.077 590.915 203.477 600.795L189.957 664.755C186.317 681.915 184.757 692.835 184.757 697.515C184.757 697.893 184.774 698.304 184.805 698.75C184.899 700.103 185.123 701.772 185.389 703.755C185.518 704.721 185.657 705.761 185.797 706.875H129.117C128.962 705.024 128.808 703.309 128.667 701.746C128.334 698.041 128.077 695.184 128.077 693.355C128.077 685.555 129.637 674.635 132.757 660.075L146.797 593.515C148.877 584.675 149.917 577.395 149.917 571.675C149.917 555.555 142.637 550.875 122.357 550.875H101.557ZM180.597 430.235C182.157 424.515 182.677 418.795 182.677 413.595C182.677 401.115 175.397 394.875 160.837 394.875H134.837L112.477 498.875H129.637C153.037 498.875 168.117 485.355 174.357 458.315L180.597 430.235ZM166.433 456.519L172.707 428.284L172.758 428.097C174.081 423.245 174.552 418.275 174.552 413.595C174.552 408.963 173.259 406.864 171.929 405.724C170.359 404.378 167.144 403 160.837 403H141.4L122.534 490.75H129.637C139.674 490.75 147.242 487.899 152.982 482.709C158.843 477.408 163.552 468.981 166.433 456.519ZM409.375 715H236.742L317.681 334.75H490.366L475.351 403H378.17L361.315 482.95H438.267L423.935 551.2H346.949L326.506 646.75H423.707L409.375 715ZM316.459 654.875L340.379 543.075H417.339L428.259 491.075H351.299L371.579 394.875H468.819L480.259 342.875H324.259L246.779 706.875H402.779L413.699 654.875H316.459ZM691.574 434.915L652.574 618.995C640.094 678.795 609.414 706.875 553.254 706.875H459.654L537.134 342.875H621.374C669.214 342.875 694.694 366.275 694.694 407.875C694.694 415.675 693.654 425.035 691.574 434.915ZM699.525 436.589L660.528 620.655C660.526 620.663 660.524 620.671 660.523 620.679M660.523 620.679C654.083 651.522 642.719 675.353 624.702 691.424C606.561 707.605 582.714 715 553.254 715H449.617L530.556 334.75H621.374C646.508 334.75 667.056 340.893 681.392 353.72C695.871 366.675 702.819 385.372 702.819 407.875C702.819 416.342 701.697 426.271 699.525 436.589M591.037 403L539.362 646.75H554.814C563.142 646.75 569.354 644.255 574.147 639.654C579.11 634.889 583.232 627.204 585.881 615.678C585.886 615.658 585.89 615.639 585.894 615.62L626.403 426.578C627.384 421.151 627.809 417.046 627.809 414.115C627.809 409.125 626.458 406.902 625.124 405.735C623.575 404.38 620.406 403 614.094 403H591.037ZM634.374 428.155C635.414 422.435 635.934 417.755 635.934 414.115C635.934 401.115 628.654 394.875 614.094 394.875H584.454L529.334 654.875H554.814C575.094 654.875 588.094 642.395 593.814 617.435L634.374 428.155ZM861.023 715H688.391L769.33 334.75H942.014L926.999 403H829.818L812.964 482.95H889.916L875.584 551.2H798.598L778.155 646.75H875.356L861.023 715ZM768.107 654.875L792.028 543.075H868.988L879.908 491.075H802.947L823.227 394.875H920.468L931.908 342.875H775.907L698.427 706.875H854.428L865.347 654.875H768.107ZM976.639 715H901.266L982.205 334.75H1150.21L1135.19 403H1042.7L1024.79 488.15H1097.07L1082.74 556.4H1010.44L976.639 715ZM1003.86 548.275L970.063 706.875H911.303L988.783 342.875H1140.1L1128.66 394.875H1036.1L1014.78 496.275H1087.06L1076.14 548.275H1003.86ZM1180.87 715H1106.02L1186.96 334.75H1261.81L1180.87 715ZM1251.77 342.875H1193.53L1116.05 706.875H1174.29L1251.77 342.875ZM1301.68 715H1233.07L1314.01 334.75H1397.46L1406.09 499.228L1441.42 334.75H1510.02L1429.08 715H1358.66L1347.01 502.494L1301.68 715ZM1295.11 706.875H1243.11L1320.59 342.875H1389.75L1401.19 560.755L1447.99 342.875H1499.99L1422.51 706.875H1366.35L1351.79 441.155L1295.11 706.875ZM1653.62 715H1480.99L1561.92 334.75H1734.61L1719.59 403H1622.41L1605.56 482.95H1682.51L1668.18 551.2H1591.19L1570.75 646.75H1667.95L1653.62 715ZM1560.7 654.875L1584.62 543.075H1661.58L1672.5 491.075H1595.54L1615.82 394.875H1713.06L1724.5 342.875H1568.5L1491.02 706.875H1647.02L1657.94 654.875H1560.7ZM1935.82 434.915L1896.82 618.995C1884.34 678.795 1853.66 706.875 1797.5 706.875H1703.9L1781.38 342.875H1865.62C1913.46 342.875 1938.94 366.275 1938.94 407.875C1938.94 415.675 1937.9 425.035 1935.82 434.915ZM1943.77 436.589L1943.77 436.599L1904.77 620.655C1904.77 620.658 1904.77 620.661 1904.77 620.663C1898.33 651.514 1886.96 675.35 1868.95 691.424C1850.8 707.605 1826.96 715 1797.5 715H1693.86L1774.8 334.75H1865.62C1890.75 334.75 1911.3 340.893 1925.63 353.72C1940.11 366.675 1947.06 385.372 1947.06 407.875C1947.06 416.342 1945.94 426.271 1943.77 436.589ZM1835.28 403L1783.6 646.75H1799.06C1807.38 646.75 1813.6 644.255 1818.39 639.654C1823.35 634.889 1827.48 627.202 1830.12 615.674C1830.13 615.656 1830.13 615.638 1830.14 615.62L1870.64 426.58C1871.63 421.152 1872.05 417.046 1872.05 414.115C1872.05 409.125 1870.7 406.902 1869.37 405.735C1867.82 404.38 1864.65 403 1858.34 403H1835.28ZM1878.62 428.155C1879.66 422.435 1880.18 417.755 1880.18 414.115C1880.18 401.115 1872.9 394.875 1858.34 394.875H1828.7L1773.58 654.875H1799.06C1819.34 654.875 1832.34 642.395 1838.06 617.435L1878.62 428.155Z" fill="white"/>
</svg>
