<svg width="80" height="80" viewBox="0 0 80 80" fill="none" xmlns="http://www.w3.org/2000/svg">
<path d="M20.8333 10C14.86 10 10 14.86 10 20.8333V59.1667C10 65.14 14.86 70 20.8333 70H40.0749C39.0865 68.4567 38.2866 66.7783 37.7116 65H20.8333C17.6167 65 15 62.3833 15 59.1667V28.3333H65V37.7116C66.7783 38.2866 68.4567 39.0849 70 40.0749V20.8333C70 14.86 65.14 10 59.1667 10H20.8333ZM20.8333 15H59.1667C62.3833 15 65 17.6167 65 20.8333V23.3333H15V20.8333C15 17.6167 17.6167 15 20.8333 15ZM25.8333 35C24.7283 35 23.6685 35.439 22.8871 36.2204C22.1057 37.0018 21.6667 38.0616 21.6667 39.1667C21.6667 40.2717 22.1057 41.3315 22.8871 42.1129C23.6685 42.8943 24.7283 43.3333 25.8333 43.3333C26.9384 43.3333 27.9982 42.8943 28.7796 42.1129C29.561 41.3315 30 40.2717 30 39.1667C30 38.0616 29.561 37.0018 28.7796 36.2204C27.9982 35.439 26.9384 35 25.8333 35ZM40 35C38.8949 35 37.8351 35.439 37.0537 36.2204C36.2723 37.0018 35.8333 38.0616 35.8333 39.1667C35.8333 40.2717 36.2723 41.3315 37.0537 42.1129C37.8351 42.8943 38.8949 43.3333 40 43.3333C41.1051 43.3333 42.1649 42.8943 42.9463 42.1129C43.7277 41.3315 44.1667 40.2717 44.1667 39.1667C44.1667 38.0616 43.7277 37.0018 42.9463 36.2204C42.1649 35.439 41.1051 35 40 35ZM58.3333 40C48.2083 40 40 48.2083 40 58.3333C40 68.4583 48.2083 76.6667 58.3333 76.6667C68.4583 76.6667 76.6667 68.4583 76.6667 58.3333C76.6667 48.2083 68.4583 40 58.3333 40ZM58.3333 45C59.255 45 60 45.7467 60 46.6667V48.3594C62.5733 48.4894 64.2147 49.9584 64.7331 50.7617C65.2331 51.535 65.0116 52.5681 64.2383 53.0664C63.4633 53.5614 62.4303 53.3449 61.9336 52.5716C61.9286 52.5716 61.2102 51.6667 59.6452 51.6667H57.0833C55.705 51.6667 54.5833 52.7883 54.5833 54.1667C54.5833 55.545 55.705 56.6667 57.0833 56.6667H60C63.2167 56.6667 65.8333 59.2833 65.8333 62.5C65.8333 65.7167 63.2167 68.3333 60 68.3333V70C60 70.92 59.255 71.6667 58.3333 71.6667C57.4117 71.6667 56.6667 70.92 56.6667 70V68.3268C54.5933 68.3118 52.6966 67.5534 51.3216 66.1784C50.6699 65.5267 50.6699 64.4765 51.3216 63.8249C51.9733 63.1732 53.0267 63.1732 53.6784 63.8249C54.215 64.3599 55.1802 65 56.7285 65H60C61.3783 65 62.5 63.8783 62.5 62.5C62.5 61.1217 61.3783 60 60 60H57.0833C53.8667 60 51.25 57.3833 51.25 54.1667C51.25 51.0933 53.6483 48.594 56.6667 48.3756V46.6667C56.6667 45.7467 57.4117 45 58.3333 45ZM25.8333 50C24.7283 50 23.6685 50.439 22.8871 51.2204C22.1057 52.0018 21.6667 53.0616 21.6667 54.1667C21.6667 55.2717 22.1057 56.3315 22.8871 57.1129C23.6685 57.8943 24.7283 58.3333 25.8333 58.3333C26.9384 58.3333 27.9982 57.8943 28.7796 57.1129C29.561 56.3315 30 55.2717 30 54.1667C30 53.0616 29.561 52.0018 28.7796 51.2204C27.9982 50.439 26.9384 50 25.8333 50Z" fill="#1C8195"/>
</svg>
