<svg width="118" height="48" viewBox="0 0 118 48" fill="none" xmlns="http://www.w3.org/2000/svg">
<path d="M65.5875 21.6162C63.069 21.6162 61.2405 22.5477 59.9985 24.1347V22.0992H55.548V46.2491H59.9985V37.3137C61.2405 38.9007 63.069 39.8322 65.5875 39.8322C70.2104 39.8322 74.0054 35.8647 74.0054 30.7242C74.0054 25.5837 70.2104 21.6162 65.5875 21.6162ZM64.7595 35.5887C62.034 35.5887 59.9985 33.6222 59.9985 30.7242C59.9985 27.8262 62.034 25.8597 64.7595 25.8597C67.5194 25.8597 69.5549 27.8262 69.5549 30.7242C69.5549 33.6222 67.5194 35.5887 64.7595 35.5887Z" fill="#13294B"/>
<path d="M90.2541 22.0992V24.1347C89.0121 22.5822 87.1491 21.6162 84.6306 21.6162C80.0421 21.6162 76.2471 25.5837 76.2471 30.7242C76.2471 35.8647 80.0421 39.8322 84.6306 39.8322C87.1491 39.8322 89.0121 38.8662 90.2541 37.3137V39.3492H94.7046V22.0992H90.2541ZM85.4586 35.5887C82.7331 35.5887 80.6976 33.6222 80.6976 30.7242C80.6976 27.8262 82.7331 25.8597 85.4586 25.8597C88.2186 25.8597 90.2541 27.8262 90.2541 30.7242C90.2541 33.6222 88.2186 35.5887 85.4586 35.5887Z" fill="#13294B"/>
<path d="M109.987 22.0992L106.158 33.6912L101.673 22.0992H96.8083L103.881 38.7972C103.053 41.1087 101.811 42.1437 99.3613 42.1092V46.2491C103.743 46.4906 106.675 44.3171 108.469 39.3492L114.748 22.0992H109.987Z" fill="#13294B"/>
<path d="M62.2677 6.80075C60.8794 6.80075 59.8715 7.31424 59.1868 8.18906V3.26343H56.7335V16.5759H59.1868V15.4539C59.8715 16.3287 60.8794 16.8422 62.2677 16.8422C64.8161 16.8422 66.9081 14.6551 66.9081 11.8215C66.9081 8.98781 64.8161 6.80075 62.2677 6.80075ZM61.8113 14.503C60.3089 14.503 59.1868 13.419 59.1868 11.8215C59.1868 10.224 60.3089 9.13995 61.8113 9.13995C63.3327 9.13995 64.4548 10.224 64.4548 11.8215C64.4548 13.419 63.3327 14.503 61.8113 14.503Z" fill="#13294B"/>
<path d="M71.0916 8.70254V7.067H68.6383V16.5759H71.0916V12.0307C71.0916 10.0338 72.7081 9.46326 73.9823 9.6154V6.87682C72.7842 6.87682 71.586 7.40933 71.0916 8.70254Z" fill="#13294B"/>
<path d="M77.1372 12.8294H84.3069C84.364 12.5061 84.402 12.1828 84.402 11.8215C84.402 9.02585 82.4051 6.80075 79.5905 6.80075C76.6047 6.80075 74.5698 8.98781 74.5698 11.8215C74.5698 14.6551 76.5857 16.8422 79.7807 16.8422C81.6064 16.8422 83.0327 16.1005 83.9266 14.8073L81.9487 13.6662C81.5303 14.2177 80.7696 14.6171 79.8187 14.6171C78.5255 14.6171 77.4795 14.0846 77.1372 12.8294ZM77.0991 10.9276C77.3844 9.71049 78.2783 9.00683 79.5905 9.00683C80.6175 9.00683 81.6444 9.55834 81.9487 10.9276H77.0991Z" fill="#13294B"/>
<path d="M93.2672 7.067V8.18906C92.5825 7.33325 91.5556 6.80075 90.1673 6.80075C87.6379 6.80075 85.5459 8.98781 85.5459 11.8215C85.5459 14.6551 87.6379 16.8422 90.1673 16.8422C91.5556 16.8422 92.5825 16.3097 93.2672 15.4539V16.5759H95.7205V7.067H93.2672ZM90.6237 14.503C89.1213 14.503 87.9992 13.419 87.9992 11.8215C87.9992 10.224 89.1213 9.13995 90.6237 9.13995C92.1451 9.13995 93.2672 10.224 93.2672 11.8215C93.2672 13.419 92.1451 14.503 90.6237 14.503Z" fill="#13294B"/>
<path d="M105.153 3.26343V8.18906C104.468 7.31424 103.46 6.80075 102.072 6.80075C99.5236 6.80075 97.4316 8.98781 97.4316 11.8215C97.4316 14.6551 99.5236 16.8422 102.072 16.8422C103.46 16.8422 104.468 16.3287 105.153 15.4539V16.5759H107.606V3.26343H105.153ZM102.528 14.503C101.007 14.503 99.8849 13.419 99.8849 11.8215C99.8849 10.224 101.007 9.13995 102.528 9.13995C104.031 9.13995 105.153 10.224 105.153 11.8215C105.153 13.419 104.031 14.503 102.528 14.503Z" fill="#13294B"/>
<path d="M24 0C10.7439 0 0 10.7439 0 24C0 37.2561 10.7439 48 24 48C37.2561 48 48 37.2561 48 24C48.0224 10.7439 37.2785 0 24 0ZM28.6206 41.4729L28.3065 41.6523C26.1981 42.7962 23.5514 41.9888 22.4075 39.8804L9.35327 15.6336C8.20934 13.5252 9.01682 10.8785 11.1252 9.73458L11.4392 9.55514C13.5477 8.41121 16.1944 9.19626 17.3383 11.3271L30.3925 35.5738C31.514 37.7047 30.729 40.329 28.6206 41.4729ZM33.8916 34.7439L23.7533 15.9252C28.957 13.1215 35.4392 15.0729 38.243 20.2766C41.0467 25.4579 39.0953 31.9402 33.8916 34.7439Z" fill="#59BEC9"/>
<path d="M115.01 38.1866H113.244V38.6394H113.889V40.5878H114.362V38.6394H115.01V38.1866Z" fill="#13294B"/>
<path d="M117.625 38.1866H117.137L116.451 39.3221L115.762 38.1866H115.275V40.5878H115.748V39.0339L116.424 40.1453H116.479L117.155 39.0305V40.5878H117.625V38.1866Z" fill="#13294B"/>
</svg>
