<svg width="80" height="80" viewBox="0 0 80 80" fill="none" xmlns="http://www.w3.org/2000/svg">
<path d="M34.1654 6.66602C30.3377 6.66602 27.1749 9.61039 26.75 13.3327H20.832C16.7195 13.3327 13.332 16.7202 13.332 20.8327V65.8327C13.332 69.9452 16.7195 73.3327 20.832 73.3327H59.1654C63.2779 73.3327 66.6654 69.9452 66.6654 65.8327V20.8327C66.6654 16.7202 63.2779 13.3327 59.1654 13.3327H53.2474C52.8225 9.61039 49.6597 6.66602 45.832 6.66602H34.1654ZM34.1654 11.666H45.832C47.2429 11.666 48.332 12.7552 48.332 14.166C48.332 15.5768 47.2429 16.666 45.832 16.666H34.1654C32.7545 16.666 31.6654 15.5768 31.6654 14.166C31.6654 12.7552 32.7545 11.666 34.1654 11.666ZM20.832 18.3327H27.9479C29.3008 20.3358 31.5899 21.666 34.1654 21.666H45.832C48.4075 21.666 50.6966 20.3358 52.0495 18.3327H59.1654C60.5762 18.3327 61.6654 19.4219 61.6654 20.8327V65.8327C61.6654 67.2435 60.5762 68.3327 59.1654 68.3327H20.832C19.4212 68.3327 18.332 67.2435 18.332 65.8327V20.8327C18.332 19.4219 19.4212 18.3327 20.832 18.3327ZM54.1165 31.6432C53.4673 31.6622 52.8509 31.933 52.3978 32.3984L47.4987 37.2975L45.9329 35.7318C45.7026 35.4918 45.4267 35.3003 45.1213 35.1683C44.816 35.0364 44.4874 34.9667 44.1548 34.9633C43.8222 34.9599 43.4923 35.0229 43.1844 35.1486C42.8764 35.2744 42.5967 35.4603 42.3615 35.6955C42.1263 35.9307 41.9404 36.2104 41.8147 36.5184C41.6889 36.8263 41.6259 37.1562 41.6293 37.4888C41.6327 37.8214 41.7024 38.15 41.8343 38.4553C41.9663 38.7606 42.1579 39.0366 42.3978 39.2669L45.7311 42.6003C46.2 43.0689 46.8358 43.3322 47.4987 43.3322C48.1616 43.3322 48.7974 43.0689 49.2663 42.6003L55.9329 35.9336C56.2936 35.5823 56.5398 35.1304 56.6394 34.6369C56.7389 34.1434 56.6872 33.6313 56.4909 33.1677C56.2946 32.7041 55.963 32.3105 55.5393 32.0385C55.1157 31.7665 54.6198 31.6287 54.1165 31.6432ZM25.832 34.9993C25.5008 34.9947 25.1718 35.0559 24.8644 35.1794C24.557 35.3029 24.2772 35.4863 24.0413 35.719C23.8054 35.9516 23.618 36.2287 23.4901 36.5344C23.3623 36.84 23.2964 37.168 23.2964 37.4993C23.2964 37.8307 23.3623 38.1587 23.4901 38.4643C23.618 38.77 23.8054 39.0471 24.0413 39.2797C24.2772 39.5124 24.557 39.6958 24.8644 39.8193C25.1718 39.9428 25.5008 40.004 25.832 39.9993H35.832C36.1633 40.004 36.4922 39.9428 36.7996 39.8193C37.1071 39.6958 37.3869 39.5124 37.6228 39.2797C37.8587 39.0471 38.0461 38.77 38.1739 38.4643C38.3018 38.1587 38.3676 37.8307 38.3676 37.4993C38.3676 37.168 38.3018 36.84 38.1739 36.5344C38.0461 36.2287 37.8587 35.9516 37.6228 35.719C37.3869 35.4863 37.1071 35.3029 36.7996 35.1794C36.4922 35.0559 36.1633 34.9947 35.832 34.9993H25.832ZM54.1165 45.8099C53.4673 45.8288 52.8509 46.0997 52.3978 46.5651L47.4987 51.4642L45.9329 49.8984C45.7026 49.6585 45.4267 49.467 45.1213 49.335C44.816 49.203 44.4874 49.1333 44.1548 49.13C43.8222 49.1266 43.4923 49.1896 43.1844 49.3153C42.8764 49.441 42.5967 49.6269 42.3615 49.8621C42.1263 50.0973 41.9404 50.3771 41.8147 50.685C41.6889 50.993 41.6259 51.3229 41.6293 51.6555C41.6327 51.9881 41.7024 52.3167 41.8343 52.622C41.9663 52.9273 42.1579 53.2032 42.3978 53.4336L45.7311 56.7669C46.2 57.2356 46.8358 57.4989 47.4987 57.4989C48.1616 57.4989 48.7974 57.2356 49.2663 56.7669L55.9329 50.1003C56.2936 49.749 56.5398 49.297 56.6394 48.8035C56.7389 48.31 56.6872 47.798 56.4909 47.3343C56.2946 46.8707 55.963 46.4772 55.5393 46.2052C55.1157 45.9332 54.6198 45.7954 54.1165 45.8099ZM25.832 49.9993C25.5008 49.9947 25.1718 50.0559 24.8644 50.1794C24.557 50.3029 24.2772 50.4863 24.0413 50.7189C23.8054 50.9516 23.618 51.2287 23.4901 51.5344C23.3623 51.84 23.2964 52.168 23.2964 52.4993C23.2964 52.8307 23.3623 53.1587 23.4901 53.4643C23.618 53.77 23.8054 54.0471 24.0413 54.2798C24.2772 54.5124 24.557 54.6958 24.8644 54.8193C25.1718 54.9428 25.5008 55.004 25.832 54.9993H35.832C36.1633 55.004 36.4922 54.9428 36.7996 54.8193C37.1071 54.6958 37.3869 54.5124 37.6228 54.2798C37.8587 54.0471 38.0461 53.77 38.1739 53.4643C38.3018 53.1587 38.3676 52.8307 38.3676 52.4993C38.3676 52.168 38.3018 51.84 38.1739 51.5344C38.0461 51.2287 37.8587 50.9516 37.6228 50.7189C37.3869 50.4863 37.1071 50.3029 36.7996 50.1794C36.4922 50.0559 36.1633 49.9947 35.832 49.9993H25.832Z" fill="#1C8195"/>
</svg>
