<svg width="80" height="80" viewBox="0 0 80 80" fill="none" xmlns="http://www.w3.org/2000/svg">
<path d="M40.0013 6.66602C29.913 6.66602 20.8787 11.187 14.7604 18.2904L16.5378 20.0677C16.5474 20.0786 16.5572 20.0895 16.5671 20.1003L18.2923 21.8255L58.1751 61.7083L59.9004 63.4336C59.9101 63.4434 59.9198 63.4532 59.9297 63.4629L61.7103 65.2402C68.8136 59.1236 73.3346 50.0877 73.3346 39.9993C73.3346 21.6193 58.3813 6.66602 40.0013 6.66602ZM40.0013 11.666C55.6246 11.666 68.3346 24.376 68.3346 39.9993C68.3346 46.9127 65.8137 53.2255 61.6842 58.1471L51.6191 48.082C51.6513 47.7535 51.668 47.4197 51.668 47.0827C51.668 41.3393 46.9946 36.666 41.2513 36.666H40.2031L33.7448 30.2077C34.4631 28.614 36.0586 27.4993 37.918 27.4993H38.7578C39.0262 27.5434 39.3 27.5434 39.5684 27.4993H40.8346C42.713 27.4993 44.3681 28.7639 44.8581 30.5755C45.2164 31.9072 46.5928 32.6916 47.9245 32.3366C49.2578 31.9766 50.0455 30.6035 49.6855 29.2702C48.6825 25.5561 45.4468 22.9186 41.668 22.571V20.8327C41.6728 20.4981 41.6103 20.1659 41.4844 19.8559C41.3585 19.5458 41.1716 19.2642 40.9348 19.0277C40.698 18.7913 40.4162 18.6047 40.106 18.4792C39.7958 18.3536 39.4635 18.2916 39.1289 18.2969C38.4664 18.3072 37.8352 18.5801 37.3737 19.0556C36.9123 19.531 36.6585 20.1702 36.668 20.8327V22.6003C33.9605 22.9566 31.6179 24.4417 30.112 26.5749L21.8535 18.3164C26.7751 14.1869 33.088 11.666 40.0013 11.666ZM12.6999 20.9336C8.91154 26.3419 6.66797 32.9077 6.66797 39.9993C6.66797 58.3793 21.6213 73.3327 40.0013 73.3327C47.093 73.3327 53.6603 71.0908 59.0703 67.3008L55.4733 63.7038C51.02 66.6204 45.7096 68.3327 40.0013 68.3327C24.378 68.3327 11.668 55.6227 11.668 39.9993C11.668 34.2893 13.3802 28.979 16.2969 24.5273L12.6999 20.9336ZM30.9193 47.5221C30.7535 47.5308 30.5881 47.5569 30.4212 47.6003C29.0846 47.9469 28.2842 49.3105 28.6309 50.6471C29.6112 54.4085 32.8542 57.0785 36.668 57.4277V59.166C36.6633 59.4973 36.7245 59.8262 36.848 60.1336C36.9716 60.441 37.155 60.7208 37.3876 60.9568C37.6202 61.1927 37.8974 61.38 38.203 61.5079C38.5086 61.6358 38.8367 61.7016 39.168 61.7016C39.4993 61.7016 39.8273 61.6358 40.1329 61.5079C40.4386 61.38 40.7158 61.1927 40.9484 60.9568C41.181 60.7208 41.3644 60.441 41.4879 60.1336C41.6115 59.8262 41.6727 59.4973 41.668 59.166V57.4668C43.7652 57.3816 45.7065 56.691 47.3092 55.5397L43.6699 51.9036C42.9383 52.272 42.1246 52.4993 41.2513 52.4993H37.5013C35.6046 52.4993 33.9448 51.219 33.4681 49.3874C33.1633 48.2192 32.08 47.4613 30.9193 47.5221Z" fill="#1C8195"/>
</svg>
