<svg version="1.1" id="Layer_1" xmlns="http://www.w3.org/2000/svg" x="0" y="0" viewBox="0 0 130 130" xml:space="preserve"><style>.st0,.st2{fill:none;stroke:#34657f;stroke-width:3}.st0{stroke-miterlimit:10}.st2{stroke-linejoin:round}</style><g id="Group_1928" transform="translate(-486.5 -1585)"><path id="Line_76" class="st0" d="M511.8 1633.3h53.9"/><path id="Line_77" class="st0" d="M511.8 1648h53.9"/><path id="Path_974" d="M511.8 1687.2c3.6-2 7-4.1 10.3-6.4 4.4-3.4 6.8-9.7 3.4-10.6-4.8-1.2-6.1 14.6-1.6 16.7 5.4 2.6 19.4-14.1 19.4-14.1l-4.6 14.4c4.3-3.1 9.4-4.9 14.7-4.9" fill="none" stroke="#34657f" stroke-width="3" stroke-linecap="round" stroke-linejoin="round"/><path id="Path_975" class="st2" d="M489.8 1711.8h98v-117.6h-73.5l-24.5 24.5v93.1z"/><path id="Path_976" class="st2" d="M514.3 1594.1v24.5h-24.5"/><path id="Path_977" d="M609.9 1587.5c-2-.9-4.3-1-6.4-.2-7.9 2.9-20.7 27.6-30.1 47.9-5.2 11.2-9.9 22.7-13.9 34.4-3.7 11.2-6.2 20.8 1.2 24.3 1.1.5 2.2.8 3.4.8 1 0 2-.2 2.9-.5 7.9-2.9 20.7-27.6 30.1-47.9 5.2-11.2 9.9-22.7 13.9-34.4 3.9-11.3 6.4-20.9-1.1-24.4z" fill="#fff"/><ellipse id="Ellipse_36" transform="rotate(-65.26 585.32 1640.68)" class="st2" cx="585.4" cy="1640.7" rx="51.2" ry="5.7"/><path id="Line_78" class="st2" d="M586.9 1624.3l9.9 4.7"/></g></svg>