<svg version="1.1" id="Layer_1" xmlns="http://www.w3.org/2000/svg" x="0" y="0" viewBox="0 0 130 130" xml:space="preserve"><style>.st0{fill:none;stroke:#34657f;stroke-width:3;stroke-linecap:round;stroke-linejoin:round}.st1{fill:#fff}.st3{fill:none;stroke:#34657f;stroke-width:3;stroke-linejoin:round}</style><g id="Group_1929" transform="translate(-548.5 -1585)"><path id="Rectangle_867" class="st0" d="M629.7 1594.1h25.4c1.1 0 2 .9 2 2v25.4c0 1.1-.9 2-2 2h-25.4c-1.1 0-2-.9-2-2v-25.4c0-1.1.9-2 2-2z"/><path id="Path_978" class="st1" d="M642.4 1618.6c-2 0-3.8-.8-5.2-2.2l-4.9-4.9c-2.9-2.9-2.9-7.5 0-10.4 2.8-2.8 7.2-2.9 10.1-.3l12-12c2.9-2.9 7.5-2.9 10.4 0 2.9 2.9 2.9 7.5 0 10.4l-17.2 17.2c-1.3 1.4-3.2 2.2-5.2 2.2z"/><path id="Path_979" class="st0" d="M637.5 1606.4l4.9 4.9 17.2-17.2"/><path id="Rectangle_868" class="st0" d="M629.7 1638.2h25.4c1.1 0 2 .9 2 2v25.4c0 1.1-.9 2-2 2h-25.4c-1.1 0-2-.9-2-2v-25.4c0-1.1.9-2 2-2z"/><path id="Path_980" class="st1" d="M642.4 1662.7c-2 0-3.8-.8-5.2-2.2l-4.9-4.9c-2.9-2.9-2.9-7.5 0-10.4 2.8-2.8 7.2-2.9 10.1-.3l12-12c2.9-2.9 7.5-2.9 10.4 0 2.9 2.9 2.9 7.5 0 10.4l-17.2 17.2c-1.3 1.5-3.2 2.2-5.2 2.2z"/><path id="Path_981" class="st0" d="M637.5 1650.5l4.9 4.9 17.2-17.2"/><path id="Rectangle_869" class="st0" d="M629.7 1682.3h25.4c1.1 0 2 .9 2 2v25.4c0 1.1-.9 2-2 2h-25.4c-1.1 0-2-.9-2-2v-25.4c0-1.1.9-2 2-2z"/><path id="Path_982" class="st1" d="M642.4 1706.8c-2 0-3.8-.8-5.2-2.2l-4.9-4.9c-2.9-2.9-2.9-7.5 0-10.4 2.8-2.8 7.2-2.9 10.1-.3l12-12c2.9-2.9 7.5-2.9 10.4 0 2.9 2.9 2.9 7.5 0 10.4l-17.2 17.2c-1.3 1.5-3.2 2.3-5.2 2.2z"/><path id="Path_983" class="st0" d="M637.5 1694.6l4.9 4.9 17.2-17.2"/><path id="Line_79" fill="none" stroke="#34657f" stroke-width="3" stroke-miterlimit="10" d="M581.2 1711.8v-22.1"/><path id="Path_984" class="st3" d="M593.4 1689.7v22.1h-24.5v-46.6c-4.1 0-7.4-3.3-7.4-7.4V1629c0-1.9 1.1-3.7 2.9-4.5 5.3-2.3 11-3.4 16.8-3.4 5.7 0 11.4 1.1 16.6 3.4 1.7.8 2.9 2.5 2.9 4.5v36.3"/><path id="Path_985" class="st0" d="M591 1603.9c0 7.4-4.4 12.3-9.8 12.3s-9.8-4.9-9.8-12.3c0-5.4 4.4-9.8 9.8-9.8s9.8 4.4 9.8 9.8z"/><path id="Rectangle_870" class="st3" d="M581.2 1665.2h34.3v24.5h-34.3z"/></g></svg>