<svg version="1.1" id="Layer_1" xmlns="http://www.w3.org/2000/svg" x="0" y="0" viewBox="0 0 130 130" xml:space="preserve"><style>.st0{fill:#34657f;stroke:#fff;stroke-width:2.5}</style><g id="Group_1930" transform="translate(-604.793 -1583.75)"><path id="Path_986" class="st0" d="M636.8 1711.2h-26.7c-1.6 0-2.8-1.2-2.9-2.8 0-1.6 1.2-2.8 2.8-2.9h26.8c1.6 0 2.8 1.2 2.9 2.8 0 1.6-1.2 2.8-2.8 2.9 0 .1-.1.1-.1 0z"/><path id="Path_987" class="st0" d="M622.3 1696.2h-12.2c-1.6 0-2.8-1.3-2.8-2.8 0-1.6 1.3-2.8 2.8-2.8h12.2c1.6 0 2.8 1.3 2.8 2.8.1 1.5-1.2 2.8-2.8 2.8z"/><path id="Path_988" class="st0" d="M622.7 1651.6c-1.6 0-2.8-1.3-2.8-2.8 0-9.4 7.6-17 17-17h18c1.6 0 2.8 1.3 2.8 2.9 0 1.5-1.3 2.7-2.8 2.8h-18c-6.3 0-11.4 5.1-11.4 11.4 0 1.4-1.3 2.7-2.8 2.7z"/><path id="Path_989" class="st0" d="M669.8 1609.3c-1.6 0-2.8-1.3-2.8-2.8v-17.4c0-1.6 1.3-2.8 2.8-2.8 1.6 0 2.8 1.3 2.8 2.8v17.4c0 1.6-1.2 2.8-2.8 2.8z"/><path id="Path_990" class="st0" d="M648.7 1609.3c-1.1 0-2-.6-2.5-1.6l-6-12c-.7-1.4-.2-3.1 1.2-3.8 1.4-.7 3.1-.2 3.8 1.2v.1l6 12c.7 1.4.1 3.1-1.3 3.8-.3.2-.8.3-1.2.3z"/><path id="Path_991" class="st0" d="M690.9 1609.3c-1.6 0-2.8-1.3-2.8-2.8 0-.4.1-.9.3-1.3l6-12c.7-1.4 2.4-2 3.8-1.3s2 2.4 1.3 3.8v.1l-6 12c-.6.9-1.5 1.5-2.6 1.5z"/><path id="Path_992" class="st0" d="M697.9 1711.2c-.8 0-1.5-.3-2-.8l-19-19-7.1 7.1c-1.1 1.1-2.9 1.1-4 0-.4-.4-.6-.8-.7-1.3l-10.2-42c-.4-1.5.6-3 2.1-3.4.4-.1.9-.1 1.3 0l42 10.2c1.5.4 2.4 1.9 2.1 3.4-.1.5-.4 1-.7 1.3l-7.1 7.1 19 19c1.1 1.1 1.1 2.9 0 4l-13.7 13.7c-.6.5-1.3.8-2 .7zm-21-26.6c.8 0 1.5.3 2 .8l19 19 9.7-9.7-19-19c-1.1-1.1-1.1-2.9 0-4l5.5-5.5-32.6-7.9 7.9 32.6 5.5-5.5c.5-.5 1.2-.8 2-.8z"/><path id="Path_993" class="st0" d="M649.8 1678.3h-12.9c-16.3 0-29.6-13.2-29.6-29.6 0-16.3 13.2-29.6 29.6-29.6h65.8c16.3 0 29.6 13.3 29.6 29.6 0 13.5-9.2 25.4-22.3 28.7-1.5.4-3.1-.5-3.5-2-.4-1.5.5-3.1 2-3.5h.1c12.8-3.2 20.6-16.3 17.3-29.1-2.7-10.6-12.2-18.1-23.2-18.1h-65.8c-13.2 0-23.9 10.7-23.9 23.9s10.7 23.9 23.9 23.9h12.9c1.6 0 2.8 1.3 2.8 2.8 0 1.8-1.3 3-2.8 3z"/></g></svg>