<svg id="Layer_1" data-name="Layer 1" xmlns="http://www.w3.org/2000/svg" viewBox="0 0 1694.55 361.91"><defs><style>.cls-1{fill:#fbc600;}.cls-2{fill:#3b3d44;}</style></defs><path class="cls-1" d="M275.48,0H205.66V181H275.5ZM69.86,181H0v181H69.86Zm102.82,181H102.82V0h69.85Z"/><path class="cls-2" d="M611.14,100.81,562.55,232.37,505.82,100.81H482.57l67.66,159.32-21.14,62.58h23.5L634,100.81Zm1060.54,0-48.59,131.56-56.73-131.56h-23.25l67.66,159.32-21.14,62.58h23.51l81.41-221.9ZM423.11,168.22C387.44,162.33,381.22,156,381.22,143c0-13.85,14.44-23.15,35.25-23.15,21.75,0,34,7.91,37.5,24.93l.19.89h23.41l-.52-3.09c-4.72-28.21-26.12-43.74-60.25-43.74-33.91,0-58.5,18.57-58.5,44.16,0,33.52,28.4,41,60,46.32,29.8,5.14,38.94,9.3,38.94,26.92,0,16.19-14.61,26.25-37.38,26.25-31.06,0-40.63-16.36-43.06-30.75h-24c2.91,31.9,28.54,51.75,67,51.75,35.89,0,60.94-19.68,60.94-47.82C480.75,180.91,453.49,173.39,423.11,168.22Zm788-69.67c-20.84,0-37.5,8.58-48.51,19.71V100.81h-22.41V260.94h22.41V165.25c0-22.57,16.18-45.41,47.09-45.41a50.43,50.43,0,0,1,15.68,2.25V99.79a80.68,80.68,0,0,0-14.3-1.24ZM881.9,241.91c-31.37,0-54.14-25.14-54.14-59.77v-2.25c0-34.8,22.89-60,54.42-60,21.88,0,39.16,11.82,47.72,30.81H954c-10.3-31.22-37.36-51.82-71.77-51.82-44,0-77.12,34.84-77.12,81.06v2.25c0,45.45,33.63,81.06,76.55,81.06,37.19,0,66.59-25.2,74.64-61.17H933.08C926.31,226.25,907.14,241.91,881.9,241.91ZM1477.5,98.54c-20.84,0-37.5,8.58-48.51,19.72V100.81h-22.41V260.93H1429V165.25c0-22.57,16.19-45.41,47.1-45.41,26,0,38.09,13.8,38.09,43.43v97.66h22.41V163.55C1536.59,121.64,1515.61,98.54,1477.5,98.54Zm-118.82,83.32v-2.25c0-35.2-22-59.77-53.58-59.77s-54.42,25.25-54.42,60v2.25c0,34.64,22.77,59.77,54.14,59.77,31.73,0,53.88-24.69,53.88-60Zm22.7-2.25v2.25c0,46.37-33,81.34-76.84,81.34-42.94,0-76.56-35.61-76.56-81.06v-2.25c0-46.22,33.16-81.06,77.12-81.06,44.22,0,76.3,34,76.3,80.78Zm-333-81.07c-20.84,0-37.5,8.58-48.51,19.72V30.38H977.46V260.93h22.41V165.25c0-22.57,16.18-45.41,47.11-45.41,26,0,38.08,13.8,38.08,43.43v97.66h22.41V163.55C1107.47,121.64,1086.49,98.54,1048.38,98.54Zm-265.33,65v97.38H760.63V163.27c0-29.63-12.11-43.43-38.09-43.43-30.91,0-47.1,22.84-47.1,45.41v95.68H653V100.81h22.42v17.45c11-11.14,27.67-19.72,48.51-19.72C762.05,98.54,783.05,121.64,783.05,163.55Z"/></svg>